<svg width="400" height="400" viewBox="0 0 400 400" fill="none" xmlns="http://www.w3.org/2000/svg">
<rect width="400" height="400" fill="white"/>
<g clip-path="url(#clip0)">
<path d="M59.5115 201.054C55.644 202.817 51.3405 203.394 47.145 202.712C42.9496 202.03 39.0506 200.119 35.9409 197.221C32.8313 194.324 30.6506 190.569 29.6745 186.432C28.6985 182.295 28.9709 177.962 30.4574 173.979C31.9439 169.997 34.5776 166.545 38.0257 164.06C41.4738 161.574 45.5814 160.167 49.8293 160.016C54.0771 159.864 58.2745 160.976 61.8907 163.21C65.5069 165.443 68.3796 168.699 70.1457 172.566C71.3202 175.134 71.9768 177.909 72.078 180.731C72.1791 183.554 71.7227 186.369 70.735 189.015C69.7474 191.66 68.2477 194.086 66.3218 196.152C64.396 198.217 62.0818 199.883 59.5115 201.054V201.054Z" fill="#263238"/>
<path d="M69.9546 190.793L55.2891 167.77L71.9442 183.773C71.9877 183.33 72.0224 182.904 72.0398 182.435L52.3091 160.072C50.6221 159.932 48.9243 159.996 47.2526 160.263L51.2144 166.562L44.6636 160.828L49.8764 170.263L39.3378 163.191C39.0771 163.356 38.8165 163.521 38.5645 163.695L58.1214 185.415L42.6045 173.608L48.1214 182.296L40.0849 176.736L61.1275 200.246C63.6886 198.815 65.9275 196.872 67.7044 194.538L63.4212 187.387L68.7383 193.052C69.1902 192.325 69.5965 191.571 69.9546 190.793V190.793Z" fill="#6C63FF" fill-opacity="0.7"/>
<path d="M56.9138 202.044L40.1023 182.652L47.5741 194.19L29.1553 179.751C28.7021 185.25 30.3817 190.712 33.8463 195.007C37.3109 199.301 42.2947 202.098 47.7652 202.818L41.1275 196.918L51.4316 203C53.2922 202.916 55.1344 202.594 56.9138 202.044Z" fill="#6C63FF" fill-opacity="0.7"/>
<path d="M58.5819 161.575L68.0085 172.522L66.0971 168.343L69.1467 170.689C66.7422 166.556 63.0228 163.347 58.5819 161.575V161.575Z" fill="#6C63FF" fill-opacity="0.7"/>
<path d="M36.6618 178.508L31.5705 171.471C30.5245 173.464 29.7919 175.606 29.3985 177.822L36.6618 178.508Z" fill="#6C63FF" fill-opacity="0.7"/>
<path d="M82.5089 167.214C80.9451 163.791 74.012 163.313 64.8026 165.407C65.3876 165.921 65.9418 166.469 66.462 167.049C73.343 165.467 78.2517 165.606 79.2682 167.813C81.058 171.732 69.8938 180.68 54.3247 187.796C38.7556 194.911 24.6983 197.518 22.8998 193.599C21.9789 191.584 24.5071 188.23 29.2943 184.477C29.1846 183.714 29.1179 182.945 29.0945 182.175C22.4133 187.387 18.8599 192.461 20.3282 195.659C22.8043 201.08 38.7383 199.134 55.9494 191.254C73.1605 183.374 84.985 172.635 82.5089 167.214Z" fill="#263238"/>
<path d="M136 364C156.987 364 174 346.987 174 326C174 305.013 156.987 288 136 288C115.013 288 98 305.013 98 326C98 346.987 115.013 364 136 364Z" fill="#6C63FF" fill-opacity="0.7"/>
<path d="M144.959 297.893C147.51 295.554 150.453 293.685 153.655 292.371C150.57 290.74 147.271 289.552 143.855 288.84C140.334 291.188 136.986 293.788 133.838 296.617C120.243 308.968 123.945 307.739 104.191 315.143C102.368 315.816 100.613 316.66 98.9488 317.663C98.3245 320.382 98.0062 323.163 98 325.953C98.004 330.748 98.9171 335.498 100.691 339.953C107.753 337.806 117.148 334.322 121.488 329.982C128.892 322.609 130.136 311.488 144.959 297.893Z" fill="#263238"/>
<path d="M108.39 352.085C111.266 355.138 114.624 357.697 118.33 359.66C125.407 354.714 128.705 349.456 138.784 344.883C147.635 340.855 162.241 339.968 171.356 339.859C173.089 335.455 173.981 330.764 173.984 326.031C173.984 325.378 173.984 324.74 173.891 324.087C163.125 324.925 152.542 327.352 142.486 331.289C128.114 336.997 121.145 347.185 108.39 352.085Z" fill="#263238"/>
<path d="M146.188 312.716C152.908 316.076 163.298 314.272 171.309 312.032C169.772 308.166 167.612 304.577 164.916 301.408C154.214 303.415 136.887 308.065 146.188 312.716Z" fill="#263238"/>
<path d="M333.508 254.11C331.077 252.862 329.07 250.921 327.742 248.533C326.414 246.144 325.823 243.416 326.046 240.692C326.268 237.968 327.294 235.371 328.992 233.23C330.691 231.089 332.986 229.5 335.588 228.663C338.189 227.827 340.981 227.78 343.609 228.53C346.237 229.28 348.583 230.793 350.352 232.876C352.12 234.96 353.231 237.521 353.544 240.236C353.856 242.951 353.357 245.698 352.108 248.129C351.281 249.744 350.143 251.179 348.759 252.354C347.376 253.529 345.775 254.419 344.048 254.975C342.321 255.53 340.501 255.74 338.692 255.591C336.884 255.443 335.122 254.94 333.508 254.11V254.11Z" fill="#263238"/>
<path d="M346.776 234.402L353.477 243.806C353.747 241.978 353.642 240.115 353.171 238.329L346.776 234.402Z" fill="#6C63FF"/>
<path d="M332.725 229.979L348.65 252.444C349.972 251.345 351.075 250.006 351.901 248.498L338.543 228.07C336.485 228.263 334.497 228.915 332.725 229.979V229.979Z" fill="#6C63FF"/>
<path d="M339.309 255.614L332.391 245.706L335.994 255.092C337.074 255.398 338.187 255.573 339.309 255.614V255.614Z" fill="#6C63FF"/>
<path d="M344.93 254.641L329.113 233.087C328.96 233.276 328.816 233.483 328.671 233.681L340.129 255.632C341.775 255.588 343.4 255.253 344.93 254.641Z" fill="#6C63FF"/>
<path d="M375.409 187.445C360.578 161.188 333.917 165.481 310.402 169.289C302.298 170.6 294.643 171.845 287.445 171.984C263.166 172.527 252.698 149.05 252.583 148.717C252.494 148.509 252.364 148.321 252.202 148.163C252.04 148.006 251.848 147.882 251.638 147.798C251.428 147.715 251.204 147.673 250.978 147.676C250.752 147.68 250.528 147.727 250.321 147.817C250.113 147.906 249.925 148.036 249.768 148.198C249.61 148.36 249.486 148.551 249.402 148.761C249.319 148.972 249.278 149.196 249.281 149.422C249.284 149.648 249.332 149.871 249.421 150.079C249.533 150.34 260.873 175.993 287.51 175.406C294.954 175.244 303.085 173.921 310.953 172.637C334.474 168.828 358.751 164.892 372.412 189.082C375.489 194.678 377.008 200.996 376.812 207.379C376.615 213.761 374.709 219.974 371.293 225.369C365.237 234.88 355.371 239.841 344.234 238.977C333.724 238.158 323.204 236.443 313.029 234.786C296.187 232.043 278.777 229.203 260.918 230.356C230.297 232.327 211.458 250.198 189.665 270.874C185.279 275.04 180.744 279.337 175.965 283.657L173.245 286.121C159.685 298.423 145.669 311.143 128.333 315.65C114.849 319.122 99.972 314.816 91.2819 304.863C88.8775 302.163 87.0344 299.012 85.8599 295.593C84.6855 292.174 84.2032 288.555 84.4412 284.948C84.6926 281.818 85.5842 278.774 87.0606 276.003C88.537 273.232 90.5668 270.795 93.0242 268.841C101.332 262.046 117.173 257.835 131.14 257.313L130.869 253.886C116.223 254.502 99.6927 258.984 90.8502 266.209C88.0455 268.47 85.7283 271.276 84.0387 274.458C82.3492 277.639 81.3223 281.131 81.0202 284.721C80.7363 288.797 81.2697 292.889 82.5888 296.756C83.908 300.623 85.9864 304.188 88.7021 307.241C97.42 317.233 111.206 322.001 124.784 319.997C126.275 319.774 127.753 319.473 129.212 319.096C147.364 314.38 162.351 300.784 175.567 288.819L178.28 286.355C183.096 281.987 187.64 277.659 192.045 273.519C213.358 253.294 231.76 235.824 261.153 233.935C278.618 232.789 295.837 235.614 312.484 238.327C322.734 239.995 333.328 241.721 343.978 242.549C356.43 243.516 367.445 237.981 374.212 227.365C377.975 221.43 380.072 214.593 380.283 207.569C380.494 200.545 378.81 193.594 375.409 187.445V187.445Z" fill="white" stroke="#263238" stroke-width="1.19148" stroke-linecap="round" stroke-linejoin="round"/>
<path d="M131.409 252.074L126.758 252.307L127.094 259.027L131.745 258.795L131.409 252.074Z" fill="#263238"/>
<path d="M197.823 118.397C198.443 114.215 188.111 109.085 174.746 106.937C161.382 104.79 150.045 106.439 149.425 110.62C148.805 114.802 159.137 119.933 172.501 122.08C185.866 124.228 197.203 122.579 197.823 118.397Z" fill="#2F2E41"/>
<path d="M184.306 177.068C204.125 195.686 235.073 194.938 253.43 175.397C271.787 155.857 270.601 124.922 250.782 106.304C230.963 87.6858 200.015 88.4337 181.659 107.975C163.302 127.515 164.487 158.449 184.306 177.068Z" fill="#2F2E41"/>
<path d="M162.413 196.923C168.841 199.348 174.897 199.007 175.94 196.161C176.983 193.314 172.617 189.041 166.189 186.615C159.761 184.19 153.705 184.531 152.662 187.377C151.62 190.224 155.985 194.497 162.413 196.923Z" fill="#2F2E41"/>
<path d="M193.256 177.325L182.354 167.084L164.262 186.342L175.164 196.583L193.256 177.325Z" fill="#2F2E41"/>
<path d="M210.803 216.24C216.708 212.869 220.446 208.33 219.151 206.101C217.857 203.873 212.021 204.799 206.115 208.169C200.21 211.54 196.473 216.079 197.767 218.308C199.062 220.536 204.898 219.61 210.803 216.24Z" fill="#2F2E41"/>
<path d="M213.844 180.655L199.301 183.526L204.799 209.617L219.342 206.746L213.844 180.655Z" fill="#2F2E41"/>
<path d="M208.776 138.918C216.682 143.796 227.021 141.443 231.868 133.663C236.714 125.882 234.234 115.621 226.327 110.743C218.42 105.865 208.081 108.218 203.235 115.998C198.388 123.778 200.869 134.04 208.776 138.918Z" fill="white"/>
<path d="M220.704 134.78C223.719 134.095 225.582 131.131 224.865 128.16C224.148 125.188 221.123 123.334 218.108 124.019C215.093 124.704 213.23 127.668 213.947 130.639C214.664 133.611 217.689 135.465 220.704 134.78Z" fill="#3F3D56"/>
<path d="M235.023 104.391C216.387 96.7677 204.628 88.1535 211.422 71.4979C218.216 54.8424 238.832 47.5208 257.468 55.1447C276.104 62.7685 285.704 82.4507 278.909 99.1062C272.115 115.762 253.659 112.015 235.023 104.391Z" fill="#6C63FF"/>
<path d="M267.799 195.782C270.656 192.689 264.88 182.707 254.898 173.486C244.916 164.266 234.508 159.298 231.651 162.391C228.794 165.484 234.569 175.466 244.551 184.686C254.533 193.907 264.942 198.874 267.799 195.782Z" fill="#2F2E41"/>
<path d="M222.644 158.781C222.024 161.9 212.631 166.437 203.565 164.636C194.5 162.835 187.745 152.365 188.364 149.245C188.984 146.126 196.744 151.539 205.809 153.34C214.875 155.141 223.264 155.661 222.644 158.781Z" fill="white"/>
</g>
<defs>
<clipPath id="clip0">
<rect width="361" height="361" fill="white" transform="translate(20 20)"/>
</clipPath>
</defs>
</svg>
