<svg width="400" height="400" viewBox="0 0 400 400" fill="none" xmlns="http://www.w3.org/2000/svg">
<rect width="400" height="400" />
<path d="M104.556 258.38C125.027 247.776 174.007 237.644 227.422 237.644C280.836 237.644 316.509 247.776 336.979 258.38C351.608 265.958 366.999 273.235 375.046 277.568C375.046 244.453 359.56 204.529 341.003 174.509C319.958 140.466 297.675 105.845 283.129 96.2097C247.993 72.9367 230.58 59.9649 188.427 60.0001C182.546 60.0001 151.907 63.0948 137.671 66.1898C123.435 69.2848 103.009 75.7837 92.1767 81.6639C81.3447 87.5442 59.4389 111.993 51.9437 119.731C28.2869 144.151 21.6142 209.481 24.709 222.789C30.694 248.525 30.2778 268.593 55.0385 284.067C63.5052 277.769 95.1633 263.191 104.556 258.38Z" fill="#F2F2F2"/>
<path d="M71.2789 183.712C72.8828 183.712 74.1829 182.412 74.1829 180.81C74.1829 179.207 72.8828 177.908 71.2789 177.908C69.6751 177.908 68.375 179.207 68.375 180.81C68.375 182.412 69.6751 183.712 71.2789 183.712Z" fill="white"/>
<path d="M274.582 226.002C276.186 226.002 277.486 224.703 277.486 223.1C277.486 221.497 276.186 220.198 274.582 220.198C272.978 220.198 271.678 221.497 271.678 223.1C271.678 224.703 272.978 226.002 274.582 226.002Z" fill="white"/>
<path d="M94.7214 231.807H93.2692V230.356C93.2692 229.861 93.0725 229.387 92.7223 229.037C92.3722 228.687 91.8973 228.49 91.4021 228.49C90.9069 228.49 90.4321 228.687 90.0819 229.037C89.7318 229.387 89.5351 229.861 89.5351 230.356V231.807H88.0829C87.5877 231.807 87.1128 232.004 86.7627 232.354C86.4125 232.704 86.2158 233.178 86.2158 233.673C86.2158 234.168 86.4125 234.643 86.7627 234.992C87.1128 235.342 87.5877 235.539 88.0829 235.539H89.5351V236.99C89.5351 237.485 89.7318 237.959 90.0819 238.309C90.4321 238.659 90.9069 238.856 91.4021 238.856C91.8973 238.856 92.3722 238.659 92.7223 238.309C93.0725 237.959 93.2692 237.485 93.2692 236.99V235.539H94.7214C95.2165 235.539 95.6914 235.342 96.0416 234.992C96.3917 234.643 96.5884 234.168 96.5884 233.673C96.5884 233.178 96.3917 232.704 96.0416 232.354C95.6914 232.004 95.2165 231.807 94.7214 231.807Z" fill="white"/>
<path d="M308.463 196.217H307.708V195.462C307.708 195.205 307.606 194.958 307.424 194.777C307.242 194.595 306.995 194.492 306.737 194.492C306.48 194.492 306.233 194.595 306.051 194.777C305.869 194.958 305.766 195.205 305.766 195.462V196.217H305.011C304.754 196.217 304.507 196.319 304.325 196.501C304.143 196.683 304.041 196.93 304.041 197.187C304.041 197.444 304.143 197.691 304.325 197.873C304.507 198.055 304.754 198.157 305.011 198.157H305.766V198.912C305.766 199.169 305.869 199.416 306.051 199.598C306.233 199.779 306.48 199.882 306.737 199.882C306.995 199.882 307.242 199.779 307.424 199.598C307.606 199.416 307.708 199.169 307.708 198.912V198.157H308.463C308.72 198.157 308.967 198.055 309.149 197.873C309.331 197.691 309.434 197.444 309.434 197.187C309.434 196.93 309.331 196.683 309.149 196.501C308.967 196.319 308.72 196.217 308.463 196.217Z" fill="#FF6584"/>
<path d="M88.1486 146.049H87.3936V145.294C87.3936 145.167 87.3685 145.041 87.3197 144.923C87.2709 144.806 87.1994 144.699 87.1093 144.609C87.0191 144.518 86.9121 144.447 86.7943 144.398C86.6766 144.349 86.5503 144.324 86.4228 144.324C86.2954 144.324 86.1691 144.349 86.0514 144.398C85.9336 144.447 85.8266 144.518 85.7364 144.609C85.6463 144.699 85.5748 144.806 85.526 144.923C85.4772 145.041 85.4521 145.167 85.4521 145.294V146.049H84.6971C84.4396 146.049 84.1927 146.151 84.0106 146.333C83.8286 146.515 83.7263 146.762 83.7263 147.019C83.7263 147.276 83.8286 147.523 84.0106 147.705C84.1927 147.887 84.4396 147.989 84.6971 147.989H85.4521V148.744C85.4521 148.871 85.4772 148.997 85.526 149.115C85.5748 149.233 85.6463 149.339 85.7364 149.43C85.8266 149.52 85.9336 149.591 86.0514 149.64C86.1691 149.689 86.2954 149.714 86.4228 149.714C86.5503 149.714 86.6766 149.689 86.7943 149.64C86.9121 149.591 87.0191 149.52 87.1093 149.43C87.1994 149.339 87.2709 149.233 87.3197 149.115C87.3685 148.997 87.3936 148.871 87.3936 148.744V147.989H88.1486C88.4061 147.989 88.653 147.887 88.835 147.705C89.0171 147.523 89.1194 147.276 89.1194 147.019C89.1194 146.762 89.0171 146.515 88.835 146.333C88.653 146.151 88.4061 146.049 88.1486 146.049Z" fill="#6C63FF"/>
<path d="M144.161 146.049H143.406V145.294C143.406 145.037 143.304 144.79 143.121 144.609C142.939 144.427 142.693 144.324 142.435 144.324C142.178 144.324 141.931 144.427 141.749 144.609C141.567 144.79 141.464 145.037 141.464 145.294V146.049H140.709C140.452 146.049 140.205 146.151 140.023 146.333C139.841 146.515 139.739 146.762 139.739 147.019C139.739 147.276 139.841 147.523 140.023 147.705C140.205 147.887 140.452 147.989 140.709 147.989H141.464V148.744C141.464 149.001 141.567 149.248 141.749 149.43C141.931 149.611 142.178 149.714 142.435 149.714C142.693 149.714 142.939 149.611 143.121 149.43C143.304 149.248 143.406 149.001 143.406 148.744V147.989H144.161C144.418 147.989 144.665 147.887 144.847 147.705C145.029 147.523 145.132 147.276 145.132 147.019C145.132 146.762 145.029 146.515 144.847 146.333C144.665 146.151 144.418 146.049 144.161 146.049Z" fill="white"/>
<path d="M337.091 245.556H336.336V244.801C336.336 244.544 336.234 244.297 336.052 244.115C335.87 243.933 335.623 243.831 335.365 243.831C335.108 243.831 334.861 243.933 334.679 244.115C334.497 244.297 334.395 244.544 334.395 244.801V245.556H333.64C333.382 245.556 333.135 245.658 332.953 245.84C332.771 246.022 332.669 246.268 332.669 246.526C332.669 246.783 332.771 247.03 332.953 247.212C333.135 247.394 333.382 247.496 333.64 247.496H334.395V248.25C334.395 248.507 334.497 248.754 334.679 248.936C334.861 249.118 335.108 249.22 335.365 249.22C335.623 249.22 335.87 249.118 336.052 248.936C336.234 248.754 336.336 248.507 336.336 248.25V247.496H337.091C337.349 247.496 337.596 247.394 337.778 247.212C337.96 247.03 338.062 246.783 338.062 246.526C338.062 246.268 337.96 246.022 337.778 245.84C337.596 245.658 337.349 245.556 337.091 245.556Z" fill="white"/>
<path d="M249.961 164.706H249.206V163.952C249.206 163.695 249.104 163.448 248.922 163.266C248.74 163.084 248.493 162.982 248.236 162.982C247.978 162.982 247.731 163.084 247.549 163.266C247.367 163.448 247.265 163.695 247.265 163.952V164.706H246.51C246.252 164.706 246.005 164.809 245.823 164.991C245.641 165.173 245.539 165.419 245.539 165.677C245.539 165.934 245.641 166.181 245.823 166.362C246.005 166.544 246.252 166.647 246.51 166.647H247.265V167.401C247.265 167.658 247.367 167.905 247.549 168.087C247.731 168.269 247.978 168.371 248.236 168.371C248.493 168.371 248.74 168.269 248.922 168.087C249.104 167.905 249.206 167.658 249.206 167.401V166.647H249.961C250.219 166.647 250.466 166.544 250.648 166.362C250.83 166.181 250.932 165.934 250.932 165.677C250.932 165.419 250.83 165.173 250.648 164.991C250.466 164.809 250.219 164.706 249.961 164.706Z" fill="white"/>
<path d="M116.777 185.437H116.022V184.682C116.022 184.425 115.92 184.178 115.738 183.997C115.556 183.815 115.309 183.712 115.051 183.712C114.794 183.712 114.547 183.815 114.365 183.997C114.183 184.178 114.081 184.425 114.081 184.682V185.437H113.326C113.068 185.437 112.821 185.539 112.639 185.721C112.457 185.903 112.355 186.15 112.355 186.407C112.355 186.664 112.457 186.911 112.639 187.093C112.821 187.275 113.068 187.377 113.326 187.377H114.081V188.132C114.081 188.389 114.183 188.636 114.365 188.818C114.547 188.999 114.794 189.102 115.051 189.102C115.309 189.102 115.556 188.999 115.738 188.818C115.92 188.636 116.022 188.389 116.022 188.132V187.377H116.777C117.035 187.377 117.282 187.275 117.464 187.093C117.646 186.911 117.748 186.664 117.748 186.407C117.748 186.15 117.646 185.903 117.464 185.721C117.282 185.539 117.035 185.437 116.777 185.437Z" fill="white"/>
<path d="M185 332C203.225 332 218 317.225 218 299C218 280.775 203.225 266 185 266C166.775 266 152 280.775 152 299C152 317.225 166.775 332 185 332Z" fill="#2F2E41"/>
<path d="M172.345 320.437L156.298 328.477L160.783 337.437L176.83 329.398L172.345 320.437Z" fill="#2F2E41"/>
<path d="M162.899 336.528C163.851 335.084 161.502 331.855 157.653 329.317C153.805 326.778 149.913 325.89 148.962 327.334C148.01 328.778 150.359 332.007 154.207 334.546C158.056 337.084 161.947 337.972 162.899 336.528Z" fill="#2F2E41"/>
<path d="M197.42 320.437L192.935 329.398L208.981 337.437L213.467 328.477L197.42 320.437Z" fill="#2F2E41"/>
<path d="M215.557 334.545C219.406 332.007 221.755 328.778 220.803 327.334C219.851 325.89 215.96 326.778 212.111 329.316C208.263 331.855 205.914 335.084 206.866 336.528C207.817 337.972 211.709 337.084 215.557 334.545Z" fill="#2F2E41"/>
<path d="M182 302C188.627 302 194 296.851 194 290.5C194 284.149 188.627 279 182 279C175.373 279 170 284.149 170 290.5C170 296.851 175.373 302 182 302Z" fill="white"/>
<path d="M175.936 290.07C179.682 286.809 183.917 291.649 181.064 295.93C177.318 299.191 173.083 294.351 175.936 290.07Z" fill="#3F3D56"/>
<path d="M209.983 262.276C210.471 249.985 200.129 239.574 186.884 239.023C173.638 238.472 162.506 247.989 162.018 260.281C161.531 272.572 170.738 275.365 183.983 275.916C197.228 276.467 209.496 274.568 209.983 262.276Z" fill="#CCCCCC"/>
<path d="M229.897 316.038C232.065 314.175 229.016 307.062 223.085 300.151C217.155 293.239 210.589 289.147 208.421 291.009C206.252 292.872 209.301 299.985 215.232 306.896C221.162 313.808 227.728 317.9 229.897 316.038Z" fill="#2F2E41"/>
<path d="M154.625 306.896C160.556 299.985 163.605 292.872 161.436 291.009C159.268 289.147 152.702 293.239 146.772 300.151C140.841 307.062 137.792 314.175 139.96 316.038C142.129 317.901 148.695 313.808 154.625 306.896Z" fill="#2F2E41"/>
<path d="M193.886 311.984C194.051 312.972 194.037 313.985 193.843 314.967C193.65 315.948 193.281 316.878 192.757 317.704C192.234 318.53 191.566 319.235 190.793 319.78C190.02 320.324 189.155 320.697 188.25 320.876C187.344 321.056 186.415 321.04 185.516 320.828C184.616 320.615 183.764 320.212 183.007 319.64C182.25 319.069 181.605 318.34 181.106 317.496C180.608 316.652 180.267 315.709 180.103 314.721L180.101 314.706C179.411 310.554 182.355 309.084 186.161 308.333C189.968 307.581 193.197 307.832 193.886 311.984Z" fill="white"/>
<path d="M221.118 203.502C230.361 202.18 237.518 198.756 237.104 195.855C236.69 192.954 228.861 191.675 219.618 192.998C210.375 194.321 203.218 197.745 203.632 200.646C204.047 203.546 211.875 204.825 221.118 203.502Z" fill="#2F2E41"/>
<path d="M217.764 208.43C220.754 189.996 208.241 172.627 189.815 169.635C171.39 166.644 154.029 179.163 151.039 197.597C148.049 216.031 160.562 233.4 178.987 236.391C197.413 239.383 214.774 226.864 217.764 208.43Z" fill="#2F2E41"/>
<path d="M180 229H169V247H180V229Z" fill="#2F2E41"/>
<path d="M200 229H189V247H200V229Z" fill="#2F2E41"/>
<path d="M178 251C182.971 251 187 249.657 187 248C187 246.343 182.971 245 178 245C173.029 245 169 246.343 169 248C169 249.657 173.029 251 178 251Z" fill="#2F2E41"/>
<path d="M197.5 251C202.194 251 206 249.657 206 248C206 246.343 202.194 245 197.5 245C192.806 245 189 246.343 189 248C189 249.657 192.806 251 197.5 251Z" fill="#2F2E41"/>
<path d="M198.395 217.141C204.772 216.953 209.79 211.629 209.602 205.249C209.415 198.869 204.093 193.849 197.716 194.037C191.34 194.224 186.322 199.548 186.509 205.928C186.697 212.308 192.018 217.328 198.395 217.141Z" fill="white"/>
<path d="M200.5 211C202.433 211 204 209.209 204 207C204 204.791 202.433 203 200.5 203C198.567 203 197 204.791 197 207C197 209.209 198.567 211 200.5 211Z" fill="#3F3D56"/>
<path d="M161.501 179.632C158.764 167.678 167.515 155.599 181.048 152.653C194.58 149.707 207.77 157.009 210.508 168.963C213.245 180.916 204.277 185.325 190.744 188.271C177.211 191.218 164.239 191.586 161.501 179.632Z" fill="#6C63FF"/>
<path d="M159.349 205.502C156.612 204.452 151.681 210.665 148.334 219.378C144.987 228.092 144.493 236.006 147.229 237.056C149.966 238.106 154.898 231.894 158.244 223.18C161.591 214.467 162.086 206.552 159.349 205.502Z" fill="#2F2E41"/>
<path d="M173.817 333.123L149.193 337.949C148.794 338.028 148.382 338.015 147.989 337.911C147.596 337.807 147.232 337.613 146.925 337.347C146.611 337.076 146.363 336.738 146.199 336.357C146.035 335.976 145.96 335.562 145.98 335.147C146.4 325.011 144.437 314.917 140.25 305.683C140.077 305.307 139.992 304.895 140.001 304.48C140.01 304.065 140.113 303.658 140.302 303.289C140.487 302.925 140.752 302.609 141.078 302.364C141.403 302.119 141.779 301.952 142.178 301.875L166.802 297.049C167.432 296.927 168.084 297.033 168.643 297.349C169.202 297.664 169.631 298.169 169.854 298.772C173.496 308.93 175.568 319.588 175.999 330.375C176.018 331.018 175.809 331.648 175.41 332.151C175.01 332.654 174.446 332.999 173.817 333.123Z" fill="#6C63FF"/>
<path d="M252.344 172.94C253.041 170.187 252.924 167.291 252.007 164.602C251.09 161.914 249.411 159.55 247.176 157.798C244.941 156.045 242.246 154.98 239.419 154.732C236.591 154.484 233.753 155.064 231.25 156.401C228.747 157.737 226.687 159.774 225.32 162.262C223.953 164.75 223.339 167.582 223.552 170.414C223.765 173.246 224.796 175.956 226.52 178.214C228.244 180.472 230.585 182.18 233.26 183.131L227.484 205.918C227.396 206.265 227.45 206.633 227.633 206.941C227.815 207.248 228.113 207.471 228.459 207.559C228.806 207.648 229.173 207.595 229.481 207.413C229.788 207.231 230.011 206.933 230.099 206.587L230.1 206.584L235.876 183.797C239.481 184.368 243.168 183.57 246.214 181.562C249.26 179.554 251.446 176.479 252.344 172.94ZM235.558 179.804C233.455 179.268 231.558 178.121 230.106 176.507C228.653 174.893 227.712 172.885 227.4 170.736C227.088 168.588 227.419 166.395 228.352 164.436C229.286 162.477 230.779 160.84 232.643 159.731C234.507 158.622 236.658 158.091 238.825 158.205C240.992 158.32 243.076 159.075 244.815 160.375C246.554 161.674 247.869 163.46 248.593 165.507C249.318 167.554 249.421 169.769 248.887 171.873C248.172 174.694 246.366 177.115 243.867 178.602C241.367 180.089 238.378 180.521 235.558 179.804Z" fill="#3F3D56"/>
<path d="M179.04 220.558C178.732 222.253 182.552 226.405 187.467 227.298C192.382 228.191 197.857 224.256 198.165 222.561C198.473 220.866 193.497 222.052 188.582 221.159C183.668 220.266 179.348 218.863 179.04 220.558Z" fill="white"/>
</svg>
