<svg width="400" height="400" viewBox="0 0 400 400" fill="none" xmlns="http://www.w3.org/2000/svg">
<rect width="400" height="400" />
<path d="M330.163 146C308.481 129.882 274.521 114.638 236.992 104.178C202.821 94.6542 169.492 90.056 143.137 91.2302L143 88.1825C169.669 86.9949 203.343 91.6317 237.82 101.241C275.699 111.798 310.027 127.222 332 143.557L330.163 146Z" fill="#3F3D56"/>
<path d="M327 158.5C327.019 172.866 324.022 187.074 318.205 200.197C317.719 201.295 317.213 202.384 316.687 203.462C306.569 224.288 289.727 241.054 268.909 251.025C248.09 260.997 224.524 263.586 202.054 258.369C179.583 253.153 159.534 240.44 145.178 222.303C130.821 204.166 123.003 181.675 123 158.5C123 156.128 123.08 153.774 123.241 151.439C123.318 150.251 123.416 149.07 123.537 147.897C126.242 121.772 138.824 97.6872 158.686 80.6128C178.548 63.5384 204.175 54.7774 230.278 56.1377C256.38 57.4979 280.968 68.8757 298.966 87.9231C316.964 106.97 326.999 132.234 327 158.5H327Z" fill="#F2F2F2"/>
<path opacity="0.1" d="M319 199.875C318.512 200.965 318.003 202.045 317.474 203.114C314.478 203.437 311.324 203.671 308.012 203.817C305.27 203.939 302.449 204 299.566 204C274.385 204 244.08 199.391 213.12 190.789C178.618 181.201 147.404 167.789 125.226 153.023C124.471 152.52 123.729 152.017 123 151.513C123.077 150.335 123.176 149.164 123.298 148C124.474 148.831 125.686 149.663 126.936 150.496C148.854 165.086 179.754 178.355 213.949 187.858C244.638 196.387 274.658 200.956 299.551 200.956C302.397 200.956 305.171 200.896 307.874 200.777C311.81 200.6 315.519 200.3 319 199.875Z" fill="black"/>
<path d="M299.556 202C274.411 202.001 244.147 197.356 213.234 188.686C178.781 179.025 147.61 165.509 125.463 150.629C102.853 135.439 92.2511 120.471 95.6093 108.482C98.9674 96.4941 115.8 89.2199 143.007 88L143.144 91.0645C130.439 91.6341 120.085 93.5235 112.369 96.6803C104.672 99.8292 100.027 104.079 98.5612 109.31C97.0957 114.542 98.8573 120.588 103.797 127.281C108.749 133.99 116.613 140.989 127.172 148.082C149.056 162.785 179.914 176.157 214.061 185.733C244.707 194.327 274.682 198.933 299.541 198.933C302.381 198.933 305.151 198.873 307.85 198.752C320.556 198.182 330.91 196.293 338.625 193.136C346.322 189.987 350.968 185.738 352.433 180.506C355.065 171.112 347.112 158.906 330.04 146.136L331.876 143.679C340.661 150.251 347.164 156.728 351.205 162.931C355.537 169.582 356.943 175.774 355.385 181.334C352.027 193.322 335.194 200.596 307.988 201.816C305.25 201.939 302.435 202 299.556 202Z" fill="#3F3D56"/>
<path d="M228 38C228.552 38 229 37.5523 229 37C229 36.4477 228.552 36 228 36C227.448 36 227 36.4477 227 37C227 37.5523 227.448 38 228 38Z" fill="#F2F2F2"/>
<path d="M72 89C73.1046 89 74 88.1046 74 87C74 85.8954 73.1046 85 72 85C70.8954 85 70 85.8954 70 87C70 88.1046 70.8954 89 72 89Z" fill="#CCCCCC"/>
<path d="M68 170C70.2091 170 72 168.209 72 166C72 163.791 70.2091 162 68 162C65.7909 162 64 163.791 64 166C64 168.209 65.7909 170 68 170Z" fill="#CCCCCC"/>
<path d="M307.5 46C308.881 46 310 44.8807 310 43.5C310 42.1193 308.881 41 307.5 41C306.119 41 305 42.1193 305 43.5C305 44.8807 306.119 46 307.5 46Z" fill="#CCCCCC"/>
<path d="M368 87C369.105 87 370 86.1046 370 85C370 83.8954 369.105 83 368 83C366.895 83 366 83.8954 366 85C366 86.1046 366.895 87 368 87Z" fill="#CCCCCC"/>
<path d="M143 64C144.657 64 146 62.6569 146 61C146 59.3431 144.657 58 143 58C141.343 58 140 59.3431 140 61C140 62.6569 141.343 64 143 64Z" fill="#CCCCCC"/>
<path d="M361 147C362.105 147 363 146.105 363 145C363 143.895 362.105 143 361 143C359.895 143 359 143.895 359 145C359 146.105 359.895 147 361 147Z" fill="#CCCCCC"/>
<path d="M35.5 117C36.8807 117 38 115.881 38 114.5C38 113.119 36.8807 112 35.5 112C34.1193 112 33 113.119 33 114.5C33 115.881 34.1193 117 35.5 117Z" fill="#CCCCCC"/>
<path d="M393.2 119.004L389.147 116.201L391.948 112.153L389.774 110.649L386.973 114.697L382.919 111.892L381.415 114.066L385.469 116.87L382.669 120.918L384.843 122.422L387.644 118.374L391.696 121.178L393.2 119.004Z" fill="#CCCCCC"/>
<path d="M32.5847 188.017L28.5326 185.213L31.333 181.165L29.1589 179.661L26.3584 183.709L22.3044 180.904L20.8005 183.078L24.8545 185.883L22.054 189.931L24.2282 191.435L27.0287 187.387L31.0808 190.19L32.5847 188.017Z" fill="#CCCCCC"/>
<path d="M311 269.153H307.845V266H306.154V269.153H303V270.846H306.154V274H307.845V270.846H311V269.153Z" fill="#CCCCCC"/>
<path d="M382 253.365H379.635V251H378.365V253.365H376V254.635H378.365V257H379.635V254.635H382V253.365Z" fill="#CCCCCC"/>
<path opacity="0.1" d="M160.5 150C165.194 150 169 146.194 169 141.5C169 136.806 165.194 133 160.5 133C155.806 133 152 136.806 152 141.5C152 146.194 155.806 150 160.5 150Z" fill="black"/>
<path opacity="0.1" d="M255.5 236C260.194 236 264 232.194 264 227.5C264 222.806 260.194 219 255.5 219C250.806 219 247 222.806 247 227.5C247 232.194 250.806 236 255.5 236Z" fill="black"/>
<path opacity="0.1" d="M164.5 211C169.194 211 173 206.971 173 202C173 197.029 169.194 193 164.5 193C159.806 193 156 197.029 156 202C156 206.971 159.806 211 164.5 211Z" fill="black"/>
<path opacity="0.1" d="M254 116C258.971 116 263 112.194 263 107.5C263 102.806 258.971 99 254 99C249.029 99 245 102.806 245 107.5C245 112.194 249.029 116 254 116Z" fill="black"/>
<path opacity="0.1" d="M301.5 176C306.194 176 310 171.971 310 167C310 162.029 306.194 158 301.5 158C296.806 158 293 162.029 293 167C293 171.971 296.806 176 301.5 176Z" fill="black"/>
<path d="M272.5 84C278.851 84 284 78.8513 284 72.5C284 66.1487 278.851 61 272.5 61C266.149 61 261 66.1487 261 72.5C261 78.8513 266.149 84 272.5 84Z" fill="white"/>
<path d="M160.5 115C166.851 115 172 109.851 172 103.5C172 97.1487 166.851 92 160.5 92C154.149 92 149 97.1487 149 103.5C149 109.851 154.149 115 160.5 115Z" fill="white"/>
<path d="M302.5 141C308.851 141 314 135.851 314 129.5C314 123.149 308.851 118 302.5 118C296.149 118 291 123.149 291 129.5C291 135.851 296.149 141 302.5 141Z" fill="white"/>
<path d="M371.604 277.508C373.808 275.665 370.83 268.488 364.954 261.477C359.078 254.466 352.528 250.277 350.325 252.119C348.122 253.962 351.099 261.139 356.976 268.15C362.852 275.161 369.401 279.351 371.604 277.508Z" fill="#2F2E41"/>
<path d="M326 292C344.225 292 359 277.225 359 259C359 240.775 344.225 226 326 226C307.775 226 293 240.775 293 259C293 277.225 307.775 292 326 292Z" fill="#2F2E41"/>
<path d="M340 285H330V303H340V285Z" fill="#2F2E41"/>
<path d="M320 285H310V303H320V285Z" fill="#2F2E41"/>
<path d="M331.5 306C336.194 306 340 304.657 340 303C340 301.343 336.194 300 331.5 300C326.806 300 323 301.343 323 303C323 304.657 326.806 306 331.5 306Z" fill="#2F2E41"/>
<path d="M311.5 306C316.194 306 320 304.657 320 303C320 301.343 316.194 300 311.5 300C306.806 300 303 301.343 303 303C303 304.657 306.806 306 311.5 306Z" fill="#2F2E41"/>
<path d="M315.472 217.537C318.449 205.568 331.59 198.524 344.824 201.805C358.058 205.085 366.373 217.447 363.396 229.416C360.419 241.385 350.541 241.424 337.307 238.143C324.074 234.863 312.494 229.506 315.472 217.537Z" fill="#DF8577"/>
<path d="M303.349 250.795C304.58 248.201 298.874 242.922 290.604 239.004C282.334 235.085 274.631 234.011 273.4 236.605C272.168 239.199 277.875 244.478 286.145 248.396C294.415 252.314 302.118 253.388 303.349 250.795Z" fill="#2F2E41"/>
<path d="M321 263C327.075 263 332 258.075 332 252C332 245.925 327.075 241 321 241C314.925 241 310 245.925 310 252C310 258.075 314.925 263 321 263Z" fill="white"/>
<path d="M316.5 252C318.433 252 320 250.209 320 248C320 245.791 318.433 244 316.5 244C314.567 244 313 245.791 313 248C313 250.209 314.567 252 316.5 252Z" fill="#3F3D56"/>
<path d="M327.879 274.986C328.055 275.974 328.039 276.987 327.831 277.968C327.623 278.95 327.227 279.88 326.666 280.705C326.105 281.531 325.391 282.236 324.562 282.78C323.734 283.324 322.808 283.697 321.839 283.876C320.869 284.056 319.874 284.04 318.911 283.828C317.947 283.616 317.034 283.213 316.224 282.642C315.413 282.07 314.721 281.342 314.187 280.498C313.653 279.655 313.287 278.712 313.11 277.724L313.108 277.71C312.369 273.555 315.523 272.085 319.602 271.333C323.681 270.581 327.14 270.831 327.879 274.986Z" fill="white"/>
<path d="M257.386 188.448C254.019 185.559 249.898 183.727 245.526 183.176C241.153 182.624 236.717 183.377 232.758 185.342C228.798 187.308 225.486 190.401 223.224 194.245C220.962 198.09 219.848 202.52 220.017 206.997C220.186 211.474 221.631 215.804 224.176 219.461C226.721 223.118 230.257 225.943 234.353 227.594C238.449 229.245 242.929 229.65 247.247 228.759C251.565 227.869 255.535 225.721 258.675 222.578L286.555 246.498C286.979 246.862 287.528 247.04 288.081 246.992C288.634 246.945 289.147 246.676 289.505 246.245C289.863 245.814 290.039 245.256 289.993 244.694C289.947 244.131 289.683 243.61 289.259 243.245L289.256 243.243L261.377 219.323C264.615 214.597 266.001 208.811 265.263 203.1C264.525 197.388 261.716 192.163 257.386 188.448ZM255.589 217.02C253.417 219.637 250.531 221.541 247.295 222.49C244.059 223.439 240.619 223.391 237.409 222.353C234.2 221.314 231.366 219.331 229.265 216.654C227.164 213.978 225.891 210.728 225.607 207.315C225.323 203.903 226.04 200.482 227.668 197.484C229.296 194.486 231.762 192.047 234.753 190.474C237.745 188.901 241.128 188.265 244.475 188.647C247.822 189.03 250.982 190.412 253.556 192.621C257.008 195.582 259.161 199.816 259.542 204.392C259.924 208.968 258.502 213.51 255.589 217.02Z" fill="#3F3D56"/>
<path opacity="0.3" d="M231.127 218.86C227.744 216.107 225.559 212.228 225.004 207.993C224.45 203.758 225.567 199.477 228.135 196C227.798 196.327 227.472 196.67 227.157 197.029C225.664 198.735 224.533 200.709 223.831 202.837C223.128 204.965 222.867 207.205 223.063 209.431C223.258 211.656 223.907 213.822 224.97 215.806C226.034 217.789 227.492 219.551 229.262 220.992C231.032 222.432 233.079 223.521 235.286 224.199C237.493 224.876 239.816 225.128 242.124 224.939C244.431 224.751 246.678 224.126 248.735 223.1C250.792 222.074 252.619 220.668 254.113 218.961C254.427 218.603 254.723 218.235 255 217.859C251.877 220.884 247.689 222.667 243.266 222.852C238.844 223.038 234.511 221.613 231.127 218.86Z" fill="black"/>
<path d="M112.456 235.915C115.724 227.374 116.198 219.619 113.513 218.594C110.829 217.57 106.004 223.663 102.736 232.204C99.4682 240.745 98.9949 248.5 101.679 249.525C104.363 250.549 109.188 244.456 112.456 235.915Z" fill="#2F2E41"/>
<path d="M77 292C95.2254 292 110 277.225 110 259C110 240.775 95.2254 226 77 226C58.7746 226 44 240.775 44 259C44 277.225 58.7746 292 77 292Z" fill="#2F2E41"/>
<path d="M72 285H62V303H72V285Z" fill="#2F2E41"/>
<path d="M92 285H82V303H92V285Z" fill="#2F2E41"/>
<path d="M70.5 306C75.1944 306 79 304.657 79 303C79 301.343 75.1944 300 70.5 300C65.8056 300 62 301.343 62 303C62 304.657 65.8056 306 70.5 306Z" fill="#2F2E41"/>
<path d="M90.5 306C95.1944 306 99 304.657 99 303C99 301.343 95.1944 300 90.5 300C85.8056 300 82 301.343 82 303C82 304.657 85.8056 306 90.5 306Z" fill="#2F2E41"/>
<path d="M77.5 262C83.8513 262 89 256.851 89 250.5C89 244.149 83.8513 239 77.5 239C71.1487 239 66 244.149 66 250.5C66 256.851 71.1487 262 77.5 262Z" fill="white"/>
<path d="M78 254C80.2091 254 82 252.433 82 250.5C82 248.567 80.2091 247 78 247C75.7909 247 74 248.567 74 250.5C74 252.433 75.7909 254 78 254Z" fill="#3F3D56"/>
<path d="M44.4912 228.632C41.8083 216.678 50.3845 204.599 63.6466 201.653C76.9087 198.707 89.8347 206.009 92.5176 217.963C95.2005 229.916 86.4112 234.325 73.1491 237.271C59.887 240.218 47.1741 240.586 44.4912 228.632Z" fill="#DF8577"/>
<path d="M54.5984 250.795C55.8298 248.201 50.1237 242.922 41.8534 239.004C33.5831 235.085 25.8805 234.012 24.6492 236.605C23.4178 239.199 29.1239 244.478 37.3942 248.396C45.6645 252.314 53.3671 253.388 54.5984 250.795Z" fill="#2F2E41"/>
<path d="M61 271.119C61 274.44 69.2165 281 78.334 281C87.4514 281 96 271.648 96 268.326C96 265.004 87.4514 268.97 78.334 268.97C69.2166 268.97 61 267.797 61 271.119Z" fill="white"/>
<path d="M184.5 352C203.002 352 218 337.225 218 319C218 300.775 203.002 286 184.5 286C165.998 286 151 300.775 151 319C151 337.225 165.998 352 184.5 352Z" fill="#2F2E41"/>
<path d="M179 345H169V363H179V345Z" fill="#2F2E41"/>
<path d="M200 345H190V363H200V345Z" fill="#2F2E41"/>
<path d="M177.5 366C182.194 366 186 364.657 186 363C186 361.343 182.194 360 177.5 360C172.806 360 169 361.343 169 363C169 364.657 172.806 366 177.5 366Z" fill="#2F2E41"/>
<path d="M198 366C202.418 366 206 364.657 206 363C206 361.343 202.418 360 198 360C193.582 360 190 361.343 190 363C190 364.657 193.582 366 198 366Z" fill="#2F2E41"/>
<path d="M152.491 288.632C149.808 276.678 158.384 264.599 171.647 261.653C184.909 258.707 197.835 266.009 200.518 277.963C203.2 289.917 194.411 294.325 181.149 297.271C167.887 300.218 155.174 300.586 152.491 288.632Z" fill="#3F3D56"/>
<path d="M184.54 313.234C184.54 313.234 186.977 302.53 182.347 303.016C177.717 303.503 171.381 303.746 169.675 303.746C167.97 303.746 158.222 302.53 156.76 308.855C155.298 315.18 153.349 322.965 157.491 327.83C157.491 327.83 158.953 349.238 164.558 350.698C170.163 352.157 185.027 353.86 190.388 346.805C191.958 344.707 193.054 342.294 193.601 339.732C194.148 337.17 194.132 334.521 193.556 331.966H191.12L184.54 313.234Z" fill="#DF8577"/>
<path opacity="0.1" d="M160 329C160 329 164.25 331.222 173 329.833V334L160 332.889V329Z" fill="black"/>
<path d="M191.089 341L188.411 339.568L200.32 316.758C200.767 315.902 200.991 314.944 200.97 313.976C200.95 313.007 200.686 312.06 200.203 311.224C199.72 310.388 199.035 309.69 198.211 309.197C197.388 308.704 196.454 308.431 195.497 308.405L183 308.064L183.081 305L195.579 305.34C197.05 305.381 198.487 305.8 199.754 306.559C201.02 307.318 202.075 308.391 202.818 309.678C203.56 310.964 203.967 312.421 203.998 313.91C204.029 315.4 203.685 316.873 202.997 318.19L191.089 341Z" fill="#DF8577"/>
<path d="M161.911 341L150.003 318.19C149.315 316.873 148.971 315.4 149.002 313.91C149.033 312.421 149.44 310.964 150.182 309.678C150.925 308.391 151.979 307.318 153.246 306.559C154.513 305.8 155.95 305.381 157.421 305.34L169.919 305L170 308.064L157.503 308.405C156.546 308.431 155.612 308.704 154.789 309.197C153.965 309.69 153.28 310.388 152.797 311.224C152.314 312.06 152.05 313.007 152.03 313.976C152.009 314.944 152.233 315.902 152.68 316.758L164.589 339.568L161.911 341Z" fill="#DF8577"/>
<path d="M226.997 327.531C228.488 324.716 222.419 318.588 213.442 313.844C204.464 309.1 195.978 307.537 194.488 310.352C192.997 313.167 199.066 319.295 208.043 324.039C217.02 328.783 225.506 330.346 226.997 327.531Z" fill="#2F2E41"/>
<g filter="url(#filter0_di)">
<path d="M245.507 159.647L213.478 141.133C213.328 141.047 213.158 141.001 212.985 141.001C212.812 141.001 212.642 141.047 212.493 141.133C212.343 141.22 212.218 141.344 212.132 141.494C212.046 141.644 212 141.814 212 141.987V179.014C212 179.187 212.046 179.357 212.132 179.507C212.218 179.657 212.343 179.781 212.493 179.868C212.642 179.954 212.812 180 212.985 180C213.158 180 213.328 179.954 213.478 179.868L245.507 161.354C245.657 161.268 245.782 161.143 245.868 160.993C245.954 160.843 246 160.673 246 160.5C246 160.327 245.954 160.157 245.868 160.007C245.782 159.857 245.657 159.732 245.507 159.646L213.478 141.132C213.328 141.046 213.158 141 212.985 141C212.812 141 212.642 141.046 212.493 141.132C212.343 141.219 212.218 141.343 212.132 141.493C212.046 141.643 212 141.813 212 141.986V179.014C212 179.187 212.046 179.357 212.132 179.507C212.218 179.657 212.343 179.781 212.493 179.868C212.642 179.954 212.812 180 212.985 180C213.158 180 213.328 179.954 213.478 179.868L245.507 161.354C245.657 161.268 245.782 161.143 245.868 160.993C245.954 160.843 246 160.673 246 160.5C246 160.327 245.954 160.157 245.868 160.007C245.782 159.857 245.657 159.732 245.507 159.646V159.647Z" fill="#DF8577"/>
</g>
<path d="M141.678 180.044L140.834 180.877L140.002 180.034C139.718 179.747 139.331 179.584 138.927 179.581C138.523 179.579 138.134 179.737 137.846 180.021C137.559 180.305 137.396 180.692 137.393 181.096C137.39 181.5 137.548 181.889 137.832 182.177L138.665 183.02L137.821 183.853C137.533 184.137 137.37 184.524 137.367 184.928C137.365 185.332 137.523 185.721 137.806 186.008C138.09 186.296 138.477 186.459 138.881 186.461C139.285 186.463 139.674 186.305 139.962 186.021L140.806 185.188L141.638 186.031C141.922 186.319 142.309 186.481 142.713 186.484C143.117 186.486 143.506 186.328 143.794 186.044C144.081 185.76 144.244 185.373 144.247 184.969C144.25 184.565 144.092 184.176 143.808 183.889L142.975 183.045L143.819 182.212C144.107 181.928 144.27 181.541 144.273 181.137C144.275 180.733 144.117 180.344 143.833 180.057C143.55 179.769 143.163 179.606 142.759 179.604C142.355 179.602 141.966 179.76 141.678 180.044Z" fill="#6C63FF"/>
<path d="M63.5646 61.3845L62.1416 62.7896L60.7374 61.3676C60.2586 60.8827 59.6066 60.608 58.9249 60.604C58.2432 60.5999 57.5877 60.8668 57.1024 61.346C56.6172 61.8251 56.3421 62.4772 56.3375 63.1589C56.333 63.8406 56.5994 64.496 57.0782 64.9809L58.4824 66.4029L57.0594 67.808C56.5742 68.2872 56.299 68.9394 56.2944 69.621C56.2899 70.3027 56.5563 70.9581 57.0351 71.443C57.514 71.9279 58.1659 72.2026 58.8476 72.2066C59.5293 72.2107 60.1849 71.9438 60.6701 71.4646L62.0931 70.0595L63.4973 71.4815C63.9761 71.9664 64.6281 72.2411 65.3098 72.2451C65.9914 72.2492 66.647 71.9823 67.1322 71.5031C67.6175 71.024 67.8926 70.3719 67.8971 69.6902C67.9017 69.0085 67.6353 68.3531 67.1565 67.8682L65.7523 66.4462L67.1753 65.0411C67.6605 64.5619 67.9357 63.9097 67.9402 63.2281C67.9448 62.5464 67.6783 61.891 67.1995 61.4061C66.7207 60.9212 66.0688 60.6465 65.3871 60.6425C64.7054 60.6384 64.0498 60.9053 63.5646 61.3845Z" fill="#6C63FF" fill-opacity="0.7"/>
<path d="M374.276 140.679L373.013 141.926L371.768 140.664C371.343 140.234 370.765 139.991 370.16 139.987C369.555 139.983 368.974 140.22 368.543 140.645C368.113 141.07 367.869 141.649 367.865 142.253C367.861 142.858 368.097 143.44 368.522 143.87L369.767 145.131L368.505 146.378C368.075 146.803 367.83 147.381 367.826 147.986C367.822 148.591 368.059 149.172 368.484 149.602C368.908 150.032 369.487 150.276 370.091 150.28C370.696 150.283 371.278 150.047 371.708 149.621L372.97 148.375L374.216 149.636C374.641 150.067 375.219 150.31 375.824 150.314C376.429 150.317 377.01 150.081 377.441 149.656C377.871 149.231 378.115 148.652 378.119 148.047C378.123 147.443 377.887 146.861 377.462 146.431L376.217 145.17L377.479 143.923C377.909 143.498 378.153 142.919 378.158 142.315C378.162 141.71 377.925 141.129 377.5 140.699C377.076 140.268 376.497 140.025 375.893 140.021C375.288 140.017 374.706 140.254 374.276 140.679Z" fill="#6C63FF" fill-opacity="0.7"/>
<defs>
<filter id="filter0_di" x="212" y="139" width="50" height="47" filterUnits="userSpaceOnUse" color-interpolation-filters="sRGB">
<feFlood flood-opacity="0" result="BackgroundImageFix"/>
<feColorMatrix in="SourceAlpha" type="matrix" values="0 0 0 0 0 0 0 0 0 0 0 0 0 0 0 0 0 0 127 0"/>
<feOffset dx="12" dy="2"/>
<feGaussianBlur stdDeviation="2"/>
<feColorMatrix type="matrix" values="0 0 0 0 1 0 0 0 0 1 0 0 0 0 1 0 0 0 0.25 0"/>
<feBlend mode="normal" in2="BackgroundImageFix" result="effect1_dropShadow"/>
<feBlend mode="normal" in="SourceGraphic" in2="effect1_dropShadow" result="shape"/>
<feColorMatrix in="SourceAlpha" type="matrix" values="0 0 0 0 0 0 0 0 0 0 0 0 0 0 0 0 0 0 127 0" result="hardAlpha"/>
<feOffset dx="3" dy="6"/>
<feGaussianBlur stdDeviation="0.5"/>
<feComposite in2="hardAlpha" operator="arithmetic" k2="-1" k3="1"/>
<feColorMatrix type="matrix" values="0 0 0 0 0 0 0 0 0 0 0 0 0 0 0 0 0 0 0.16 0"/>
<feBlend mode="normal" in2="shape" result="effect2_innerShadow"/>
</filter>
</defs>
</svg>
