<svg width="419" height="379" viewBox="0 0 419 379" fill="none" xmlns="http://www.w3.org/2000/svg">
<rect width="419" height="379" />
<path d="M340.723 152.48C318.417 135.822 283.481 120.068 244.872 109.258C209.719 99.4153 175.431 94.6631 148.318 95.8767L148.177 92.727C175.613 91.4996 210.256 96.2916 245.724 106.222C284.693 117.133 320.008 133.073 342.613 149.955L340.723 152.48Z" fill="#3F3D56"/>
<path d="M338.408 165.311C338.428 180.07 335.33 194.667 329.318 208.149C328.816 209.278 328.293 210.396 327.749 211.503C317.293 232.899 299.887 250.124 278.372 260.368C256.857 270.613 232.502 273.272 209.279 267.913C186.056 262.554 165.336 249.493 150.499 230.86C135.662 212.227 127.582 189.121 127.579 165.311C127.579 162.874 127.662 160.456 127.828 158.057C127.907 156.837 128.009 155.624 128.135 154.418C130.93 127.579 143.933 102.835 164.46 85.2933C184.986 67.7517 211.471 58.751 238.448 60.1485C265.424 61.546 290.835 73.2351 309.435 92.8036C328.035 112.372 338.406 138.327 338.408 165.311H338.408Z" fill="#F2F2F2"/>
<path opacity="0.1" d="M329.318 208.149C328.816 209.278 328.293 210.396 327.75 211.503C324.669 211.838 321.427 212.08 318.022 212.232C315.204 212.358 312.303 212.421 309.34 212.421C283.453 212.421 252.299 207.648 220.473 198.738C185.005 188.806 152.916 174.915 130.117 159.621C129.34 159.1 128.577 158.579 127.828 158.057C127.907 156.837 128.009 155.624 128.135 154.419C129.343 155.279 130.59 156.141 131.875 157.004C154.406 172.115 186.172 185.859 221.325 195.702C252.874 204.536 283.734 209.268 309.324 209.268C312.25 209.268 315.102 209.206 317.88 209.082C321.927 208.899 325.739 208.588 329.318 208.149Z" fill="black"/>
<path d="M309.34 209.899C283.455 209.9 252.299 205.126 220.474 196.215C185.006 186.284 152.916 172.393 130.116 157.099C106.84 141.486 95.9257 126.101 99.3829 113.779C102.84 101.457 120.169 93.9808 148.177 92.7269L148.318 95.8767C135.239 96.4621 124.58 98.4042 116.637 101.649C108.713 104.885 103.931 109.253 102.422 114.63C100.913 120.007 102.727 126.222 107.812 133.101C112.91 139.997 121.006 147.19 131.875 154.481C154.404 169.593 186.172 183.337 221.326 193.179C252.875 202.013 283.733 206.746 309.325 206.747C312.249 206.747 315.1 206.685 317.879 206.561C330.959 205.975 341.618 204.033 349.561 200.789C357.485 197.552 362.267 193.185 363.776 187.807C366.485 178.152 358.298 165.606 340.723 152.48L342.613 149.955C351.657 156.71 358.352 163.367 362.512 169.743C366.971 176.579 368.419 182.943 366.815 188.658C363.358 200.98 346.029 208.456 318.021 209.71C315.202 209.837 312.304 209.899 309.34 209.899Z" fill="#3F3D56"/>
<path d="M235.782 41.0155C236.449 41.0155 236.99 40.4752 236.99 39.8088C236.99 39.1423 236.449 38.6021 235.782 38.6021C235.115 38.6021 234.574 39.1423 234.574 39.8088C234.574 40.4752 235.115 41.0155 235.782 41.0155Z" fill="#F2F2F2"/>
<path d="M75.528 93.3774C76.6757 93.3774 77.606 92.448 77.606 91.3015C77.606 90.155 76.6757 89.2256 75.528 89.2256C74.3803 89.2256 73.4499 90.155 73.4499 91.3015C73.4499 92.448 74.3803 93.3774 75.528 93.3774Z" fill="#CCCCCC"/>
<path d="M71.0988 176.652C73.366 176.652 75.204 174.816 75.204 172.551C75.204 170.287 73.366 168.451 71.0988 168.451C68.8316 168.451 66.9936 170.287 66.9936 172.551C66.9936 174.816 68.8316 176.652 71.0988 176.652Z" fill="#CCCCCC"/>
<path d="M317.52 49.782C319.031 49.782 320.256 48.5583 320.256 47.0488C320.256 45.5394 319.031 44.3157 317.52 44.3157C316.008 44.3157 314.784 45.5394 314.784 47.0488C314.784 48.5583 316.008 49.782 317.52 49.782Z" fill="#CCCCCC"/>
<path d="M379.822 91.5129C380.874 91.5129 381.728 90.6605 381.728 89.609C381.728 88.5575 380.874 87.7051 379.822 87.7051C378.769 87.7051 377.916 88.5575 377.916 89.609C377.916 90.6605 378.769 91.5129 379.822 91.5129Z" fill="#CCCCCC"/>
<path d="M148.407 68.1192C150.049 68.1192 151.381 66.7894 151.381 65.149C151.381 63.5086 150.049 62.1788 148.407 62.1788C146.765 62.1788 145.434 63.5086 145.434 65.149C145.434 66.7894 146.765 68.1192 148.407 68.1192Z" fill="#CCCCCC"/>
<path d="M373.151 153.39C374.204 153.39 375.057 152.538 375.057 151.487C375.057 150.435 374.204 149.583 373.151 149.583C372.098 149.583 371.245 150.435 371.245 151.487C371.245 152.538 372.098 153.39 373.151 153.39Z" fill="#CCCCCC"/>
<path d="M38.41 122.06C39.8288 122.06 40.9789 120.912 40.9789 119.494C40.9789 118.077 39.8288 116.928 38.41 116.928C36.9912 116.928 35.8411 118.077 35.8411 119.494C35.8411 120.912 36.9912 122.06 38.41 122.06Z" fill="#CCCCCC"/>
<path d="M406.005 124.482L401.836 121.597L404.717 117.433L402.48 115.885L399.599 120.05L395.428 117.164L393.881 119.401L398.052 122.286L395.171 126.451L397.408 127.998L400.289 123.834L404.457 126.718L406.005 124.482Z" fill="#CCCCCC"/>
<path d="M35.0047 195.482L30.8358 192.597L33.717 188.433L31.4802 186.885L28.5991 191.05L24.4283 188.164L22.8811 190.401L27.0519 193.286L24.1707 197.451L26.4075 198.998L29.2886 194.834L33.4574 197.718L35.0047 195.482Z" fill="#CCCCCC"/>
<path d="M320.953 279.086H317.769V275.906H316.061V279.086H312.878V280.792H316.061V283.971H317.769V280.792H320.953V279.086Z" fill="#CCCCCC"/>
<path d="M394.424 262.809H392.045V260.432H390.767V262.809H388.387V264.086H390.767V266.463H392.045V264.086H394.424V262.809Z" fill="#CCCCCC"/>
<path opacity="0.1" d="M166.526 156.462C171.419 156.462 175.385 152.501 175.385 147.613C175.385 142.726 171.419 138.764 166.526 138.764C161.634 138.764 157.668 142.726 157.668 147.613C157.668 152.501 161.634 156.462 166.526 156.462Z" fill="black"/>
<path opacity="0.1" d="M264.37 245.355C269.262 245.355 273.228 241.393 273.228 236.506C273.228 231.619 269.262 227.657 264.37 227.657C259.478 227.657 255.512 231.619 255.512 236.506C255.512 241.393 259.478 245.355 264.37 245.355Z" fill="black"/>
<path opacity="0.1" d="M170.956 218.808C175.848 218.808 179.814 214.846 179.814 209.959C179.814 205.072 175.848 201.11 170.956 201.11C166.063 201.11 162.097 205.072 162.097 209.959C162.097 214.846 166.063 218.808 170.956 218.808Z" fill="black"/>
<path opacity="0.1" d="M262.858 121.698C267.751 121.698 271.717 117.736 271.717 112.849C271.717 107.962 267.751 104 262.858 104C257.966 104 254 107.962 254 112.849C254 117.736 257.966 121.698 262.858 121.698Z" fill="black"/>
<path opacity="0.1" d="M311.48 182.607C316.372 182.607 320.338 178.645 320.338 173.758C320.338 168.871 316.372 164.909 311.48 164.909C306.588 164.909 302.622 168.871 302.622 173.758C302.622 178.645 306.588 182.607 311.48 182.607Z" fill="black"/>
<path d="M282.087 88.486C288.535 88.486 293.763 83.2635 293.763 76.8213C293.763 70.3792 288.535 65.1567 282.087 65.1567C275.638 65.1567 270.41 70.3792 270.41 76.8213C270.41 83.2635 275.638 88.486 282.087 88.486Z" fill="white"/>
<path d="M166.481 120.126C172.93 120.126 178.158 114.903 178.158 108.461C178.158 102.019 172.93 96.7964 166.481 96.7964C160.032 96.7964 154.804 102.019 154.804 108.461C154.804 114.903 160.032 120.126 166.481 120.126Z" fill="white"/>
<path d="M312.968 147.019C319.416 147.019 324.644 141.797 324.644 135.355C324.644 128.913 319.416 123.69 312.968 123.69C306.519 123.69 301.291 128.913 301.291 135.355C301.291 141.797 306.519 147.019 312.968 147.019Z" fill="white"/>
<path d="M383.788 287.55C386.054 285.654 382.991 278.27 376.946 271.058C370.9 263.845 364.162 259.535 361.896 261.43C359.629 263.326 362.692 270.71 368.737 277.923C374.783 285.136 381.521 289.446 383.788 287.55Z" fill="#2F2E41"/>
<path d="M336.571 302.641C355.404 302.641 370.672 287.389 370.672 268.575C370.672 249.761 355.404 234.509 336.571 234.509C317.737 234.509 302.469 249.761 302.469 268.575C302.469 287.389 317.737 302.641 336.571 302.641Z" fill="#2F2E41"/>
<path d="M351.004 295.311H340.645V313.853H351.004V295.311Z" fill="#2F2E41"/>
<path d="M330.285 295.311H319.925V313.853H330.285V295.311Z" fill="#2F2E41"/>
<path d="M342.371 317.302C347.139 317.302 351.004 315.855 351.004 314.068C351.004 312.282 347.139 310.834 342.371 310.834C337.603 310.834 333.738 312.282 333.738 314.068C333.738 315.855 337.603 317.302 342.371 317.302Z" fill="#2F2E41"/>
<path d="M321.651 316.871C326.419 316.871 330.285 315.423 330.285 313.637C330.285 311.851 326.419 310.403 321.651 310.403C316.883 310.403 313.018 311.851 313.018 313.637C313.018 315.423 316.883 316.871 321.651 316.871Z" fill="#2F2E41"/>
<path d="M325.863 225.753C328.908 213.503 342.349 206.294 355.885 209.652C369.42 213.009 377.924 225.662 374.879 237.912C371.834 250.162 361.732 250.201 348.196 246.844C334.661 243.486 322.818 238.003 325.863 225.753Z" fill="#6C63FF"/>
<path d="M313.567 260.068C314.834 257.399 308.963 251.968 300.455 247.937C291.946 243.906 284.022 242.801 282.755 245.469C281.488 248.137 287.359 253.568 295.867 257.6C304.375 261.631 312.3 262.736 313.567 260.068Z" fill="#2F2E41"/>
<path d="M331.472 272.745C337.752 272.745 342.842 267.66 342.842 261.387C342.842 255.115 337.752 250.03 331.472 250.03C325.193 250.03 320.103 255.115 320.103 261.387C320.103 267.66 325.193 272.745 331.472 272.745Z" fill="white"/>
<path d="M326.8 261.102C328.893 261.102 330.589 259.407 330.589 257.316C330.589 255.225 328.893 253.53 326.8 253.53C324.706 253.53 323.01 255.225 323.01 257.316C323.01 259.407 324.706 261.102 326.8 261.102Z" fill="#3F3D56"/>
<path d="M338.605 285.05C338.783 286.028 338.766 287.032 338.556 288.004C338.346 288.976 337.947 289.897 337.38 290.715C336.814 291.532 336.092 292.23 335.255 292.769C334.419 293.308 333.484 293.677 332.505 293.855C331.526 294.033 330.521 294.017 329.548 293.807C328.575 293.597 327.653 293.198 326.834 292.632C326.016 292.067 325.317 291.345 324.777 290.51C324.238 289.674 323.869 288.74 323.69 287.762V287.762L323.688 287.748C322.942 283.633 326.127 282.177 330.246 281.432C334.365 280.687 337.859 280.935 338.605 285.05Z" fill="white"/>
<path d="M266.34 196.205C262.832 193.248 258.54 191.374 253.986 190.81C249.431 190.246 244.811 191.016 240.687 193.027C236.563 195.038 233.113 198.204 230.757 202.138C228.401 206.072 227.24 210.605 227.416 215.186C227.592 219.768 229.097 224.199 231.748 227.941C234.4 231.683 238.082 234.575 242.349 236.264C246.615 237.954 251.281 238.368 255.778 237.456C260.276 236.545 264.412 234.348 267.682 231.131L296.721 255.608C297.163 255.981 297.735 256.163 298.311 256.115C298.887 256.066 299.42 255.791 299.794 255.35C300.167 254.909 300.35 254.338 300.302 253.762C300.254 253.186 299.979 252.653 299.538 252.28L299.535 252.277L270.496 227.8C273.869 222.963 275.313 217.043 274.544 211.198C273.775 205.354 270.849 200.007 266.34 196.205V196.205ZM264.468 225.443C262.205 228.121 259.199 230.069 255.828 231.041C252.458 232.012 248.875 231.963 245.532 230.9C242.189 229.837 239.237 227.808 237.049 225.069C234.861 222.33 233.535 219.004 233.239 215.512C232.943 212.021 233.69 208.52 235.385 205.452C237.081 202.384 239.649 199.888 242.765 198.278C245.881 196.669 249.405 196.018 252.891 196.409C256.377 196.8 259.669 198.215 262.35 200.475V200.475C265.945 203.506 268.188 207.839 268.585 212.521C268.982 217.203 267.501 221.852 264.468 225.443V225.443Z" fill="#3F3D56"/>
<path opacity="0.3" d="M239.474 227.558C236.071 224.69 233.873 220.648 233.315 216.236C232.758 211.823 233.882 207.362 236.464 203.739C236.125 204.08 235.797 204.438 235.481 204.811C233.978 206.589 232.842 208.646 232.135 210.863C231.429 213.08 231.166 215.415 231.363 217.733C231.559 220.052 232.211 222.309 233.281 224.376C234.351 226.442 235.818 228.278 237.598 229.779C239.378 231.279 241.437 232.415 243.656 233.121C245.876 233.827 248.213 234.089 250.533 233.892C252.854 233.696 255.114 233.045 257.183 231.976C259.252 230.907 261.09 229.442 262.592 227.664C262.908 227.29 263.205 226.907 263.484 226.515C260.343 229.667 256.131 231.524 251.683 231.718C247.235 231.911 242.877 230.426 239.474 227.558V227.558Z" fill="black"/>
<path d="M117.176 244.76C120.539 235.972 121.026 227.994 118.264 226.94C115.503 225.886 110.539 232.154 107.176 240.941C103.814 249.728 103.327 257.707 106.089 258.761C108.85 259.815 113.814 253.547 117.176 244.76Z" fill="#2F2E41"/>
<path d="M80.6563 302.641C99.4901 302.641 114.758 287.389 114.758 268.575C114.758 249.761 99.4901 234.509 80.6563 234.509C61.8225 234.509 46.5547 249.761 46.5547 268.575C46.5547 287.389 61.8225 302.641 80.6563 302.641Z" fill="#2F2E41"/>
<path d="M75.4764 295.311H65.1164V313.853H75.4764V295.311Z" fill="#2F2E41"/>
<path d="M96.1963 295.311H85.8363V313.853H96.1963V295.311Z" fill="#2F2E41"/>
<path d="M73.7497 317.302C78.5178 317.302 82.383 315.855 82.383 314.068C82.383 312.282 78.5178 310.834 73.7497 310.834C68.9817 310.834 65.1164 312.282 65.1164 314.068C65.1164 315.855 68.9817 317.302 73.7497 317.302Z" fill="#2F2E41"/>
<path d="M94.4697 316.871C99.2377 316.871 103.103 315.423 103.103 313.637C103.103 311.851 99.2377 310.403 94.4697 310.403C89.7016 310.403 85.8363 311.851 85.8363 313.637C85.8363 315.423 89.7016 316.871 94.4697 316.871Z" fill="#2F2E41"/>
<path d="M81.5197 271.594C87.9566 271.594 93.1747 266.381 93.1747 259.951C93.1747 253.521 87.9566 248.308 81.5197 248.308C75.0829 248.308 69.8647 253.521 69.8647 259.951C69.8647 266.381 75.0829 271.594 81.5197 271.594Z" fill="white"/>
<path d="M81.5197 263.832C83.6653 263.832 85.4047 262.094 85.4047 259.951C85.4047 257.807 83.6653 256.07 81.5197 256.07C79.3741 256.07 77.6347 257.807 77.6347 259.951C77.6347 262.094 79.3741 263.832 81.5197 263.832Z" fill="#3F3D56"/>
<path d="M47.5767 236.895C44.8231 224.576 53.6251 212.128 67.2365 209.092C80.8478 206.056 94.1142 213.581 96.8677 225.9C99.6213 238.219 90.6005 242.762 76.9892 245.798C63.3778 248.834 50.3302 249.214 47.5767 236.895Z" fill="#6C63FF"/>
<path d="M57.6525 260.068C58.9193 257.399 53.0489 251.968 44.5404 247.937C36.032 243.906 28.1076 242.801 26.8407 245.469C25.5739 248.137 31.4444 253.568 39.9528 257.6C48.4612 261.631 56.3857 262.736 57.6525 260.068Z" fill="#2F2E41"/>
<path d="M63.9058 280.865C63.9058 284.199 72.4996 290.783 82.0357 290.783C91.5719 290.783 100.513 281.396 100.513 278.062C100.513 274.728 91.5718 278.709 82.0357 278.709C72.4997 278.709 63.9058 277.531 63.9058 280.865Z" fill="white"/>
<path d="M191.289 364.339C210.123 364.339 225.39 349.087 225.39 330.273C225.39 311.459 210.123 296.207 191.289 296.207C172.455 296.207 157.187 311.459 157.187 330.273C157.187 349.087 172.455 364.339 191.289 364.339Z" fill="#2F2E41"/>
<path d="M186.109 357.008H175.749V375.55H186.109V357.008Z" fill="#2F2E41"/>
<path d="M206.829 357.008H196.469V375.55H206.829V357.008Z" fill="#2F2E41"/>
<path d="M184.382 379C189.15 379 193.016 377.552 193.016 375.766C193.016 373.98 189.15 372.532 184.382 372.532C179.614 372.532 175.749 373.98 175.749 375.766C175.749 377.552 179.614 379 184.382 379Z" fill="#2F2E41"/>
<path d="M205.102 378.569C209.87 378.569 213.736 377.121 213.736 375.335C213.736 373.549 209.87 372.101 205.102 372.101C200.334 372.101 196.469 373.549 196.469 375.335C196.469 377.121 200.334 378.569 205.102 378.569Z" fill="#2F2E41"/>
<path d="M158.209 298.592C155.456 286.273 164.258 273.826 177.869 270.79C191.48 267.754 204.747 275.279 207.5 287.598C210.254 299.916 201.233 304.46 187.622 307.496C174.01 310.532 160.963 310.911 158.209 298.592Z" fill="#3F3D56"/>
<path d="M191.426 324.37C191.426 324.37 193.9 313.497 189.199 313.991C184.499 314.485 178.068 314.732 176.336 314.732C174.604 314.732 164.709 313.497 163.225 319.922C161.741 326.347 159.762 334.254 163.967 339.197C163.967 339.197 165.452 360.943 171.141 362.426C176.831 363.908 191.921 365.638 197.363 358.472C198.956 356.34 200.069 353.889 200.624 351.287C201.179 348.685 201.164 345.993 200.579 343.398H198.105L191.426 324.37Z" fill="#6C63FF"/>
<path opacity="0.1" d="M166.441 340.927C166.441 340.927 170.646 342.904 179.304 341.668V345.375L166.441 344.386V340.927Z" fill="black"/>
<path d="M197.869 353.317L195.069 351.839L207.524 328.294C207.992 327.41 208.226 326.422 208.204 325.422C208.183 324.423 207.907 323.445 207.402 322.582C206.897 321.719 206.18 320.999 205.319 320.489C204.457 319.98 203.48 319.699 202.48 319.672L189.409 319.321L189.494 316.157L202.565 316.509C204.104 316.55 205.607 316.983 206.932 317.766C208.257 318.55 209.36 319.658 210.136 320.986C210.913 322.313 211.338 323.817 211.371 325.355C211.404 326.892 211.044 328.413 210.324 329.773L197.869 353.317Z" fill="#6C63FF"/>
<path d="M167.766 353.317L155.311 329.773C154.592 328.413 154.231 326.892 154.264 325.355C154.297 323.817 154.722 322.313 155.499 320.986C156.276 319.658 157.378 318.55 158.703 317.767C160.028 316.983 161.531 316.55 163.07 316.509L176.141 316.157L176.226 319.321L163.155 319.672C162.155 319.699 161.178 319.98 160.317 320.489C159.455 320.999 158.738 321.719 158.233 322.582C157.728 323.445 157.452 324.423 157.431 325.422C157.409 326.422 157.644 327.41 158.111 328.294L170.566 351.839L167.766 353.317Z" fill="#6C63FF"/>
<path d="M235.016 339.014C236.55 336.117 230.306 329.813 221.07 324.933C211.834 320.052 203.104 318.444 201.57 321.34C200.036 324.236 206.28 330.541 215.516 335.421C224.752 340.302 233.482 341.91 235.016 339.014Z" fill="#2F2E41"/>
<g filter="url(#filter0_di)">
<path d="M254.197 166.545L221.599 147.718C221.446 147.63 221.273 147.583 221.097 147.583C220.921 147.583 220.748 147.63 220.596 147.718C220.443 147.806 220.317 147.932 220.229 148.085C220.141 148.237 220.095 148.41 220.095 148.586V186.241C220.095 186.417 220.141 186.59 220.229 186.742C220.317 186.895 220.443 187.021 220.596 187.109C220.748 187.197 220.921 187.244 221.097 187.244C221.273 187.244 221.446 187.197 221.599 187.109L254.197 168.282C254.349 168.194 254.476 168.067 254.564 167.915C254.652 167.762 254.698 167.589 254.698 167.413C254.698 167.237 254.652 167.064 254.564 166.912C254.476 166.759 254.349 166.632 254.197 166.544L221.599 147.717C221.446 147.629 221.273 147.582 221.097 147.582C220.921 147.582 220.748 147.629 220.596 147.717C220.443 147.805 220.317 147.931 220.229 148.084C220.141 148.236 220.095 148.409 220.095 148.585V186.241C220.095 186.417 220.141 186.59 220.229 186.742C220.317 186.895 220.443 187.021 220.596 187.109C220.748 187.197 220.921 187.244 221.097 187.244C221.273 187.244 221.446 187.197 221.599 187.109L254.197 168.282C254.349 168.194 254.476 168.067 254.564 167.915C254.652 167.762 254.698 167.589 254.698 167.413C254.698 167.237 254.652 167.064 254.564 166.912C254.476 166.759 254.349 166.632 254.197 166.544V166.545Z" fill="#6C63FF"/>
</g>
<path d="M147.24 187.279L146.372 188.137L145.515 187.269C145.223 186.973 144.825 186.806 144.41 186.803C143.994 186.801 143.594 186.964 143.298 187.256C143.002 187.548 142.834 187.946 142.831 188.362C142.828 188.778 142.991 189.177 143.283 189.473L144.14 190.341L143.272 191.198C142.976 191.49 142.808 191.888 142.805 192.304C142.802 192.72 142.965 193.12 143.257 193.415C143.549 193.711 143.947 193.879 144.362 193.881C144.778 193.884 145.178 193.721 145.474 193.429L146.342 192.571L147.199 193.439C147.491 193.735 147.889 193.902 148.305 193.905C148.72 193.907 149.12 193.744 149.416 193.452C149.712 193.16 149.88 192.762 149.883 192.346C149.886 191.93 149.723 191.53 149.431 191.235L148.574 190.367L149.443 189.51C149.739 189.218 149.906 188.82 149.909 188.404C149.912 187.988 149.749 187.588 149.457 187.293C149.165 186.997 148.768 186.829 148.352 186.827C147.936 186.824 147.536 186.987 147.24 187.279V187.279Z" fill="#FF6584"/>
<path d="M66.8767 65.2026L65.4128 66.6482L63.9682 65.1852C63.4756 64.6864 62.8048 64.4038 62.1035 64.3996C61.4022 64.3954 60.7278 64.67 60.2285 65.163C59.7293 65.6559 59.4463 66.3268 59.4416 67.0281C59.4369 67.7294 59.711 68.4037 60.2036 68.9026L61.6482 70.3656L60.1843 71.8111C59.685 72.3041 59.4019 72.975 59.3973 73.6764C59.3926 74.3777 59.6667 75.0519 60.1593 75.5508C60.6519 76.0496 61.3226 76.3322 62.024 76.3364C62.7253 76.3406 63.3997 76.066 63.899 75.573L65.3629 74.1274L66.8075 75.5904C67.3001 76.0893 67.9709 76.3718 68.6722 76.376C69.3735 76.3802 70.0479 76.1056 70.5472 75.6127C71.0464 75.1197 71.3294 74.4488 71.3341 73.7475C71.3388 73.0462 71.0647 72.3719 70.5721 71.873L69.1275 70.4101L70.5914 68.9645C71.0907 68.4715 71.3738 67.8006 71.3784 67.0993C71.3831 66.398 71.109 65.7237 70.6164 65.2249C70.1238 64.726 69.4531 64.4434 68.7517 64.4392C68.0504 64.435 67.376 64.7097 66.8767 65.2026V65.2026Z" fill="#FF6584"/>
<path d="M386.536 146.781L385.237 148.063L383.956 146.766C383.519 146.323 382.924 146.072 382.302 146.069C381.679 146.065 381.081 146.309 380.638 146.746C380.195 147.183 379.944 147.778 379.94 148.4C379.936 149.023 380.179 149.621 380.616 150.063L381.898 151.361L380.599 152.643C380.156 153.081 379.905 153.676 379.901 154.298C379.897 154.92 380.14 155.518 380.577 155.961C381.014 156.403 381.609 156.654 382.231 156.658C382.853 156.662 383.451 156.418 383.894 155.981L385.193 154.698L386.475 155.996C386.912 156.439 387.507 156.689 388.129 156.693C388.751 156.697 389.349 156.453 389.792 156.016C390.235 155.579 390.486 154.983 390.49 154.361C390.494 153.739 390.251 153.141 389.814 152.698L388.533 151.401L389.831 150.118C390.274 149.681 390.525 149.086 390.529 148.464C390.534 147.841 390.29 147.243 389.853 146.801C389.416 146.358 388.821 146.107 388.199 146.104C387.577 146.1 386.979 146.344 386.536 146.781V146.781Z" fill="#FF6584"/>
<defs>
<filter id="filter0_di" x="220.095" y="145.582" width="50.6037" height="47.6615" filterUnits="userSpaceOnUse" color-interpolation-filters="sRGB">
<feFlood flood-opacity="0" result="BackgroundImageFix"/>
<feColorMatrix in="SourceAlpha" type="matrix" values="0 0 0 0 0 0 0 0 0 0 0 0 0 0 0 0 0 0 127 0"/>
<feOffset dx="12" dy="2"/>
<feGaussianBlur stdDeviation="2"/>
<feColorMatrix type="matrix" values="0 0 0 0 1 0 0 0 0 1 0 0 0 0 1 0 0 0 0.25 0"/>
<feBlend mode="normal" in2="BackgroundImageFix" result="effect1_dropShadow"/>
<feBlend mode="normal" in="SourceGraphic" in2="effect1_dropShadow" result="shape"/>
<feColorMatrix in="SourceAlpha" type="matrix" values="0 0 0 0 0 0 0 0 0 0 0 0 0 0 0 0 0 0 127 0" result="hardAlpha"/>
<feOffset dx="3" dy="6"/>
<feGaussianBlur stdDeviation="0.5"/>
<feComposite in2="hardAlpha" operator="arithmetic" k2="-1" k3="1"/>
<feColorMatrix type="matrix" values="0 0 0 0 0 0 0 0 0 0 0 0 0 0 0 0 0 0 0.16 0"/>
<feBlend mode="normal" in2="shape" result="effect2_innerShadow"/>
</filter>
</defs>
</svg>
