<svg width="637" height="409" viewBox="0 0 637 409" fill="none" xmlns="http://www.w3.org/2000/svg">
<rect width="637" height="409" />
<path d="M216.782 393.451C224.116 393.451 230.061 391.223 230.061 388.474C230.061 385.725 224.116 383.497 216.782 383.497C209.447 383.497 203.502 385.725 203.502 388.474C203.502 391.223 209.447 393.451 216.782 393.451Z" fill="#2F2E41"/>
<path d="M248.653 392.788C255.987 392.788 261.933 390.559 261.933 387.811C261.933 385.062 255.987 382.833 248.653 382.833C241.319 382.833 235.373 385.062 235.373 387.811C235.373 390.559 241.319 392.788 248.653 392.788Z" fill="#2F2E41"/>
<path d="M290.963 309.134C303.513 301.903 311.845 292.851 309.573 288.913C307.302 284.976 295.288 287.645 282.739 294.876C270.19 302.106 261.858 311.159 264.129 315.096C266.4 319.033 278.414 316.364 290.963 309.134Z" fill="#2F2E41"/>
<path d="M279.183 326.862C283.824 298.283 264.404 271.355 235.808 266.717C207.212 262.079 180.268 281.488 175.628 310.067C170.987 338.646 190.407 365.574 219.003 370.212C247.599 374.85 274.543 355.441 279.183 326.862Z" fill="#2F2E41"/>
<path d="M219.438 359.607H203.502V388.142H219.438V359.607Z" fill="#2F2E41"/>
<path d="M251.309 359.607H235.373V388.142H251.309V359.607Z" fill="#2F2E41"/>
<path d="M228.733 323.11C238.635 323.11 246.661 315.088 246.661 305.193C246.661 295.297 238.635 287.275 228.733 287.275C218.832 287.275 210.806 295.297 210.806 305.193C210.806 315.088 218.832 323.11 228.733 323.11Z" fill="white"/>
<path d="M228.733 311.165C232.034 311.165 234.709 308.491 234.709 305.192C234.709 301.894 232.034 299.22 228.733 299.22C225.433 299.22 222.758 301.894 222.758 305.192C222.758 308.491 225.433 311.165 228.733 311.165Z" fill="#3F3D56"/>
<path d="M176.523 269.711C172.287 250.754 185.826 231.598 206.763 226.926C227.7 222.254 248.106 233.834 252.342 252.792C256.577 271.749 242.702 278.741 221.765 283.413C200.828 288.085 180.758 288.669 176.523 269.711Z" fill="#E6E6E6"/>
<path d="M184.044 316.729C179.6 315.774 173.536 326.48 170.499 340.642C167.462 354.803 168.602 367.057 173.046 368.013C177.49 368.968 183.554 358.262 186.591 344.1C189.628 329.939 188.488 317.684 184.044 316.729Z" fill="#2F2E41"/>
<path d="M410.311 393.451C417.646 393.451 423.591 391.223 423.591 388.474C423.591 385.725 417.646 383.497 410.311 383.497C402.977 383.497 397.032 385.725 397.032 388.474C397.032 391.223 402.977 393.451 410.311 393.451Z" fill="#2F2E41"/>
<path d="M378.44 392.788C385.774 392.788 391.72 390.559 391.72 387.811C391.72 385.062 385.774 382.833 378.44 382.833C371.106 382.833 365.16 385.062 365.16 387.811C365.16 390.559 371.106 392.788 378.44 392.788Z" fill="#2F2E41"/>
<path d="M362.964 315.096C365.235 311.158 356.903 302.106 344.354 294.875C331.805 287.645 319.791 284.976 317.52 288.913C315.248 292.851 323.58 301.903 336.13 309.133C348.679 316.364 360.693 319.033 362.964 315.096Z" fill="#2F2E41"/>
<path d="M399.688 370.889C428.658 370.889 452.142 347.418 452.142 318.464C452.142 289.511 428.658 266.04 399.688 266.04C370.718 266.04 347.233 289.511 347.233 318.464C347.233 347.418 370.718 370.889 399.688 370.889Z" fill="#2F2E41"/>
<path d="M423.591 359.607H407.655V388.142H423.591V359.607Z" fill="#2F2E41"/>
<path d="M391.72 359.607H375.784V388.142H391.72V359.607Z" fill="#2F2E41"/>
<path d="M387.398 323.11C397.299 323.11 405.325 315.088 405.325 305.193C405.325 295.297 397.299 287.275 387.398 287.275C377.497 287.275 369.47 295.297 369.47 305.193C369.47 315.088 377.497 323.11 387.398 323.11Z" fill="white"/>
<path d="M383.078 306.965C385.42 304.627 385.435 300.848 383.112 298.525C380.789 296.201 377.007 296.213 374.666 298.551C372.324 300.889 372.309 304.668 374.632 306.991C376.955 309.315 380.737 309.303 383.078 306.965Z" fill="#3F3D56"/>
<path d="M383.685 353.5C386.685 352.674 385.332 346.293 383.685 343.5C381.5 339.793 377.548 337.162 375.206 339.5C372.865 341.838 372.883 349.35 375.206 351.674C377.529 353.998 380.685 354.326 383.685 353.5Z" fill="white"/>
<path d="M405.328 283.413C384.391 278.741 370.516 271.749 374.751 252.791C378.987 233.834 399.393 222.254 420.33 226.926C441.267 231.598 454.806 250.754 450.57 269.711C446.335 288.669 426.265 288.085 405.328 283.413Z" fill="#6C63FF"/>
<path d="M454.54 358.425C458.935 357.259 459.483 344.971 455.765 330.979C452.047 316.988 445.47 306.591 441.075 307.758C436.68 308.925 436.131 321.213 439.85 335.204C443.568 349.196 450.145 359.592 454.54 358.425Z" fill="#2F2E41"/>
<path d="M320.014 231.543H315.356C311.183 231.538 307.182 229.88 304.231 226.93C301.281 223.981 299.621 219.983 299.616 215.813V211.904C299.616 202.223 301.452 194.117 305.072 187.811C309.459 180.477 314.576 173.604 320.347 167.299C324.179 163.448 327.655 159.261 330.734 154.787C332.943 151.311 334.084 147.264 334.014 143.147C334.014 133.435 327.684 128.714 314.66 128.714C307.436 128.796 300.257 129.873 293.327 131.914C290.655 132.677 287.841 132.809 285.109 132.3C282.377 131.791 279.8 130.656 277.581 128.983C275.362 127.31 273.563 125.145 272.323 122.659C271.084 120.173 270.439 117.433 270.438 114.656V106.743C270.423 103.337 271.397 99.9999 273.241 97.1357C275.086 94.2716 277.722 92.0037 280.83 90.6069C293.07 85.3868 306.269 82.7917 319.574 82.9895C333.513 82.9895 346.096 85.3295 356.974 89.9436C367.873 94.5684 376.483 101.09 382.566 109.327C388.63 117.506 391.853 127.442 391.744 137.621C391.744 148.552 388.758 158.073 382.869 165.918C377.045 173.684 368.695 182.186 358.052 191.189C352.444 195.85 347.131 200.853 342.141 206.17C338.918 209.639 336.641 213.877 335.526 218.478C334.905 222.138 333.006 225.459 330.166 227.851C327.325 230.243 323.729 231.551 320.014 231.543V231.543Z" fill="#6C63FF"/>
<path d="M317.424 305.518H316.81C309.076 305.513 301.661 302.439 296.195 296.972C290.728 291.505 287.657 284.092 287.657 276.363C287.657 268.634 290.728 261.221 296.195 255.754C301.661 250.287 309.076 247.213 316.81 247.208H317.424C321.257 247.206 325.052 247.958 328.594 249.422C332.135 250.886 335.353 253.033 338.064 255.741C340.775 258.448 342.925 261.663 344.393 265.202C345.86 268.74 346.615 272.533 346.615 276.363C346.615 280.193 345.86 283.986 344.393 287.525C342.925 291.063 340.775 294.278 338.064 296.985C335.353 299.693 332.135 301.84 328.594 303.304C325.052 304.768 321.257 305.52 317.424 305.518Z" fill="#6C63FF"/>
<path d="M483.876 149.744C488.227 149.744 491.753 146.219 491.753 141.872C491.753 137.524 488.227 134 483.876 134C479.526 134 476 137.524 476 141.872C476 146.219 479.526 149.744 483.876 149.744Z" fill="#F2F2F2"/>
<path d="M201.565 187.841C205.915 187.841 209.441 184.316 209.441 179.969C209.441 175.621 205.915 172.097 201.565 172.097C197.215 172.097 193.688 175.621 193.688 179.969C193.688 184.316 197.215 187.841 201.565 187.841Z" fill="#F2F2F2"/>
<path d="M441.741 162.359H439.395V160.014C439.395 159.215 439.078 158.448 438.512 157.883C437.946 157.318 437.179 157 436.379 157C435.579 157 434.812 157.318 434.246 157.883C433.68 158.448 433.363 159.215 433.363 160.014V162.359H431.016C430.216 162.359 429.449 162.676 428.883 163.242C428.318 163.807 428 164.574 428 165.373C428 166.172 428.318 166.939 428.883 167.504C429.449 168.07 430.216 168.387 431.016 168.387H433.363V170.732C433.363 171.531 433.68 172.298 434.246 172.863C434.812 173.428 435.579 173.746 436.379 173.746C437.179 173.746 437.946 173.428 438.512 172.863C439.078 172.298 439.395 171.531 439.395 170.732V168.387H441.741C442.541 168.387 443.309 168.07 443.874 167.504C444.44 166.939 444.758 166.172 444.758 165.373C444.758 164.574 444.44 163.807 443.874 163.242C443.309 162.676 442.541 162.359 441.741 162.359Z" fill="#FFB8B8"/>
<path d="M227.741 54.3587H225.395V52.0143C225.395 51.2148 225.078 50.4481 224.512 49.8828C223.946 49.3176 223.179 49 222.379 49C221.579 49 220.812 49.3176 220.246 49.8828C219.68 50.4481 219.363 51.2148 219.363 52.0143V54.3587H217.016C216.216 54.3587 215.449 54.6763 214.883 55.2416C214.318 55.8069 214 56.5736 214 57.373C214 58.1725 214.318 58.9392 214.883 59.5045C215.449 60.0697 216.216 60.3873 217.016 60.3873H219.363V62.7317C219.363 63.5312 219.68 64.2979 220.246 64.8632C220.812 65.4285 221.579 65.746 222.379 65.746C223.179 65.746 223.946 65.4285 224.512 64.8632C225.078 64.2979 225.395 63.5312 225.395 62.7317V60.3873H227.741C228.541 60.3873 229.309 60.0697 229.874 59.5045C230.44 58.9392 230.758 58.1725 230.758 57.373C230.758 56.5736 230.44 55.8069 229.874 55.2416C229.309 54.6763 228.541 54.3587 227.741 54.3587Z" fill="#FFB8B8"/>
</svg>
