<svg width="400" height="400" viewBox="0 0 400 400" fill="none" xmlns="http://www.w3.org/2000/svg">
<rect width="400" height="400" />
<path d="M233.385 240.215C276.428 208.097 285.254 147.126 253.098 104.03C220.941 60.9354 159.98 52.0365 116.937 84.1541C73.8935 116.272 65.0678 177.244 97.2241 220.339C129.38 263.434 190.342 272.333 233.385 240.215Z" fill="#F2F2F2"/>
<path d="M258.509 167.705C234.651 179.371 204.41 190.294 172.231 198.817C136.37 208.315 102.357 213.704 76.4587 213.991C50.02 214.285 35.0479 209.156 34.3001 199.552C33.5522 189.947 47.1371 177.255 72.5521 163.814L73.6879 165.808C61.8193 172.084 52.6147 178.156 46.3297 183.854C40.06 189.539 37.0464 194.546 37.3728 198.738C37.6991 202.929 41.3549 206.17 48.2385 208.371C55.1388 210.577 64.8979 211.626 77.2446 211.489C102.835 211.205 136.503 205.865 172.047 196.45C203.947 188.001 233.9 177.186 257.489 165.654C260.184 164.336 262.792 163.01 265.314 161.677C277.182 155.4 286.387 149.328 292.672 143.63C298.942 137.946 301.956 132.938 301.629 128.747C301.043 121.22 289.491 116.717 269.102 116.065L270.037 113.565C280.53 113.9 288.826 115.231 294.696 117.52C300.989 119.974 304.355 123.478 304.702 127.933C305.45 137.538 291.865 150.229 266.45 163.67C263.893 165.023 261.241 166.37 258.509 167.705Z" fill="#CCCCCC"/>
<path d="M174.781 137.98L181.952 176.038C181.975 176.161 181.949 176.288 181.878 176.392C181.808 176.495 181.699 176.566 181.576 176.589C181.453 176.613 181.326 176.586 181.223 176.515C181.119 176.445 181.048 176.336 181.025 176.213L173.854 138.155C173.831 138.032 173.857 137.905 173.928 137.801C173.999 137.698 174.107 137.627 174.23 137.604C174.353 137.581 174.48 137.607 174.584 137.678C174.687 137.749 174.758 137.857 174.781 137.98Z" fill="black"/>
<path d="M221.113 162.683L210.476 178.281C210.405 178.384 210.296 178.455 210.173 178.478C210.051 178.501 209.924 178.474 209.821 178.403C209.717 178.333 209.646 178.224 209.623 178.101C209.6 177.978 209.626 177.851 209.696 177.748L220.334 162.15C220.369 162.099 220.414 162.055 220.466 162.021C220.517 161.987 220.576 161.963 220.636 161.952C220.697 161.94 220.76 161.941 220.821 161.953C220.882 161.966 220.939 161.991 220.99 162.026C221.042 162.061 221.085 162.106 221.119 162.158C221.153 162.21 221.177 162.268 221.188 162.329C221.2 162.39 221.199 162.453 221.186 162.513C221.173 162.574 221.149 162.632 221.113 162.683Z" fill="black"/>
<path d="M139.689 178.025L155.274 188.682C155.377 188.753 155.504 188.779 155.627 188.756C155.75 188.733 155.859 188.662 155.929 188.558C156 188.455 156.027 188.328 156.003 188.205C155.98 188.082 155.909 187.973 155.806 187.902L140.221 177.245C140.17 177.21 140.112 177.186 140.051 177.173C139.991 177.16 139.928 177.159 139.867 177.171C139.806 177.182 139.748 177.205 139.696 177.239C139.644 177.273 139.599 177.317 139.564 177.368C139.529 177.42 139.505 177.477 139.492 177.538C139.48 177.599 139.479 177.662 139.491 177.723C139.502 177.784 139.526 177.842 139.56 177.894C139.594 177.946 139.638 177.99 139.689 178.025Z" fill="black"/>
<path d="M200.199 242.297C207.077 236.678 216.97 234.955 226.005 235.323C235.039 235.691 243.688 237.85 252.613 238.808C279.886 241.734 309.568 232.646 330.139 215.069C333.475 218.907 332.361 224.542 330.813 229.443C329.264 234.345 327.439 239.694 329.706 244.121C332.608 249.787 340.933 251.518 345.345 256.329C349.534 260.895 349.573 267.492 348.779 273.556C347.985 279.621 346.55 285.892 348.391 291.607C350.231 297.321 356.745 302.209 363.586 300.484C353.789 304.387 343.793 308.34 333.317 309.528C322.841 310.717 313.109 313.588 306.445 307.024C301.709 304.611 294.404 296.994 290.767 293.969C284.572 288.817 275.541 294.455 266.649 294.322C257.757 294.19 252.939 285.553 245.685 281.531C238.773 277.698 235.156 270.839 230.525 264.973C222.741 255.161 211.656 247.747 198.616 243.631" fill="#6C63FF"/>
<path d="M163.618 280.936C152.507 277.766 144.305 272.369 145.299 268.882C146.293 265.395 156.106 265.138 167.217 268.308C178.328 271.478 186.529 276.875 185.535 280.362C184.542 283.85 174.729 284.106 163.618 280.936Z" fill="#2F2E41"/>
<path d="M191.78 309.557C173.583 295.311 170.372 269.016 184.608 250.825C198.845 232.634 225.137 229.435 243.334 243.681C261.531 257.926 264.742 284.221 250.506 302.412C236.27 320.603 209.977 323.802 191.78 309.557Z" fill="#2F2E41"/>
<path d="M251.758 302.055L254.936 289.449L277.238 295.073L274.06 307.678L251.758 302.055Z" fill="#2F2E41"/>
<path d="M230.758 313.762L240.753 305.449L255.46 323.133L245.465 331.446L230.758 313.762Z" fill="#2F2E41"/>
<path d="M278.428 306.717C276.942 312.608 274.002 316.945 271.86 316.405C269.718 315.865 269.185 310.652 270.671 304.761C272.156 298.87 275.096 294.533 277.238 295.073C279.381 295.613 279.913 300.826 278.428 306.717Z" fill="#2F2E41"/>
<path d="M249.945 332.922C245.486 336.63 240.727 338.259 239.314 336.561C237.901 334.862 240.371 330.479 244.829 326.771C249.288 323.063 254.047 321.434 255.46 323.133C256.873 324.831 254.403 329.214 249.945 332.922Z" fill="#2F2E41"/>
<path d="M218.983 280.341C213.029 285.525 203.997 284.899 198.81 278.943C193.623 272.986 194.245 263.955 200.199 258.77C206.153 253.586 215.184 254.212 220.371 260.169C225.558 266.125 224.937 275.157 218.983 280.341Z" fill="white"/>
<path d="M213.116 273.202C211.291 274.888 208.292 274.611 206.418 272.583C204.544 270.554 204.505 267.543 206.33 265.856C208.156 264.17 211.155 264.447 213.029 266.476C214.903 268.504 214.942 271.515 213.116 273.202Z" fill="#3F3D56"/>
<path d="M229.313 226.722C225.378 211.755 208.722 203.204 192.111 207.623C175.501 212.042 165.226 227.759 169.162 242.726C173.097 257.694 185.534 257.519 202.144 253.1C218.755 248.681 233.249 241.69 229.313 226.722Z" fill="#6C63FF"/>
<path d="M247.662 259.159C247.935 255.542 257.493 253.311 269.011 254.175C280.529 255.04 289.646 258.672 289.373 262.289C289.1 265.906 279.542 268.138 268.024 267.273C256.505 266.409 247.389 262.776 247.662 259.159Z" fill="#2F2E41"/>
<path d="M239.595 281.973C241.315 285.622 235.155 297.331 224.552 302.33C213.949 307.328 199.165 301.743 197.445 298.094C195.725 294.446 207.72 294.115 218.323 289.117C228.927 284.118 237.874 278.324 239.595 281.973Z" fill="white"/>
<path d="M367 198C374.732 198 381 191.732 381 184C381 176.268 374.732 170 367 170C359.268 170 353 176.268 353 184C353 191.732 359.268 198 367 198Z" fill="#F2F2F2"/>
<path d="M37.5 67.9999C43.299 67.9999 48 63.2989 48 57.4999C48 51.701 43.299 46.9999 37.5 46.9999C31.701 46.9999 27 51.701 27 57.4999C27 63.2989 31.701 67.9999 37.5 67.9999Z" fill="#F2F2F2"/>
<path d="M332.153 140.511L330.262 138.376L332.325 136.549C333.029 135.925 333.448 135.039 333.489 134.083C333.531 133.128 333.192 132.183 332.548 131.455C331.903 130.727 331.005 130.276 330.052 130.202C329.099 130.128 328.168 130.437 327.464 131.06L325.401 132.887L323.51 130.753C322.866 130.025 321.968 129.575 321.015 129.501C320.061 129.427 319.131 129.735 318.427 130.358C317.723 130.981 317.305 131.868 317.263 132.823C317.221 133.779 317.56 134.724 318.205 135.452L320.095 137.587L318.032 139.414C317.328 140.037 316.91 140.924 316.868 141.879C316.826 142.834 317.165 143.78 317.81 144.508C318.454 145.236 319.352 145.686 320.305 145.76C321.259 145.834 322.19 145.526 322.893 144.903L324.956 143.075L326.847 145.21C327.491 145.938 328.389 146.388 329.343 146.462C330.296 146.536 331.227 146.228 331.93 145.604C332.634 144.981 333.053 144.094 333.094 143.139C333.136 142.184 332.797 141.238 332.153 140.511Z" fill="#6C63FF" fill-opacity="0.7"/>
<path d="M25.9841 223.599L23.867 224.316L23.1741 222.27C22.9378 221.572 22.4243 221 21.7468 220.679C21.0692 220.358 20.283 220.316 19.5611 220.56C18.8392 220.805 18.2407 221.316 17.8973 221.983C17.5539 222.649 17.4938 223.415 17.7301 224.113L18.423 226.16L16.3059 226.877C15.584 227.121 14.9855 227.633 14.6422 228.299C14.2988 228.965 14.2386 229.732 14.4749 230.429C14.7112 231.127 15.2246 231.7 15.9022 232.02C16.5797 232.341 17.366 232.384 18.0879 232.139L20.205 231.422L20.898 233.469C21.1343 234.167 21.6477 234.739 22.3252 235.059C23.0028 235.38 23.789 235.423 24.5109 235.178C25.2328 234.934 25.8313 234.422 26.1747 233.756C26.5181 233.09 26.5782 232.323 26.3419 231.625L25.649 229.579L27.7661 228.862C28.488 228.617 29.0865 228.106 29.4299 227.44C29.7732 226.773 29.8334 226.007 29.5971 225.309C29.3608 224.611 28.8474 224.039 28.1698 223.718C27.4923 223.398 26.7061 223.355 25.9841 223.599Z" fill="#FFB8B8"/>
<path d="M84.5847 242.16L80.5326 239.357L83.333 235.309L81.1589 233.805L78.3584 237.853L74.3044 235.048L72.8005 237.222L76.8545 240.026L74.054 244.074L76.2282 245.578L79.0287 241.531L83.0808 244.334L84.5847 242.16Z" fill="#CCCCCC"/>
<path d="M308.5 71C309.881 71 311 69.8807 311 68.5C311 67.1193 309.881 66 308.5 66C307.119 66 306 67.1193 306 68.5C306 69.8807 307.119 71 308.5 71Z" fill="#CCCCCC"/>
<path d="M362 93C363.105 93 364 92.1046 364 91C364 89.8954 363.105 89 362 89C360.895 89 360 89.8954 360 91C360 92.1046 360.895 93 362 93Z" fill="#CCCCCC"/>
<path d="M16 285C18.2091 285 20 283.209 20 281C20 278.791 18.2091 277 16 277C13.7909 277 12 278.791 12 281C12 283.209 13.7909 285 16 285Z" fill="#CCCCCC"/>
<path d="M377 178C379.209 178 381 176.209 381 174C381 171.791 379.209 170 377 170C374.791 170 373 171.791 373 174C373 176.209 374.791 178 377 178Z" fill="#CCCCCC"/>
<path d="M346.585 118.16L342.533 115.357L345.333 111.309L343.159 109.805L340.358 113.853L336.304 111.048L334.8 113.222L338.855 116.026L336.054 120.074L338.228 121.578L341.029 117.531L345.081 120.334L346.585 118.16Z" fill="#CCCCCC"/>
<path d="M67.5 39C68.8807 39 70 37.8807 70 36.5C70 35.1193 68.8807 34 67.5 34C66.1193 34 65 35.1193 65 36.5C65 37.8807 66.1193 39 67.5 39Z" fill="#CCCCCC"/>
</svg>
