<svg width="400" height="400" viewBox="0 0 400 400" fill="none" xmlns="http://www.w3.org/2000/svg">
<rect width="400" height="400" />
<path d="M98.7817 372.451C106.116 372.451 112.061 370.223 112.061 367.474C112.061 364.725 106.116 362.497 98.7817 362.497C91.4475 362.497 85.502 364.725 85.502 367.474C85.502 370.223 91.4475 372.451 98.7817 372.451Z" fill="#2F2E41"/>
<path d="M130.653 371.788C137.987 371.788 143.933 369.559 143.933 366.811C143.933 364.062 137.987 361.833 130.653 361.833C123.319 361.833 117.373 364.062 117.373 366.811C117.373 369.559 123.319 371.788 130.653 371.788Z" fill="#2F2E41"/>
<path d="M172.963 288.134C185.512 280.903 193.844 271.851 191.573 267.913C189.302 263.976 177.288 266.645 164.739 273.876C152.19 281.106 143.858 290.159 146.129 294.096C148.4 298.033 160.414 295.364 172.963 288.134Z" fill="#2F2E41"/>
<path d="M161.183 305.862C165.824 277.283 146.404 250.355 117.808 245.717C89.2119 241.079 62.2684 260.488 57.6279 289.067C52.9874 317.646 72.4072 344.574 101.003 349.212C129.599 353.85 156.543 334.441 161.183 305.862Z" fill="#2F2E41"/>
<path d="M101.438 338.607H85.502V367.142H101.438V338.607Z" fill="#2F2E41"/>
<path d="M133.309 338.607H117.373V367.142H133.309V338.607Z" fill="#2F2E41"/>
<path d="M110.733 302.11C120.635 302.11 128.661 294.088 128.661 284.193C128.661 274.297 120.635 266.275 110.733 266.275C100.832 266.275 92.8058 274.297 92.8058 284.193C92.8058 294.088 100.832 302.11 110.733 302.11Z" fill="white"/>
<path d="M110.733 290.165C114.034 290.165 116.709 287.491 116.709 284.192C116.709 280.894 114.034 278.22 110.733 278.22C107.433 278.22 104.758 280.894 104.758 284.192C104.758 287.491 107.433 290.165 110.733 290.165Z" fill="#3F3D56"/>
<path d="M58.5226 248.711C54.2871 229.754 67.8263 210.598 88.7631 205.926C109.7 201.254 130.106 212.834 134.342 231.792C138.577 250.749 124.702 257.741 103.765 262.413C82.8278 267.085 62.758 267.669 58.5226 248.711Z" fill="#E6E6E6"/>
<path d="M66.0439 295.729C61.6003 294.774 55.536 305.48 52.499 319.642C49.4619 333.803 50.6022 346.057 55.0459 347.013C59.4895 347.968 65.5538 337.262 68.5908 323.1C71.6278 308.939 70.4875 296.684 66.0439 295.729Z" fill="#2F2E41"/>
<path d="M292.311 372.451C299.646 372.451 305.591 370.223 305.591 367.474C305.591 364.725 299.646 362.497 292.311 362.497C284.977 362.497 279.032 364.725 279.032 367.474C279.032 370.223 284.977 372.451 292.311 372.451Z" fill="#2F2E41"/>
<path d="M260.44 371.788C267.774 371.788 273.72 369.559 273.72 366.811C273.72 364.062 267.774 361.833 260.44 361.833C253.106 361.833 247.16 364.062 247.16 366.811C247.16 369.559 253.106 371.788 260.44 371.788Z" fill="#2F2E41"/>
<path d="M244.964 294.096C247.235 290.158 238.903 281.106 226.354 273.875C213.805 266.645 201.791 263.976 199.52 267.913C197.249 271.851 205.581 280.903 218.13 288.133C230.679 295.364 242.693 298.033 244.964 294.096Z" fill="#2F2E41"/>
<path d="M281.688 349.889C310.658 349.889 334.142 326.418 334.142 297.464C334.142 268.511 310.658 245.04 281.688 245.04C252.718 245.04 229.233 268.511 229.233 297.464C229.233 326.418 252.718 349.889 281.688 349.889Z" fill="#2F2E41"/>
<path d="M305.591 338.607H289.655V367.142H305.591V338.607Z" fill="#2F2E41"/>
<path d="M273.72 338.607H257.784V367.142H273.72V338.607Z" fill="#2F2E41"/>
<path d="M269.398 302.11C279.299 302.11 287.325 294.088 287.325 284.193C287.325 274.297 279.299 266.275 269.398 266.275C259.497 266.275 251.47 274.297 251.47 284.193C251.47 294.088 259.497 302.11 269.398 302.11Z" fill="white"/>
<path d="M265.078 285.965C267.42 283.627 267.435 279.848 265.112 277.525C262.789 275.201 259.007 275.213 256.666 277.551C254.324 279.889 254.309 283.668 256.632 285.991C258.955 288.315 262.737 288.303 265.078 285.965Z" fill="#3F3D56"/>
<path d="M265.685 332.5C268.685 331.674 267.332 325.293 265.685 322.5C263.5 318.793 259.548 316.162 257.206 318.5C254.865 320.838 254.883 328.35 257.206 330.674C259.529 332.998 262.685 333.326 265.685 332.5Z" fill="white"/>
<path d="M287.328 262.413C266.391 257.741 252.516 250.749 256.751 231.791C260.987 212.834 281.393 201.254 302.33 205.926C323.267 210.598 336.806 229.754 332.57 248.711C328.335 267.669 308.265 267.085 287.328 262.413Z" fill="#6C63FF"/>
<path d="M336.54 337.425C340.935 336.259 341.483 323.971 337.765 309.979C334.047 295.988 327.47 285.591 323.075 286.758C318.68 287.925 318.131 300.213 321.85 314.204C325.568 328.196 332.145 338.592 336.54 337.425Z" fill="#2F2E41"/>
<path d="M202.014 210.543H197.356C193.183 210.538 189.182 208.88 186.231 205.93C183.281 202.981 181.621 198.983 181.616 194.813V190.904C181.616 181.223 183.452 173.117 187.072 166.811C191.459 159.477 196.576 152.604 202.347 146.299C206.179 142.448 209.655 138.261 212.734 133.787C214.943 130.311 216.084 126.264 216.014 122.147C216.014 112.435 209.684 107.714 196.66 107.714C189.436 107.796 182.257 108.873 175.327 110.914C172.655 111.677 169.841 111.809 167.109 111.3C164.377 110.791 161.8 109.656 159.581 107.983C157.362 106.31 155.563 104.145 154.323 101.659C153.084 99.173 152.439 96.4333 152.438 93.6556V85.7434C152.423 82.3373 153.397 78.9999 155.241 76.1357C157.086 73.2716 159.722 71.0037 162.83 69.6069C175.07 64.3868 188.269 61.7917 201.574 61.9895C215.513 61.9895 228.096 64.3295 238.974 68.9436C249.873 73.5684 258.483 80.0898 264.566 88.3271C270.63 96.506 273.853 106.442 273.744 116.621C273.744 127.552 270.758 137.073 264.869 144.918C259.045 152.684 250.695 161.186 240.052 170.189C234.444 174.85 229.131 179.853 224.141 185.17C220.918 188.639 218.641 192.877 217.526 197.478C216.905 201.138 215.006 204.459 212.166 206.851C209.325 209.243 205.729 210.551 202.014 210.543Z" fill="#6C63FF"/>
<path d="M199.424 284.518H198.81C191.076 284.513 183.661 281.439 178.195 275.972C172.728 270.505 169.657 263.092 169.657 255.363C169.657 247.634 172.728 240.221 178.195 234.754C183.661 229.287 191.076 226.213 198.81 226.208H199.424C203.257 226.206 207.052 226.958 210.594 228.422C214.135 229.886 217.353 232.033 220.064 234.741C222.775 237.448 224.925 240.663 226.393 244.202C227.86 247.74 228.615 251.533 228.615 255.363C228.615 259.193 227.86 262.986 226.393 266.525C224.925 270.063 222.775 273.278 220.064 275.985C217.353 278.693 214.135 280.84 210.594 282.304C207.052 283.768 203.257 284.52 199.424 284.518Z" fill="#6C63FF"/>
<path d="M365.876 128.744C370.227 128.744 373.753 125.219 373.753 120.872C373.753 116.524 370.227 113 365.876 113C361.526 113 358 116.524 358 120.872C358 125.219 361.526 128.744 365.876 128.744Z" fill="#F2F2F2"/>
<path d="M83.5649 166.841C87.9149 166.841 91.4414 163.316 91.4414 158.969C91.4414 154.621 87.9149 151.097 83.5649 151.097C79.2148 151.097 75.6884 154.621 75.6884 158.969C75.6884 163.316 79.2148 166.841 83.5649 166.841Z" fill="#F2F2F2"/>
<path d="M323.741 141.359H321.395V139.014C321.395 138.215 321.078 137.448 320.512 136.883C319.946 136.318 319.179 136 318.379 136C317.579 136 316.812 136.318 316.246 136.883C315.68 137.448 315.363 138.215 315.363 139.014V141.359H313.016C312.216 141.359 311.449 141.676 310.883 142.242C310.318 142.807 310 143.574 310 144.373C310 145.172 310.318 145.939 310.883 146.504C311.449 147.07 312.216 147.387 313.016 147.387H315.363V149.732C315.363 150.531 315.68 151.298 316.246 151.863C316.812 152.428 317.579 152.746 318.379 152.746C319.179 152.746 319.946 152.428 320.512 151.863C321.078 151.298 321.395 150.531 321.395 149.732V147.387H323.741C324.541 147.387 325.309 147.07 325.874 146.504C326.44 145.939 326.758 145.172 326.758 144.373C326.758 143.574 326.44 142.807 325.874 142.242C325.309 141.676 324.541 141.359 323.741 141.359Z" fill="#6C63FF" fill-opacity="0.7"/>
<path d="M109.741 33.3587H107.395V31.0143C107.395 30.2148 107.078 29.4481 106.512 28.8828C105.946 28.3176 105.179 28 104.379 28C103.579 28 102.812 28.3176 102.246 28.8828C101.68 29.4481 101.363 30.2148 101.363 31.0143V33.3587H99.0164C98.2164 33.3587 97.4492 33.6763 96.8835 34.2416C96.3178 34.8069 96 35.5736 96 36.373C96 37.1725 96.3178 37.9392 96.8835 38.5045C97.4492 39.0697 98.2164 39.3873 99.0164 39.3873H101.363V41.7317C101.363 42.5312 101.68 43.2979 102.246 43.8632C102.812 44.4285 103.579 44.746 104.379 44.746C105.179 44.746 105.946 44.4285 106.512 43.8632C107.078 43.2979 107.395 42.5312 107.395 41.7317V39.3873H109.741C110.541 39.3873 111.309 39.0697 111.874 38.5045C112.44 37.9392 112.758 37.1725 112.758 36.373C112.758 35.5736 112.44 34.8069 111.874 34.2416C111.309 33.6763 110.541 33.3587 109.741 33.3587Z" fill="#6C63FF" fill-opacity="0.7"/>
</svg>
