<svg width="592" height="592" viewBox="0 0 592 592" fill="none" xmlns="http://www.w3.org/2000/svg">
<rect width="592" height="592" />
<path d="M145.145 377.5C178.217 360.368 257.35 344 343.645 344C429.941 344 487.574 360.368 520.645 377.5C544.28 389.743 569.145 401.5 582.145 408.5C582.145 355 557.127 290.5 527.145 242C493.145 187 457.145 131.066 433.645 115.5C376.881 77.9004 348.748 56.9433 280.645 57.0001C271.145 57.0001 221.645 62 198.645 67.0002C175.645 72.0004 142.645 82.5 125.145 92C107.645 101.5 72.2546 141 60.1454 153.5C21.9259 192.953 11.1455 298.5 16.1455 320C25.8147 361.578 25.1424 394 65.1454 419C78.8241 408.825 129.97 385.273 145.145 377.5Z" fill="#F2F2F2"/>
<path d="M91.3838 256.868C93.9752 256.868 96.076 254.769 96.076 252.179C96.076 249.59 93.9752 247.491 91.3838 247.491C88.7924 247.491 86.6916 249.59 86.6916 252.179C86.6916 254.769 88.7924 256.868 91.3838 256.868Z" fill="white"/>
<path d="M419.838 325.192C422.429 325.192 424.53 323.093 424.53 320.503C424.53 317.914 422.429 315.814 419.838 315.814C417.246 315.814 415.146 317.914 415.146 320.503C415.146 323.093 417.246 325.192 419.838 325.192Z" fill="white"/>
<path d="M129.257 334.57H126.91V332.225C126.91 331.426 126.593 330.659 126.027 330.094C125.461 329.529 124.694 329.211 123.894 329.211C123.094 329.211 122.327 329.529 121.761 330.094C121.195 330.659 120.878 331.426 120.878 332.225V334.57H118.531C117.731 334.57 116.964 334.887 116.399 335.453C115.833 336.018 115.515 336.785 115.515 337.584C115.515 338.384 115.833 339.15 116.399 339.716C116.964 340.281 117.731 340.598 118.531 340.598H120.878V342.943C120.878 343.742 121.195 344.509 121.761 345.074C122.327 345.64 123.094 345.957 123.894 345.957C124.694 345.957 125.461 345.64 126.027 345.074C126.593 344.509 126.91 343.742 126.91 342.943V340.598H129.257C130.057 340.598 130.824 340.281 131.389 339.716C131.955 339.15 132.273 338.384 132.273 337.584C132.273 336.785 131.955 336.018 131.389 335.453C130.824 334.887 130.057 334.57 129.257 334.57Z" fill="white"/>
<path d="M474.576 277.071H473.356V275.852C473.356 275.436 473.19 275.037 472.896 274.743C472.602 274.449 472.203 274.284 471.787 274.284C471.371 274.284 470.972 274.449 470.678 274.743C470.384 275.037 470.219 275.436 470.219 275.852V277.071H468.999C468.583 277.071 468.184 277.236 467.89 277.53C467.595 277.824 467.43 278.223 467.43 278.638C467.43 279.054 467.595 279.453 467.89 279.747C468.184 280.041 468.583 280.206 468.999 280.206H470.219V281.425C470.219 281.841 470.384 282.239 470.678 282.533C470.972 282.827 471.371 282.992 471.787 282.992C472.203 282.992 472.602 282.827 472.896 282.533C473.19 282.239 473.356 281.841 473.356 281.425V280.206H474.576C474.992 280.206 475.391 280.041 475.685 279.747C475.979 279.453 476.144 279.054 476.144 278.638C476.144 278.223 475.979 277.824 475.685 277.53C475.391 277.236 474.992 277.071 474.576 277.071V277.071Z" fill="#FF6584"/>
<path d="M118.639 196.02H117.419V194.801C117.419 194.595 117.378 194.391 117.299 194.201C117.221 194.011 117.105 193.838 116.959 193.692C116.814 193.547 116.641 193.431 116.451 193.353C116.26 193.274 116.056 193.233 115.85 193.233C115.644 193.233 115.44 193.274 115.25 193.353C115.06 193.431 114.887 193.547 114.741 193.692C114.595 193.838 114.48 194.011 114.401 194.201C114.322 194.391 114.282 194.595 114.282 194.801V196.02H113.062C112.646 196.02 112.247 196.185 111.953 196.479C111.658 196.773 111.493 197.172 111.493 197.587C111.493 198.003 111.658 198.402 111.953 198.696C112.247 198.99 112.646 199.155 113.062 199.155H114.282V200.374C114.282 200.58 114.322 200.784 114.401 200.974C114.48 201.164 114.595 201.337 114.741 201.482C114.887 201.628 115.06 201.743 115.25 201.822C115.44 201.901 115.644 201.941 115.85 201.941C116.056 201.941 116.26 201.901 116.451 201.822C116.641 201.743 116.814 201.628 116.959 201.482C117.105 201.337 117.221 201.164 117.299 200.974C117.378 200.784 117.419 200.58 117.419 200.374V199.155H118.639C119.055 199.155 119.454 198.99 119.748 198.696C120.042 198.402 120.207 198.003 120.207 197.587C120.207 197.172 120.042 196.773 119.748 196.479C119.454 196.185 119.055 196.02 118.639 196.02V196.02Z" fill="#6C63FF"/>
<path d="M209.131 196.02H207.911V194.801C207.911 194.385 207.746 193.986 207.452 193.692C207.158 193.399 206.759 193.233 206.343 193.233C205.927 193.233 205.528 193.399 205.234 193.692C204.94 193.986 204.774 194.385 204.774 194.801V196.02H203.554C203.138 196.02 202.739 196.185 202.445 196.479C202.151 196.773 201.986 197.172 201.986 197.587C201.986 198.003 202.151 198.402 202.445 198.696C202.739 198.99 203.138 199.155 203.554 199.155H204.774V200.374C204.774 200.79 204.94 201.188 205.234 201.482C205.528 201.776 205.927 201.941 206.343 201.941C206.759 201.941 207.158 201.776 207.452 201.482C207.746 201.188 207.911 200.79 207.911 200.374V199.155H209.131C209.547 199.155 209.946 198.99 210.24 198.696C210.535 198.402 210.7 198.003 210.7 197.587C210.7 197.172 210.535 196.773 210.24 196.479C209.946 196.185 209.547 196.02 209.131 196.02V196.02Z" fill="white"/>
<path d="M520.827 356.782H519.607V355.563C519.607 355.147 519.442 354.748 519.148 354.454C518.854 354.16 518.455 353.995 518.039 353.995C517.623 353.995 517.224 354.16 516.93 354.454C516.636 354.748 516.47 355.147 516.47 355.563V356.782H515.25C514.834 356.782 514.435 356.947 514.141 357.241C513.847 357.535 513.682 357.933 513.682 358.349C513.682 358.765 513.847 359.163 514.141 359.457C514.435 359.751 514.834 359.917 515.25 359.917H516.47V361.136C516.47 361.551 516.636 361.95 516.93 362.244C517.224 362.538 517.623 362.703 518.039 362.703C518.455 362.703 518.854 362.538 519.148 362.244C519.442 361.95 519.607 361.551 519.607 361.136V359.917H520.827C521.243 359.917 521.642 359.751 521.936 359.457C522.231 359.163 522.396 358.765 522.396 358.349C522.396 357.933 522.231 357.535 521.936 357.241C521.642 356.947 521.243 356.782 520.827 356.782V356.782Z" fill="white"/>
<path d="M380.061 226.163H378.841V224.944C378.841 224.528 378.676 224.129 378.382 223.835C378.088 223.541 377.689 223.376 377.273 223.376C376.857 223.376 376.458 223.541 376.164 223.835C375.87 224.129 375.704 224.528 375.704 224.944V226.163H374.484C374.068 226.163 373.669 226.328 373.375 226.622C373.081 226.916 372.916 227.315 372.916 227.73C372.916 228.146 373.081 228.545 373.375 228.839C373.669 229.133 374.068 229.298 374.484 229.298H375.704V230.517C375.704 230.933 375.87 231.331 376.164 231.625C376.458 231.919 376.857 232.084 377.273 232.084C377.689 232.084 378.088 231.919 378.382 231.625C378.676 231.331 378.841 230.933 378.841 230.517V229.298H380.061C380.477 229.298 380.876 229.133 381.17 228.839C381.465 228.545 381.63 228.146 381.63 227.73C381.63 227.315 381.465 226.916 381.17 226.622C380.876 226.328 380.477 226.163 380.061 226.163V226.163Z" fill="white"/>
<path d="M164.891 259.655H163.671V258.436C163.671 258.02 163.505 257.621 163.211 257.327C162.917 257.033 162.518 256.868 162.102 256.868C161.686 256.868 161.287 257.033 160.993 257.327C160.699 257.621 160.534 258.02 160.534 258.436V259.655H159.314C158.898 259.655 158.499 259.82 158.204 260.114C157.91 260.408 157.745 260.807 157.745 261.222C157.745 261.638 157.91 262.037 158.204 262.331C158.499 262.625 158.898 262.79 159.314 262.79H160.534V264.009C160.534 264.424 160.699 264.823 160.993 265.117C161.287 265.411 161.686 265.576 162.102 265.576C162.518 265.576 162.917 265.411 163.211 265.117C163.505 264.823 163.671 264.424 163.671 264.009V262.79H164.891C165.307 262.79 165.706 262.625 166 262.331C166.294 262.037 166.459 261.638 166.459 261.222C166.459 260.807 166.294 260.408 166 260.114C165.706 259.82 165.307 259.655 164.891 259.655V259.655Z" fill="white"/>
<path d="M274.583 496C304.13 496 328.083 472.047 328.083 442.5C328.083 412.953 304.13 389 274.583 389C245.035 389 221.083 412.953 221.083 442.5C221.083 472.047 245.035 496 274.583 496Z" fill="#2F2E41"/>
<path d="M254.664 477.759L228.74 490.748L235.986 505.224L261.91 492.236L254.664 477.759Z" fill="#2F2E41"/>
<path d="M239.403 503.755C240.941 501.422 237.147 496.206 230.929 492.105C224.711 488.003 218.424 486.569 216.887 488.902C215.349 491.235 219.144 496.451 225.361 500.552C231.579 504.654 237.866 506.088 239.403 503.755Z" fill="#2F2E41"/>
<path d="M295.175 477.759L287.929 492.236L313.854 505.224L321.1 490.748L295.175 477.759Z" fill="#2F2E41"/>
<path d="M324.478 500.552C330.696 496.451 334.49 491.234 332.953 488.902C331.415 486.569 325.128 488.003 318.911 492.104C312.693 496.206 308.898 501.422 310.436 503.755C311.973 506.088 318.26 504.654 324.478 500.552Z" fill="#2F2E41"/>
<path d="M270.583 448C280.8 448 289.083 439.717 289.083 429.5C289.083 419.283 280.8 411 270.583 411C260.365 411 252.083 419.283 252.083 429.5C252.083 439.717 260.365 448 270.583 448Z" fill="white"/>
<path d="M260.687 429.605C267.11 424.713 274.369 431.973 269.478 438.395C263.056 443.287 255.796 436.027 260.687 429.605Z" fill="#3F3D56"/>
<path d="M316.056 384.116C316.848 364.516 300.042 347.915 278.518 347.036C256.995 346.158 238.905 361.334 238.113 380.934C237.321 400.534 252.282 404.987 273.806 405.866C295.329 406.745 315.264 403.716 316.056 384.116Z" fill="#CCCCCC"/>
<path d="M347.644 470.652C351.148 467.642 346.221 456.151 336.64 444.985C327.059 433.819 316.451 427.206 312.948 430.216C309.444 433.225 314.371 444.716 323.952 455.882C333.533 467.048 344.141 473.661 347.644 470.652Z" fill="#2F2E41"/>
<path d="M226.036 455.882C235.618 444.716 240.544 433.225 237.041 430.216C233.537 427.206 222.93 433.819 213.348 444.985C203.767 456.151 198.84 467.642 202.344 470.652C205.848 473.661 216.455 467.049 226.036 455.882Z" fill="#2F2E41"/>
<path d="M289.887 463.436C290.171 465.031 290.146 466.668 289.814 468.254C289.482 469.839 288.849 471.342 287.952 472.676C287.055 474.01 285.911 475.149 284.585 476.029C283.259 476.908 281.778 477.51 280.225 477.8C278.673 478.091 277.08 478.064 275.538 477.721C273.996 477.379 272.535 476.727 271.238 475.804C269.941 474.88 268.833 473.703 267.979 472.34C267.125 470.976 266.541 469.453 266.259 467.857L266.255 467.833C265.074 461.125 270.119 458.752 276.645 457.537C283.171 456.323 288.705 456.728 289.887 463.436Z" fill="white"/>
<path d="M333.462 288.841C348.394 286.704 359.957 281.172 359.288 276.485C358.619 271.799 345.971 269.733 331.038 271.87C316.105 274.007 304.543 279.539 305.212 284.225C305.881 288.912 318.529 290.978 333.462 288.841Z" fill="#2F2E41"/>
<path d="M328.042 296.802C332.873 267.02 312.657 238.959 282.889 234.126C253.121 229.293 225.074 249.518 220.243 279.3C215.412 309.082 235.628 337.143 265.396 341.976C295.164 346.809 323.211 326.584 328.042 296.802Z" fill="#2F2E41"/>
<path d="M266.083 330H249.083V360H266.083V330Z" fill="#2F2E41"/>
<path d="M299.083 330H282.083V360H299.083V330Z" fill="#2F2E41"/>
<path d="M263.083 366C270.815 366 277.083 363.538 277.083 360.5C277.083 357.462 270.815 355 263.083 355C255.351 355 249.083 357.462 249.083 360.5C249.083 363.538 255.351 366 263.083 366Z" fill="#2F2E41"/>
<path d="M296.083 366C303.815 366 310.083 363.538 310.083 360.5C310.083 357.462 303.815 355 296.083 355C288.351 355 282.083 357.462 282.083 360.5C282.083 363.538 288.351 366 296.083 366Z" fill="#2F2E41"/>
<path d="M296.751 310.875C307.053 310.572 315.16 301.971 314.857 291.663C314.554 281.356 305.957 273.246 295.654 273.548C285.352 273.851 277.245 282.453 277.548 292.76C277.851 303.067 286.448 311.178 296.751 310.875Z" fill="white"/>
<path d="M300.083 301C303.396 301 306.083 298.09 306.083 294.5C306.083 290.91 303.396 288 300.083 288C296.769 288 294.083 290.91 294.083 294.5C294.083 298.09 296.769 301 300.083 301Z" fill="#3F3D56"/>
<path d="M237.895 250.811C233.46 230.992 247.637 210.967 269.56 206.082C291.483 201.198 312.85 213.304 317.285 233.122C321.72 252.94 307.191 260.25 285.268 265.134C263.345 270.019 242.33 270.629 237.895 250.811Z" fill="#6C63FF"/>
<path d="M233.668 292.071C229.247 290.375 221.28 300.412 215.873 314.489C210.466 328.567 209.667 341.354 214.088 343.05C218.509 344.746 226.477 334.709 231.883 320.632C237.29 306.555 238.089 293.768 233.668 292.071Z" fill="#2F2E41"/>
<path d="M256.565 499.031L216.893 506.916C216.251 507.046 215.588 507.025 214.954 506.854C214.321 506.684 213.734 506.368 213.239 505.932C212.733 505.491 212.334 504.937 212.07 504.315C211.806 503.692 211.685 503.016 211.716 502.339C212.393 485.774 209.231 469.279 202.486 454.19C202.207 453.574 202.069 452.902 202.084 452.224C202.098 451.545 202.265 450.88 202.57 450.277C202.868 449.683 203.295 449.166 203.819 448.766C204.342 448.365 204.949 448.092 205.592 447.966L245.264 440.081C246.278 439.881 247.329 440.055 248.229 440.57C249.13 441.086 249.821 441.91 250.18 442.896C256.049 459.495 259.387 476.912 260.081 494.54C260.112 495.591 259.776 496.619 259.132 497.442C258.488 498.264 257.578 498.827 256.565 499.031V499.031Z" fill="#6C63FF"/>
<path d="M383.909 239.464C385.036 235.017 384.847 230.338 383.365 225.994C381.883 221.651 379.172 217.832 375.561 215C371.95 212.169 367.596 210.449 363.027 210.048C358.459 209.647 353.874 210.584 349.83 212.744C345.786 214.903 342.458 218.193 340.25 222.213C338.042 226.232 337.05 230.808 337.394 235.384C337.738 239.96 339.404 244.338 342.189 247.985C344.973 251.633 348.757 254.393 353.079 255.929L343.747 292.744C343.605 293.304 343.691 293.898 343.986 294.395C344.281 294.892 344.762 295.252 345.322 295.395C345.882 295.538 346.475 295.453 346.972 295.159C347.469 294.864 347.828 294.384 347.971 293.824L347.972 293.82L357.304 257.005C363.129 257.927 369.085 256.639 374.006 253.394C378.928 250.149 382.46 245.181 383.909 239.464V239.464ZM356.791 250.553C353.394 249.688 350.328 247.835 347.982 245.227C345.635 242.62 344.114 239.375 343.61 235.904C343.106 232.433 343.641 228.891 345.149 225.726C346.657 222.561 349.069 219.915 352.081 218.124C355.092 216.332 358.568 215.474 362.068 215.659C365.569 215.845 368.936 217.064 371.746 219.164C374.555 221.264 376.679 224.15 377.85 227.456C379.021 230.763 379.187 234.342 378.325 237.741V237.741C377.17 242.299 374.252 246.209 370.214 248.612C366.175 251.015 361.347 251.713 356.791 250.553V250.553Z" fill="#3F3D56"/>
<path d="M265.48 316.395C264.982 319.134 271.155 325.841 279.096 327.284C287.036 328.727 295.881 322.37 296.379 319.631C296.876 316.893 288.837 318.81 280.897 317.367C272.957 315.925 265.978 313.657 265.48 316.395Z" fill="white"/>
</svg>
