<svg width="582" height="562" viewBox="0 0 582 562" fill="none" xmlns="http://www.w3.org/2000/svg">
<rect width="582" height="562" />
<path d="M351.208 400.937C387.549 364.617 387.549 305.732 351.208 269.412C314.867 233.093 255.947 233.093 219.607 269.412C183.266 305.732 183.266 364.617 219.607 400.937C255.947 437.256 314.867 437.256 351.208 400.937Z" fill="#2F2E41"/>
<path d="M284.889 343.73C302.039 339.936 312.864 322.966 309.068 305.826C305.272 288.686 288.292 277.867 271.142 281.661C253.992 285.455 243.167 302.425 246.963 319.565C250.759 336.705 267.739 347.524 284.889 343.73Z" fill="white"/>
<path d="M267.424 314.832C273.14 313.567 276.749 307.91 275.483 302.197C274.218 296.484 268.558 292.877 262.841 294.142C257.125 295.407 253.516 301.063 254.782 306.777C256.047 312.49 261.707 316.096 267.424 314.832Z" fill="#3F3D56"/>
<path d="M281.795 271.999C243.688 271.93 216.936 265.175 217 230.912C217.064 196.649 248.008 168.93 286.116 169C324.223 169.07 355.064 196.902 355 231.165C354.936 265.428 319.903 272.069 281.795 271.999Z" fill="#6C63FF"/>
<path d="M431.242 350.496C420.349 388.244 388.54 414.668 355.361 437.114C350.728 440.249 346.093 443.312 341.458 446.302C341.426 446.316 341.394 446.345 341.362 446.359C341.139 446.502 340.916 446.646 340.708 446.79C339.751 447.406 338.794 448.022 337.845 448.631L338.366 448.865C338.366 448.865 338.878 449.137 338.318 448.909C338.152 448.839 337.977 448.777 337.811 448.707C318.535 440.941 298.918 432.604 284.146 418.058C268.822 402.952 259.867 379.259 268.165 359.415C269.255 356.815 270.633 354.346 272.272 352.051C272.945 351.089 273.67 350.169 274.425 349.265C279.002 343.685 284.984 339.424 291.756 336.919C298.529 334.415 305.847 333.757 312.958 335.013C320.069 336.27 326.717 339.396 332.218 344.07C337.719 348.743 341.874 354.796 344.256 361.606C346.694 338.936 327.979 319.946 309.969 305.935C291.951 291.93 271.477 276.679 267.994 254.135C266.048 241.592 270.415 229.436 278.37 219.678C278.616 219.382 278.862 219.086 279.116 218.797C288.799 207.432 302.419 200.134 317.254 198.361C344.883 195.492 371.72 210.1 391.791 229.287C424.096 260.159 443.626 307.577 431.242 350.496Z" fill="#E6E6E6"/>
<path d="M378.866 301.333C384.159 309.564 388.224 318.521 390.931 327.924C393.22 336.327 394.238 345.026 393.953 353.731C393.215 371.643 388.182 389.116 379.279 404.68C372.573 416.488 364.4 427.401 354.954 437.161C350.329 440.292 345.702 443.351 341.074 446.337C341.043 446.351 341.01 446.38 340.979 446.394C340.756 446.537 340.533 446.681 340.325 446.825C339.37 447.44 338.415 448.055 337.467 448.664C337.467 448.664 338.499 449.169 337.94 448.941C337.773 448.871 337.599 448.809 337.433 448.739C339.158 434.609 337.468 420.271 332.505 406.928C327.543 393.584 319.452 381.624 308.911 372.048C298.344 362.619 285.697 355.818 272 352.201C272.672 351.24 273.396 350.32 274.149 349.418C279.439 350.9 284.588 352.847 289.534 355.235C307.217 363.721 321.697 377.67 330.829 395.018C339.023 410.771 342.55 428.532 340.995 446.218C341.786 445.502 342.577 444.771 343.345 444.046C357.969 430.423 370.957 414.785 379.748 396.738C387.374 381.455 391.122 364.532 390.662 347.46C389.945 328.846 382.522 311.604 371.776 296.594C359.998 280.58 346.083 266.251 330.42 254.004C314.634 241.371 297.361 230.714 278.985 222.274C278.571 222.08 278.247 221.735 278.08 221.31C277.913 220.884 277.916 220.411 278.088 219.988C278.211 219.608 278.478 219.292 278.833 219.108C279.015 219.029 279.213 218.993 279.412 219.001C279.61 219.01 279.804 219.063 279.979 219.156C282.248 220.2 284.501 221.258 286.736 222.362C305.351 231.556 322.752 243.025 338.537 256.506C353.785 269.496 368.14 284.337 378.866 301.333Z" fill="white"/>
<path d="M266.223 393.511C291.914 393.009 312.614 386.068 312.456 378.007C312.298 369.946 291.343 363.819 265.651 364.321C239.959 364.823 219.26 371.765 219.418 379.825C219.575 387.886 240.531 394.014 266.223 393.511Z" fill="#2F2E41"/>
<path d="M435 212C442.732 212 449 205.732 449 198C449 190.268 442.732 184 435 184C427.268 184 421 190.268 421 198C421 205.732 427.268 212 435 212Z" fill="#F2F2F2"/>
<path d="M405.6 104.28H401.4V100.22C401.4 98.8356 400.831 97.5078 399.818 96.5289C398.806 95.5499 397.432 95 396 95C394.568 95 393.194 95.5499 392.182 96.5289C391.169 97.5078 390.6 98.8356 390.6 100.22V104.28H386.4C384.968 104.28 383.594 104.83 382.582 105.809C381.569 106.788 381 108.116 381 109.5C381 110.884 381.569 112.212 382.582 113.191C383.594 114.17 384.968 114.72 386.4 114.72H390.6V118.78C390.6 120.164 391.169 121.492 392.182 122.471C393.194 123.45 394.568 124 396 124C397.432 124 398.806 123.45 399.818 122.471C400.831 121.492 401.4 120.164 401.4 118.78V114.72H405.6C407.032 114.72 408.406 114.17 409.418 113.191C410.431 112.212 411 110.884 411 109.5C411 108.116 410.431 106.788 409.418 105.809C408.406 104.83 407.032 104.28 405.6 104.28Z" fill="#FFB8B8"/>
<path d="M120.419 281.522L116.441 282.869L115.138 279.023C114.694 277.712 113.73 276.637 112.457 276.034C111.183 275.432 109.706 275.351 108.35 275.811C106.993 276.27 105.868 277.232 105.223 278.484C104.578 279.736 104.465 281.176 104.909 282.487L106.211 286.332L102.233 287.68C100.876 288.139 99.7519 289.1 99.1067 290.352C98.4614 291.604 98.3484 293.044 98.7924 294.356C99.2364 295.667 100.201 296.742 101.474 297.345C102.747 297.947 104.225 298.027 105.581 297.568L109.559 296.221L110.862 300.067C111.306 301.378 112.27 302.453 113.543 303.055C114.817 303.658 116.294 303.738 117.65 303.279C119.007 302.82 120.132 301.858 120.777 300.606C121.422 299.354 121.535 297.914 121.091 296.603L119.789 292.757L123.767 291.41C125.124 290.951 126.248 289.989 126.893 288.737C127.539 287.485 127.652 286.045 127.208 284.734C126.764 283.423 125.799 282.348 124.526 281.745C123.253 281.143 121.775 281.062 120.419 281.522Z" fill="#FFB8B8"/>
</svg>
