<svg width="400" height="400" viewBox="0 0 400 400" fill="none" xmlns="http://www.w3.org/2000/svg">
<rect width="400" height="400" />
<path d="M263.855 296.742C288.865 271.746 288.865 231.22 263.855 206.225C238.845 181.229 198.295 181.229 173.285 206.225C148.275 231.22 148.275 271.746 173.285 296.742C198.295 321.737 238.845 321.737 263.855 296.742Z" fill="#2F2E41"/>
<path d="M218.213 257.371C230.016 254.76 237.466 243.081 234.853 231.285C232.241 219.489 220.555 212.043 208.752 214.654C196.949 217.265 189.499 228.945 192.112 240.74C194.724 252.536 206.41 259.982 218.213 257.371Z" fill="white"/>
<path d="M206.193 237.483C210.127 236.613 212.611 232.719 211.74 228.788C210.869 224.856 206.974 222.374 203.039 223.244C199.105 224.114 196.622 228.007 197.493 231.939C198.364 235.871 202.259 238.353 206.193 237.483Z" fill="#3F3D56"/>
<path d="M216.16 208C189.927 207.952 171.511 203.361 171.555 180.076C171.599 156.791 192.901 137.953 219.134 138C245.368 138.048 266.599 156.963 266.555 180.248C266.511 203.533 242.394 208.047 216.16 208Z" fill="#6C63FF"/>
<path d="M317.991 262.714C310.557 288.882 288.853 307.2 266.213 322.76C263.052 324.934 259.889 327.057 256.726 329.13C256.705 329.139 256.683 329.16 256.661 329.169C256.509 329.269 256.356 329.368 256.214 329.468C255.562 329.895 254.908 330.322 254.261 330.744L254.617 330.906C254.617 330.906 254.966 331.095 254.584 330.937C254.47 330.888 254.351 330.845 254.238 330.797C241.085 325.414 227.699 319.634 217.619 309.55C207.163 299.078 201.053 282.654 206.714 268.897C207.459 267.095 208.399 265.383 209.517 263.793C209.976 263.126 210.471 262.488 210.986 261.861C214.109 257.993 218.191 255.039 222.812 253.303C227.433 251.566 232.427 251.11 237.279 251.981C242.132 252.853 246.668 255.02 250.421 258.26C254.175 261.499 257.01 265.695 258.636 270.416C260.299 254.7 247.529 241.536 235.24 231.823C222.945 222.115 208.975 211.543 206.598 195.914C205.27 187.219 208.25 178.792 213.678 172.028C213.846 171.822 214.014 171.617 214.187 171.417C220.794 163.538 230.088 158.479 240.211 157.25C259.063 155.262 277.375 165.388 291.071 178.689C313.115 200.09 326.441 232.962 317.991 262.714Z" fill="#E6E6E6"/>
<path d="M282.134 228.275C285.779 234.001 288.578 240.232 290.442 246.773C292.018 252.619 292.719 258.67 292.523 264.726C292.014 277.186 288.549 289.341 282.419 300.169C277.802 308.383 272.174 315.975 265.671 322.764C262.486 324.942 259.301 327.07 256.114 329.148C256.092 329.157 256.07 329.178 256.048 329.187C255.895 329.287 255.741 329.387 255.599 329.487C254.941 329.915 254.283 330.343 253.631 330.766C253.631 330.766 254.341 331.117 253.956 330.959C253.841 330.911 253.721 330.867 253.607 330.818C254.795 320.989 253.631 311.015 250.214 301.732C246.798 292.45 241.227 284.13 233.969 277.468C226.693 270.909 217.985 266.178 208.555 263.662C209.018 262.993 209.516 262.353 210.035 261.725C213.677 262.757 217.222 264.111 220.628 265.772C232.803 271.675 242.772 281.379 249.06 293.447C254.702 304.406 257.13 316.762 256.06 329.065C256.604 328.567 257.149 328.058 257.678 327.554C267.747 318.077 276.69 307.198 282.742 294.644C287.993 284.012 290.573 272.24 290.257 260.364C289.763 247.414 284.652 235.42 277.253 224.978C269.143 213.838 259.563 203.87 248.778 195.351C237.91 186.562 226.017 179.149 213.364 173.277C213.079 173.143 212.856 172.903 212.741 172.607C212.626 172.311 212.628 171.982 212.747 171.687C212.831 171.423 213.015 171.203 213.26 171.075C213.385 171.02 213.521 170.995 213.658 171.001C213.795 171.007 213.928 171.044 214.049 171.109C215.611 171.835 217.162 172.571 218.701 173.339C231.518 179.735 243.499 187.713 254.367 197.091C264.866 206.128 274.749 216.452 282.134 228.275Z" fill="white"/>
<path d="M205.367 291.631C223.048 291.286 237.294 286.508 237.185 280.961C237.077 275.413 222.655 271.196 204.973 271.542C187.292 271.888 173.046 276.665 173.155 282.212C173.263 287.76 187.685 291.977 205.367 291.631Z" fill="#2F2E41"/>
<path d="M321.555 167C327.078 167 331.555 162.747 331.555 157.5C331.555 152.253 327.078 148 321.555 148C316.032 148 311.555 152.253 311.555 157.5C311.555 162.747 316.032 167 321.555 167Z" fill="#F2F2F2"/>
<path d="M357.883 54.5141L354.027 52.8488L355.637 49.1216C356.186 47.8506 356.19 46.4061 355.648 45.1059C355.107 43.8057 354.064 42.7562 352.749 42.1884C351.434 41.6205 349.955 41.5808 348.637 42.078C347.32 42.5752 346.271 43.5686 345.722 44.8395L344.112 48.5668L340.256 46.9015C338.942 46.3337 337.463 46.294 336.145 46.7912C334.827 47.2884 333.778 48.2817 333.229 49.5527C332.68 50.8236 332.676 52.2682 333.218 53.5684C333.759 54.8686 334.802 55.918 336.117 56.4859L339.973 58.1511L338.363 61.8784C337.814 63.1493 337.81 64.5938 338.352 65.8941C338.893 67.1943 339.936 68.2437 341.251 68.8116C342.566 69.3794 344.045 69.4191 345.363 68.9219C346.68 68.4247 347.729 67.4314 348.278 66.1604L349.888 62.4332L353.743 64.0984C355.058 64.6662 356.537 64.706 357.855 64.2088C359.173 63.7116 360.222 62.7182 360.771 61.4473C361.319 60.1763 361.324 58.7318 360.782 57.4316C360.24 56.1313 359.198 55.0819 357.883 54.5141Z" fill="#6C63FF" fill-opacity="0.7"/>
<path d="M84.5749 270.563L82.346 269.601L83.2765 267.446C83.5938 266.711 83.5962 265.876 83.2832 265.125C82.9701 264.373 82.3672 263.766 81.6072 263.438C80.8471 263.11 79.9922 263.087 79.2304 263.374C78.4686 263.662 77.8623 264.236 77.545 264.971L76.6145 267.125L74.3855 266.163C73.6255 265.834 72.7705 265.811 72.0087 266.099C71.2469 266.386 70.6406 266.96 70.3233 267.695C70.006 268.43 70.0036 269.265 70.3167 270.016C70.6298 270.768 71.2326 271.375 71.9927 271.703L74.2216 272.666L73.2911 274.82C72.9738 275.555 72.9714 276.39 73.2844 277.142C73.5975 277.893 74.2004 278.5 74.9604 278.828C75.7205 279.156 76.5754 279.179 77.3372 278.892C78.099 278.605 78.7053 278.03 79.0226 277.296L79.9532 275.141L82.1821 276.104C82.9421 276.432 83.7971 276.455 84.5589 276.167C85.3207 275.88 85.927 275.306 86.2443 274.571C86.5616 273.836 86.564 273.001 86.2509 272.25C85.9378 271.498 85.335 270.891 84.5749 270.563Z" fill="#6C63FF" fill-opacity="0.7"/>
<path d="M33.5 243C39.299 243 44 238.299 44 232.5C44 226.701 39.299 222 33.5 222C27.701 222 23 226.701 23 232.5C23 238.299 27.701 243 33.5 243Z" fill="#F2F2F2"/>
<path d="M371 120C373.209 120 375 118.209 375 116C375 113.791 373.209 112 371 112C368.791 112 367 113.791 367 116C367 118.209 368.791 120 371 120Z" fill="#CCCCCC"/>
</svg>
