<svg width="580" height="538" viewBox="0 0 580 538" fill="none" xmlns="http://www.w3.org/2000/svg">
<rect width="580" height="538"/>
<path d="M125.897 427.284C158.969 410.152 227.335 381.411 313.631 381.411C399.927 381.411 468.294 410.152 501.366 427.284C525 439.527 531 445.5 543.5 456.5C533 408.5 484.866 327 467 295.5C433 240.5 388.5 191.158 369.5 168.158C312.735 130.558 300.505 111.944 232.402 112.001C208.179 111.935 184.183 116.67 161.803 125.934C139.423 135.197 119.105 148.804 102.023 165.968C101.297 166.693 115.712 167.423 115 168.158C76.7804 207.611 68.0012 267.862 63 321C59 363.5 60.5 419.5 72 460.5C85.6786 450.325 110.722 435.057 125.897 427.284Z" fill="#F2F2F2"/>
<path d="M79.7353 290.368C82.3267 290.368 84.4275 288.269 84.4275 285.679C84.4275 283.09 82.3267 280.99 79.7353 280.99C77.1439 280.99 75.0431 283.09 75.0431 285.679C75.0431 288.269 77.1439 290.368 79.7353 290.368Z" fill="white"/>
<path d="M408.189 358.692C410.781 358.692 412.882 356.593 412.882 354.003C412.882 351.414 410.781 349.314 408.189 349.314C405.598 349.314 403.497 351.414 403.497 354.003C403.497 356.593 405.598 358.692 408.189 358.692Z" fill="white"/>
<path d="M117.608 368.07H115.262V365.725C115.262 364.926 114.944 364.159 114.378 363.594C113.813 363.029 113.046 362.711 112.246 362.711C111.446 362.711 110.678 363.029 110.113 363.594C109.547 364.159 109.229 364.926 109.229 365.725V368.07H106.883C106.083 368.07 105.316 368.387 104.75 368.953C104.184 369.518 103.867 370.285 103.867 371.084C103.867 371.884 104.184 372.65 104.75 373.216C105.316 373.781 106.083 374.098 106.883 374.098H109.229V376.443C109.229 377.242 109.547 378.009 110.113 378.574C110.678 379.14 111.446 379.457 112.246 379.457C113.046 379.457 113.813 379.14 114.378 378.574C114.944 378.009 115.262 377.242 115.262 376.443V374.098H117.608C118.408 374.098 119.175 373.781 119.741 373.216C120.307 372.65 120.624 371.884 120.624 371.084C120.624 370.285 120.307 369.518 119.741 368.953C119.175 368.387 118.408 368.07 117.608 368.07Z" fill="white"/>
<path d="M462.927 310.571H461.707V309.352C461.707 308.936 461.542 308.537 461.248 308.243C460.954 307.949 460.555 307.784 460.139 307.784C459.723 307.784 459.324 307.949 459.03 308.243C458.736 308.537 458.57 308.936 458.57 309.352V310.571H457.35C456.934 310.571 456.535 310.736 456.241 311.03C455.947 311.324 455.782 311.722 455.782 312.138C455.782 312.554 455.947 312.953 456.241 313.246C456.535 313.54 456.934 313.706 457.35 313.706H458.57V314.925C458.57 315.34 458.736 315.739 459.03 316.033C459.324 316.327 459.723 316.492 460.139 316.492C460.555 316.492 460.954 316.327 461.248 316.033C461.542 315.739 461.707 315.34 461.707 314.925V313.706H462.927C463.343 313.706 463.742 313.54 464.036 313.246C464.331 312.953 464.496 312.554 464.496 312.138C464.496 311.722 464.331 311.324 464.036 311.03C463.742 310.736 463.343 310.571 462.927 310.571V310.571Z" fill="#FF6584"/>
<path d="M106.99 229.52H105.77V228.301C105.77 228.095 105.73 227.891 105.651 227.701C105.572 227.511 105.457 227.338 105.311 227.192C105.165 227.047 104.992 226.931 104.802 226.853C104.612 226.774 104.408 226.733 104.202 226.733C103.996 226.733 103.792 226.774 103.602 226.853C103.411 226.931 103.238 227.047 103.093 227.192C102.947 227.338 102.831 227.511 102.753 227.701C102.674 227.891 102.633 228.095 102.633 228.301V229.52H101.413C100.997 229.52 100.598 229.685 100.304 229.979C100.01 230.273 99.8447 230.672 99.8447 231.087C99.8447 231.503 100.01 231.902 100.304 232.196C100.598 232.49 100.997 232.655 101.413 232.655H102.633V233.874C102.633 234.08 102.674 234.284 102.753 234.474C102.831 234.664 102.947 234.837 103.093 234.982C103.238 235.128 103.411 235.243 103.602 235.322C103.792 235.401 103.996 235.441 104.202 235.441C104.408 235.441 104.612 235.401 104.802 235.322C104.992 235.243 105.165 235.128 105.311 234.982C105.457 234.837 105.572 234.664 105.651 234.474C105.73 234.284 105.77 234.08 105.77 233.874V232.655H106.99C107.406 232.655 107.805 232.49 108.099 232.196C108.394 231.902 108.559 231.503 108.559 231.087C108.559 230.672 108.394 230.273 108.099 229.979C107.805 229.685 107.406 229.52 106.99 229.52V229.52Z" fill="#6C63FF"/>
<path d="M197.483 229.52H196.263V228.301C196.263 227.885 196.097 227.486 195.803 227.192C195.509 226.899 195.11 226.733 194.694 226.733C194.278 226.733 193.879 226.899 193.585 227.192C193.291 227.486 193.126 227.885 193.126 228.301V229.52H191.906C191.49 229.52 191.091 229.685 190.797 229.979C190.502 230.273 190.337 230.672 190.337 231.087C190.337 231.503 190.502 231.902 190.797 232.196C191.091 232.49 191.49 232.655 191.906 232.655H193.126V233.874C193.126 234.29 193.291 234.688 193.585 234.982C193.879 235.276 194.278 235.441 194.694 235.441C195.11 235.441 195.509 235.276 195.803 234.982C196.097 234.688 196.263 234.29 196.263 233.874V232.655H197.483C197.899 232.655 198.298 232.49 198.592 232.196C198.886 231.902 199.051 231.503 199.051 231.087C199.051 230.672 198.886 230.273 198.592 229.979C198.298 229.685 197.899 229.52 197.483 229.52V229.52Z" fill="white"/>
<path d="M509.179 390.282H507.959V389.063C507.959 388.647 507.794 388.248 507.499 387.954C507.205 387.66 506.806 387.495 506.39 387.495C505.974 387.495 505.575 387.66 505.281 387.954C504.987 388.248 504.822 388.647 504.822 389.063V390.282H503.602C503.186 390.282 502.787 390.447 502.493 390.741C502.199 391.035 502.033 391.433 502.033 391.849C502.033 392.265 502.199 392.663 502.493 392.957C502.787 393.251 503.186 393.417 503.602 393.417H504.822V394.636C504.822 395.051 504.987 395.45 505.281 395.744C505.575 396.038 505.974 396.203 506.39 396.203C506.806 396.203 507.205 396.038 507.499 395.744C507.794 395.45 507.959 395.051 507.959 394.636V393.417H509.179C509.595 393.417 509.994 393.251 510.288 392.957C510.582 392.663 510.747 392.265 510.747 391.849C510.747 391.433 510.582 391.035 510.288 390.741C509.994 390.447 509.595 390.282 509.179 390.282V390.282Z" fill="white"/>
<path d="M368.413 259.663H367.193V258.444C367.193 258.028 367.028 257.629 366.733 257.335C366.439 257.041 366.04 256.876 365.624 256.876C365.208 256.876 364.809 257.041 364.515 257.335C364.221 257.629 364.056 258.028 364.056 258.444V259.663H362.836C362.42 259.663 362.021 259.828 361.727 260.122C361.433 260.416 361.267 260.814 361.267 261.23C361.267 261.646 361.433 262.045 361.727 262.339C362.021 262.632 362.42 262.798 362.836 262.798H364.056V264.017C364.056 264.432 364.221 264.831 364.515 265.125C364.809 265.419 365.208 265.584 365.624 265.584C366.04 265.584 366.439 265.419 366.733 265.125C367.028 264.831 367.193 264.432 367.193 264.017V262.798H368.413C368.829 262.798 369.228 262.632 369.522 262.339C369.816 262.045 369.981 261.646 369.981 261.23C369.981 260.814 369.816 260.416 369.522 260.122C369.228 259.828 368.829 259.663 368.413 259.663V259.663Z" fill="white"/>
<path d="M153.242 293.155H152.022V291.936C152.022 291.52 151.857 291.121 151.563 290.827C151.268 290.533 150.869 290.368 150.453 290.368C150.037 290.368 149.639 290.533 149.344 290.827C149.05 291.121 148.885 291.52 148.885 291.936V293.155H147.665C147.249 293.155 146.85 293.32 146.556 293.614C146.262 293.908 146.096 294.306 146.096 294.722C146.096 295.138 146.262 295.537 146.556 295.83C146.85 296.124 147.249 296.29 147.665 296.29H148.885V297.509C148.885 297.924 149.05 298.323 149.344 298.617C149.639 298.911 150.037 299.076 150.453 299.076C150.869 299.076 151.268 298.911 151.563 298.617C151.857 298.323 152.022 297.924 152.022 297.509V296.29H153.242C153.658 296.29 154.057 296.124 154.351 295.83C154.645 295.537 154.811 295.138 154.811 294.722C154.811 294.306 154.645 293.908 154.351 293.614C154.057 293.32 153.658 293.155 153.242 293.155V293.155Z" fill="white"/>
<path d="M157.264 181.961H156.044V180.742C156.044 180.326 155.879 179.928 155.584 179.634C155.29 179.34 154.891 179.175 154.475 179.175C154.059 179.175 153.66 179.34 153.366 179.634C153.072 179.928 152.907 180.326 152.907 180.742V181.961H151.687C151.271 181.961 150.872 182.126 150.578 182.42C150.284 182.714 150.118 183.113 150.118 183.529C150.118 183.944 150.284 184.343 150.578 184.637C150.872 184.931 151.271 185.096 151.687 185.096H152.907V186.315C152.907 186.731 153.072 187.129 153.366 187.423C153.66 187.717 154.059 187.882 154.475 187.882C154.891 187.882 155.29 187.717 155.584 187.423C155.879 187.129 156.044 186.731 156.044 186.315V185.096H157.264C157.68 185.096 158.079 184.931 158.373 184.637C158.667 184.343 158.832 183.944 158.832 183.529C158.832 183.113 158.667 182.714 158.373 182.42C158.079 182.126 157.68 181.961 157.264 181.961V181.961Z" fill="white"/>
<path d="M254.5 351C271.897 351 286 336.673 286 319C286 301.327 271.897 287 254.5 287C237.103 287 223 301.327 223 319C223 336.673 237.103 351 254.5 351Z" fill="#2F2E41"/>
<path d="M242.327 340.108L226.82 347.872L231.154 356.525L246.662 348.761L242.327 340.108Z" fill="#2F2E41"/>
<path d="M233.199 355.647C234.118 354.253 231.849 351.135 228.129 348.683C224.41 346.231 220.649 345.374 219.73 346.769C218.81 348.163 221.08 351.281 224.799 353.733C228.518 356.184 232.279 357.041 233.199 355.647Z" fill="#2F2E41"/>
<path d="M266.56 340.109L262.226 348.761L277.733 356.525L282.068 347.872L266.56 340.109Z" fill="#2F2E41"/>
<path d="M284.089 353.733C287.808 351.281 290.078 348.163 289.158 346.769C288.238 345.374 284.478 346.232 280.758 348.683C277.039 351.135 274.769 354.253 275.689 355.647C276.609 357.041 280.369 356.184 284.089 353.733Z" fill="#2F2E41"/>
<path d="M252 322C258.075 322 263 317.299 263 311.5C263 305.701 258.075 301 252 301C245.925 301 241 305.701 241 311.5C241 317.299 245.925 322 252 322Z" fill="white"/>
<path d="M254.862 309.301C256.274 307.89 256.266 305.594 254.844 304.172C253.422 302.751 251.125 302.743 249.714 304.154C248.302 305.566 248.31 307.862 249.732 309.283C251.154 310.704 253.451 310.713 254.862 309.301Z" fill="#3F3D56"/>
<path d="M279.983 284.647C280.471 272.688 270.129 262.558 256.884 262.022C243.638 261.486 232.506 270.746 232.018 282.706C231.531 294.665 240.738 297.382 253.983 297.918C267.228 298.455 279.496 296.607 279.983 284.647Z" fill="#6C63FF"/>
<path d="M297.946 335.86C300.042 334.061 297.095 327.193 291.364 320.518C285.633 313.844 279.287 309.892 277.192 311.69C275.096 313.489 278.043 320.358 283.774 327.032C289.505 333.706 295.851 337.659 297.946 335.86Z" fill="#2F2E41"/>
<path d="M225.203 327.032C230.934 320.358 233.881 313.489 231.785 311.69C229.689 309.892 223.344 313.844 217.613 320.518C211.882 327.193 208.935 334.061 211.03 335.86C213.126 337.659 219.471 333.706 225.203 327.032Z" fill="#2F2E41"/>
<path d="M262.887 331.679C263.219 333.521 262.812 335.42 261.755 336.959C260.698 338.498 259.077 339.551 257.249 339.886C255.422 340.221 253.536 339.811 252.009 338.746C250.481 337.681 249.436 336.048 249.103 334.207L249.101 334.193C248.411 330.358 251.355 329.001 255.162 328.307C258.969 327.613 262.198 327.844 262.887 331.679Z" fill="white"/>
<path d="M200.5 353C200.102 353 199.721 352.841 199.439 352.558C199.158 352.275 199 351.892 199 351.492V262.508C199 262.108 199.158 261.725 199.439 261.442C199.721 261.159 200.102 261 200.5 261C200.898 261 201.279 261.159 201.561 261.442C201.842 261.725 202 262.108 202 262.508V351.492C202 351.892 201.842 352.275 201.561 352.558C201.279 352.841 200.898 353 200.5 353Z" fill="#CCCCCC"/>
<path d="M177.5 433C177.102 433 176.721 432.841 176.439 432.557C176.158 432.274 176 431.89 176 431.489V366.511C176 366.11 176.158 365.726 176.439 365.443C176.721 365.159 177.102 365 177.5 365C177.898 365 178.279 365.159 178.561 365.443C178.842 365.726 179 366.11 179 366.511V431.489C179 431.89 178.842 432.274 178.561 432.557C178.279 432.841 177.898 433 177.5 433V433Z" fill="#CCCCCC"/>
<path d="M236.5 380C236.102 380 235.721 379.839 235.439 379.553C235.158 379.268 235 378.88 235 378.475V288.525C235 288.12 235.158 287.732 235.439 287.447C235.721 287.161 236.102 287 236.5 287C236.898 287 237.279 287.161 237.561 287.447C237.842 287.732 238 288.12 238 288.525V378.475C238 378.88 237.842 379.268 237.561 379.553C237.279 379.839 236.898 380 236.5 380Z" fill="#CCCCCC"/>
<path d="M214.5 444C214.102 444 213.721 443.842 213.439 443.561C213.158 443.279 213 442.898 213 442.5V406.5C213 406.102 213.158 405.721 213.439 405.439C213.721 405.158 214.102 405 214.5 405C214.898 405 215.279 405.158 215.561 405.439C215.842 405.721 216 406.102 216 406.5V442.5C216 442.898 215.842 443.279 215.561 443.561C215.279 443.842 214.898 444 214.5 444V444Z" fill="#CCCCCC"/>
<path d="M245.5 258C245.102 258 244.721 257.838 244.439 257.549C244.158 257.261 244 256.87 244 256.462V219.538C244 219.13 244.158 218.739 244.439 218.451C244.721 218.162 245.102 218 245.5 218C245.898 218 246.279 218.162 246.561 218.451C246.842 218.739 247 219.13 247 219.538V256.462C247 256.87 246.842 257.261 246.561 257.549C246.279 257.838 245.898 258 245.5 258V258Z" fill="#CCCCCC"/>
<path d="M169.5 273C169.102 273 168.721 272.842 168.439 272.561C168.158 272.279 168 271.898 168 271.5V235.5C168 235.102 168.158 234.721 168.439 234.439C168.721 234.158 169.102 234 169.5 234C169.898 234 170.279 234.158 170.561 234.439C170.842 234.721 171 235.102 171 235.5V271.5C171 271.898 170.842 272.279 170.561 272.561C170.279 272.842 169.898 273 169.5 273V273Z" fill="#CCCCCC"/>
<path d="M301.5 277C301.102 277 300.721 276.842 300.439 276.561C300.158 276.279 300 275.898 300 275.5V239.5C300 239.102 300.158 238.721 300.439 238.439C300.721 238.158 301.102 238 301.5 238C301.898 238 302.279 238.158 302.561 238.439C302.842 238.721 303 239.102 303 239.5V275.5C303 275.898 302.842 276.279 302.561 276.561C302.279 276.842 301.898 277 301.5 277Z" fill="#CCCCCC"/>
<path d="M298.5 391C298.102 391 297.721 390.84 297.439 390.556C297.158 390.272 297 389.886 297 389.484V345.516C297 345.114 297.158 344.728 297.439 344.444C297.721 344.16 298.102 344 298.5 344C298.898 344 299.279 344.16 299.561 344.444C299.842 344.728 300 345.114 300 345.516V389.484C300 389.886 299.842 390.272 299.561 390.556C299.279 390.84 298.898 391 298.5 391Z" fill="#CCCCCC"/>
<path d="M268.5 430C268.102 430 267.721 429.838 267.439 429.551C267.158 429.263 267 428.873 267 428.467V362.533C267 362.127 267.158 361.737 267.439 361.449C267.721 361.162 268.102 361 268.5 361C268.898 361 269.279 361.162 269.561 361.449C269.842 361.737 270 362.127 270 362.533V428.467C270 428.873 269.842 429.263 269.561 429.551C269.279 429.838 268.898 430 268.5 430Z" fill="#CCCCCC"/>
<path d="M274.5 318C274.102 318 273.721 317.841 273.439 317.558C273.158 317.275 273 316.892 273 316.492V227.508C273 227.108 273.158 226.725 273.439 226.442C273.721 226.159 274.102 226 274.5 226C274.898 226 275.279 226.159 275.561 226.442C275.842 226.725 276 227.108 276 227.508V316.492C276 316.892 275.842 317.275 275.561 317.558C275.279 317.841 274.898 318 274.5 318Z" fill="#CCCCCC"/>
<path d="M317.942 122.262C291.989 119.139 262.529 118.07 231.936 119.239C203.938 120.308 177.033 123.172 153.024 127.551C153.015 127.18 153.006 126.81 153.009 126.44C152.828 104.943 161.082 84.2274 176.005 68.7202C190.929 53.2131 211.338 44.1448 232.871 43.4535C254.405 42.7622 275.353 50.5028 291.24 65.0209C307.126 79.539 316.69 99.6827 317.888 121.147C317.908 121.522 317.928 121.892 317.942 122.262Z" fill="#6C63FF"/>
<path d="M405.275 156.568C403.589 150.843 398.186 145.543 389.578 140.818C380.953 136.084 369.022 131.877 354.122 128.382L354.12 128.381C342.191 125.649 330.119 123.574 317.96 122.165L317.902 122.662L317.96 122.165C297.753 119.828 277.425 118.667 257.081 118.688C248.762 118.675 240.305 118.827 231.76 119.153C224.996 119.41 218.312 119.772 211.71 120.24C191.913 121.572 172.203 123.985 152.671 127.469C138.401 129.994 124.304 133.408 110.462 137.69L110.459 137.691C95.8662 142.313 84.2888 147.419 76.0487 152.8C67.825 158.171 62.8421 163.87 61.6011 169.71C61.3625 170.822 61.2628 171.959 61.3043 173.096L61.3043 173.097L196.433 214.155C209.074 214.473 222.121 214.384 235.379 213.877C248.682 213.369 261.742 212.455 274.361 211.172C305.388 208.014 333.782 202.591 356.68 195.339C372.677 190.271 385.053 184.623 393.381 178.666C401.691 172.723 406.082 166.388 405.835 159.933C405.79 158.792 405.602 157.662 405.275 156.568ZM405.275 156.568C405.275 156.568 405.275 156.569 405.275 156.569L404.795 156.71L405.274 156.567C405.274 156.567 405.275 156.567 405.275 156.568ZM370.983 190.914C371.248 190.809 371.513 190.702 371.777 190.596C371.943 190.529 372.108 190.462 372.273 190.396C372.628 190.255 372.983 190.109 373.333 189.963C373.627 189.836 373.917 189.714 374.212 189.593C374.966 189.279 375.706 188.955 376.436 188.636L376.576 188.575C376.736 188.502 376.897 188.431 377.057 188.36L377.059 188.358C377.285 188.258 377.51 188.158 377.732 188.056C378.109 187.887 378.49 187.712 378.861 187.538C379.472 187.255 380.071 186.973 380.66 186.691C380.943 186.547 381.232 186.409 381.51 186.277M370.983 190.914L384.22 184.898C383.687 185.178 383.143 185.458 382.593 185.733C382.446 185.811 382.294 185.888 382.141 185.961C382.035 186.014 381.93 186.067 381.826 186.119C381.776 186.144 381.727 186.168 381.677 186.193C381.622 186.221 381.566 186.249 381.51 186.277M370.983 190.914C370.584 191.073 370.185 191.232 369.775 191.386M370.983 190.914L369.775 191.386M381.51 186.277L381.295 185.826C381.293 185.827 381.291 185.828 381.289 185.829M381.51 186.277L381.284 185.831C381.286 185.83 381.287 185.829 381.289 185.829M381.289 185.829C381.015 185.959 380.725 186.098 380.439 186.242C379.854 186.522 379.258 186.803 378.651 187.084L378.649 187.085C378.281 187.258 377.902 187.432 377.527 187.6L377.524 187.601C377.301 187.703 377.081 187.801 376.857 187.901C376.699 187.972 376.538 188.043 376.373 188.118C376.372 188.118 376.371 188.119 376.37 188.119L376.236 188.178C375.506 188.497 374.771 188.819 374.021 189.131C373.725 189.253 373.433 189.375 373.137 189.503C372.79 189.648 372.439 189.792 372.089 189.931L372.087 189.932C371.919 189.999 371.752 190.066 371.586 190.133C371.324 190.239 371.063 190.345 370.799 190.449L370.798 190.45C370.398 190.609 370.004 190.766 369.599 190.917L369.591 190.921L369.582 190.924C369.417 190.993 369.246 191.057 369.064 191.125L369.058 191.128C368.633 191.293 368.203 191.457 367.775 191.616L367.768 191.618C367.56 191.699 367.352 191.776 367.138 191.855C367.028 191.896 366.918 191.937 366.805 191.979C366.358 192.145 365.905 192.311 365.447 192.477L365.617 192.947L365.447 192.477C365.035 192.626 364.622 192.773 364.205 192.921C363.987 192.998 363.767 193.076 363.546 193.155C362.765 193.428 361.979 193.7 361.178 193.972C361.139 193.984 361.109 193.994 361.076 194.004L361.064 194.007L361.053 194.011C360.247 194.287 359.428 194.555 358.597 194.827L358.242 194.944C358.241 194.944 358.24 194.944 358.239 194.945C358.025 195.012 357.816 195.079 357.609 195.146C357.347 195.23 357.086 195.314 356.817 195.398C356.776 195.409 356.735 195.423 356.695 195.44C356.2 195.594 355.704 195.749 355.201 195.909C353.783 196.344 352.35 196.778 350.896 197.197C350.781 197.229 350.666 197.262 350.545 197.301C328.949 203.583 303.028 208.329 274.915 211.218L274.966 211.715L274.915 211.218C262.125 212.534 248.881 213.465 235.383 213.98C221.929 214.494 208.698 214.581 195.884 214.243L195.884 214.243C164.836 213.443 136.26 210.204 112.987 204.744L112.987 204.744C96.4356 200.864 83.5733 196.085 74.7996 190.686C66.0104 185.276 61.4329 179.316 61.1955 173.101C60.958 166.886 65.0674 160.593 73.4182 154.529C81.7541 148.476 94.2137 142.73 110.42 137.598C124.326 133.295 138.491 129.87 152.83 127.344L152.831 127.344C172.211 123.886 191.767 121.487 211.41 120.158L211.412 120.158C218.107 119.681 224.902 119.312 231.756 119.05C240.404 118.719 248.965 118.569 257.377 118.589L257.378 118.589C277.567 118.579 297.738 119.733 317.792 122.045L317.849 121.549L317.792 122.045C330.019 123.454 342.159 125.537 354.153 128.286C370.704 132.166 383.566 136.945 392.34 142.345C401.129 147.754 405.706 153.715 405.944 159.929C406.217 167.085 400.728 174.338 389.675 181.207L389.673 181.208C387.919 182.306 386.024 183.389 383.988 184.455L383.988 184.456C383.457 184.734 382.916 185.013 382.37 185.286L382.36 185.291C382.217 185.366 382.072 185.44 381.928 185.508L381.916 185.514C381.811 185.567 381.707 185.619 381.602 185.672L381.485 185.73C381.42 185.762 381.355 185.795 381.289 185.829ZM369.775 191.386C369.6 191.458 369.42 191.526 369.24 191.593L369.239 191.594C368.813 191.759 368.38 191.925 367.948 192.085C367.738 192.166 367.524 192.245 367.309 192.325L367.307 192.326C367.199 192.366 367.09 192.406 366.98 192.448L369.775 191.386ZM361.215 194.484C360.406 194.761 359.584 195.03 358.753 195.302L358.393 195.42L358.294 195.452C358.118 195.507 357.942 195.564 357.767 195.62C357.498 195.707 357.228 195.793 356.956 195.878L361.215 194.484ZM361.215 194.484C361.256 194.472 361.293 194.46 361.33 194.448L361.331 194.448L361.335 194.447L361.215 194.484ZM196.458 213.155L196.458 213.155C165.278 212.382 136.58 209.149 113.246 203.674C96.9566 199.853 84.3003 195.196 75.6696 189.969C67.0205 184.732 62.5307 178.998 62.3036 173.059C62.2652 172.005 62.3576 170.951 62.5789 169.919L62.5792 169.918C63.7367 164.47 68.444 158.961 76.5955 153.638C84.7306 148.325 96.2135 143.252 110.76 138.645C124.56 134.375 138.617 130.971 152.845 128.453L152.846 128.453C172.343 124.976 192.017 122.567 211.778 121.237L211.78 121.237C218.371 120.77 225.044 120.409 231.798 120.152C240.33 119.826 248.774 119.675 257.08 119.688L257.082 119.688C277.387 119.667 297.676 120.826 317.845 123.159C329.968 124.563 342.003 126.632 353.895 129.356C368.748 132.84 380.582 137.021 389.097 141.695C397.629 146.379 402.743 151.51 404.316 156.851L404.316 156.854C404.62 157.867 404.794 158.915 404.836 159.972C405.063 165.911 401.024 171.971 392.799 177.853C384.592 183.723 372.328 189.332 356.378 194.385C333.563 201.612 305.239 207.024 274.259 210.177C261.662 211.458 248.623 212.37 235.341 212.878C222.103 213.384 209.077 213.473 196.458 213.155ZM112.873 205.231C136.187 210.701 164.799 213.942 195.871 214.743L112.873 205.231Z" fill="#6C63FF"/>
<path d="M405.275 156.568C403.589 150.843 398.186 145.543 389.578 140.818C380.953 136.084 369.022 131.877 354.122 128.382L354.12 128.381C342.191 125.649 330.119 123.574 317.96 122.165L317.902 122.662L317.96 122.165C297.753 119.828 277.425 118.667 257.081 118.688C248.762 118.675 240.305 118.827 231.76 119.153C224.996 119.41 218.312 119.772 211.71 120.24C191.913 121.572 172.203 123.985 152.671 127.469C138.401 129.994 124.304 133.408 110.462 137.69L110.459 137.691C95.8662 142.313 84.2888 147.419 76.0487 152.8C67.825 158.171 62.8421 163.87 61.6011 169.71C61.3625 170.822 61.2628 171.959 61.3043 173.096L61.3043 173.097L196.433 214.155C209.074 214.473 222.121 214.384 235.379 213.877C248.682 213.369 261.742 212.455 274.361 211.172C305.388 208.014 333.782 202.591 356.68 195.339C372.677 190.271 385.053 184.623 393.381 178.666C401.691 172.723 406.082 166.388 405.835 159.933C405.79 158.792 405.602 157.662 405.275 156.568ZM405.275 156.568C405.275 156.568 405.275 156.569 405.275 156.569L404.795 156.71L405.274 156.567C405.274 156.567 405.275 156.567 405.275 156.568ZM370.983 190.914C371.248 190.809 371.513 190.702 371.777 190.596C371.943 190.529 372.108 190.462 372.273 190.396C372.628 190.255 372.983 190.109 373.333 189.963C373.627 189.836 373.917 189.714 374.212 189.593C374.966 189.279 375.706 188.955 376.436 188.636L376.576 188.575C376.736 188.502 376.897 188.431 377.057 188.36L377.059 188.358C377.285 188.258 377.51 188.158 377.732 188.056C378.109 187.887 378.49 187.712 378.861 187.538C379.472 187.255 380.071 186.973 380.66 186.691C380.943 186.547 381.232 186.409 381.51 186.277M370.983 190.914L384.22 184.898C383.687 185.178 383.143 185.458 382.593 185.733C382.446 185.811 382.294 185.888 382.141 185.961C382.035 186.014 381.93 186.067 381.826 186.119C381.776 186.144 381.727 186.168 381.677 186.193C381.622 186.221 381.566 186.249 381.51 186.277M370.983 190.914C370.584 191.073 370.185 191.232 369.775 191.386M370.983 190.914L369.775 191.386M381.51 186.277L381.295 185.826C381.293 185.827 381.291 185.828 381.289 185.829M381.51 186.277L381.284 185.831C381.286 185.83 381.287 185.829 381.289 185.829M381.289 185.829C381.015 185.959 380.725 186.098 380.439 186.242C379.854 186.522 379.258 186.803 378.651 187.084L378.649 187.085C378.281 187.258 377.902 187.432 377.527 187.6L377.524 187.601C377.301 187.703 377.081 187.801 376.857 187.901C376.699 187.972 376.538 188.043 376.373 188.118C376.372 188.118 376.371 188.119 376.37 188.119L376.236 188.178C375.506 188.497 374.771 188.819 374.021 189.131C373.725 189.253 373.433 189.375 373.137 189.503C372.79 189.648 372.439 189.792 372.089 189.931L372.087 189.932C371.919 189.999 371.752 190.066 371.586 190.133C371.324 190.239 371.063 190.345 370.799 190.449L370.798 190.45C370.398 190.609 370.004 190.766 369.599 190.917L369.591 190.921L369.582 190.924C369.417 190.993 369.246 191.057 369.064 191.125L369.058 191.128C368.633 191.293 368.203 191.457 367.775 191.616L367.768 191.618C367.56 191.699 367.352 191.776 367.138 191.855C367.028 191.896 366.918 191.937 366.805 191.979C366.358 192.145 365.905 192.311 365.447 192.477L365.617 192.947L365.447 192.477C365.035 192.626 364.622 192.773 364.205 192.921C363.987 192.998 363.767 193.076 363.546 193.155C362.765 193.428 361.979 193.7 361.178 193.972C361.139 193.984 361.109 193.994 361.076 194.004L361.064 194.007L361.053 194.011C360.247 194.287 359.428 194.555 358.597 194.827L358.242 194.944C358.241 194.944 358.24 194.944 358.239 194.945C358.025 195.012 357.816 195.079 357.609 195.146C357.347 195.23 357.086 195.314 356.817 195.398C356.776 195.409 356.735 195.423 356.695 195.44C356.2 195.594 355.704 195.749 355.201 195.909C353.783 196.344 352.35 196.778 350.896 197.197C350.781 197.229 350.666 197.262 350.545 197.301C328.949 203.583 303.028 208.329 274.915 211.218L274.966 211.715L274.915 211.218C262.125 212.534 248.881 213.465 235.383 213.98C221.929 214.494 208.698 214.581 195.884 214.243L195.884 214.243C164.836 213.443 136.26 210.204 112.987 204.744L112.987 204.744C96.4356 200.864 83.5733 196.085 74.7996 190.686C66.0104 185.276 61.4329 179.316 61.1955 173.101C60.958 166.886 65.0674 160.593 73.4182 154.529C81.7541 148.476 94.2137 142.73 110.42 137.598C124.326 133.295 138.491 129.87 152.83 127.344L152.831 127.344C172.211 123.886 191.767 121.487 211.41 120.158L211.412 120.158C218.107 119.681 224.902 119.312 231.756 119.05C240.404 118.719 248.965 118.569 257.377 118.589L257.378 118.589C277.567 118.579 297.738 119.733 317.792 122.045L317.849 121.549L317.792 122.045C330.019 123.454 342.159 125.537 354.153 128.286C370.704 132.166 383.566 136.945 392.34 142.345C401.129 147.754 405.706 153.715 405.944 159.929C406.217 167.085 400.728 174.338 389.675 181.207L389.673 181.208C387.919 182.306 386.024 183.389 383.988 184.455L383.988 184.456C383.457 184.734 382.916 185.013 382.37 185.286L382.36 185.291C382.217 185.366 382.072 185.44 381.928 185.508L381.916 185.514C381.811 185.567 381.707 185.619 381.602 185.672L381.485 185.73C381.42 185.762 381.355 185.795 381.289 185.829ZM369.775 191.386C369.6 191.458 369.42 191.526 369.24 191.593L369.239 191.594C368.813 191.759 368.38 191.925 367.948 192.085C367.738 192.166 367.524 192.245 367.309 192.325L367.307 192.326C367.199 192.366 367.09 192.406 366.98 192.448L369.775 191.386ZM361.215 194.484C360.406 194.761 359.584 195.03 358.753 195.302L358.393 195.42L358.294 195.452C358.118 195.507 357.942 195.564 357.767 195.62C357.498 195.707 357.228 195.793 356.956 195.878L361.215 194.484ZM361.215 194.484C361.256 194.472 361.293 194.46 361.33 194.448L361.331 194.448L361.335 194.447L361.215 194.484ZM196.458 213.155L196.458 213.155C165.278 212.382 136.58 209.149 113.246 203.674C96.9566 199.853 84.3003 195.196 75.6696 189.969C67.0205 184.732 62.5307 178.998 62.3036 173.059C62.2652 172.005 62.3576 170.951 62.5789 169.919L62.5792 169.918C63.7367 164.47 68.444 158.961 76.5955 153.638C84.7306 148.325 96.2135 143.252 110.76 138.645C124.56 134.375 138.617 130.971 152.845 128.453L152.846 128.453C172.343 124.976 192.017 122.567 211.778 121.237L211.78 121.237C218.371 120.77 225.044 120.409 231.798 120.152C240.33 119.826 248.774 119.675 257.08 119.688L257.082 119.688C277.387 119.667 297.676 120.826 317.845 123.159C329.968 124.563 342.003 126.632 353.895 129.356C368.748 132.84 380.582 137.021 389.097 141.695C397.629 146.379 402.743 151.51 404.316 156.851L404.316 156.854C404.62 157.867 404.794 158.915 404.836 159.972C405.063 165.911 401.024 171.971 392.799 177.853C384.592 183.723 372.328 189.332 356.378 194.385C333.563 201.612 305.239 207.024 274.259 210.177C261.662 211.458 248.623 212.37 235.341 212.878C222.103 213.384 209.077 213.473 196.458 213.155ZM112.873 205.231C136.187 210.701 164.799 213.942 195.871 214.743L112.873 205.231Z" fill="white"/>
<path d="M405.275 156.568C403.589 150.843 398.186 145.543 389.578 140.818C380.953 136.084 369.022 131.877 354.122 128.382L354.12 128.381C342.191 125.649 330.119 123.574 317.96 122.165L317.902 122.662L317.96 122.165C297.753 119.828 277.425 118.667 257.081 118.688C248.762 118.675 240.305 118.827 231.76 119.153C224.996 119.41 218.312 119.772 211.71 120.24C191.913 121.572 172.203 123.985 152.671 127.469C138.401 129.994 124.304 133.408 110.462 137.69L110.459 137.691C95.8662 142.313 84.2888 147.419 76.0487 152.8C67.825 158.171 62.8421 163.87 61.6011 169.71C61.3625 170.822 61.2628 171.959 61.3043 173.096L61.3043 173.097L196.433 214.155C209.074 214.473 222.121 214.384 235.379 213.877C248.682 213.369 261.742 212.455 274.361 211.172C305.388 208.014 333.782 202.591 356.68 195.339C372.677 190.271 385.053 184.623 393.381 178.666C401.691 172.723 406.082 166.388 405.835 159.933C405.79 158.792 405.602 157.662 405.275 156.568ZM405.275 156.568C405.275 156.568 405.275 156.569 405.275 156.569L404.795 156.71L405.274 156.567C405.274 156.567 405.275 156.567 405.275 156.568ZM370.983 190.914C371.248 190.809 371.513 190.702 371.777 190.596C371.943 190.529 372.108 190.462 372.273 190.396C372.628 190.255 372.983 190.109 373.333 189.963C373.627 189.836 373.917 189.714 374.212 189.593C374.966 189.279 375.706 188.955 376.436 188.636L376.576 188.575C376.736 188.502 376.897 188.431 377.057 188.36L377.059 188.358C377.285 188.258 377.51 188.158 377.732 188.056C378.109 187.887 378.49 187.712 378.861 187.538C379.472 187.255 380.071 186.973 380.66 186.691C380.943 186.547 381.232 186.409 381.51 186.277M370.983 190.914L384.22 184.898C383.687 185.178 383.143 185.458 382.593 185.733C382.446 185.811 382.294 185.888 382.141 185.961C382.035 186.014 381.93 186.067 381.826 186.119C381.776 186.144 381.727 186.168 381.677 186.193C381.622 186.221 381.566 186.249 381.51 186.277M370.983 190.914C370.584 191.073 370.185 191.232 369.775 191.386M370.983 190.914L369.775 191.386M381.51 186.277L381.295 185.826C381.293 185.827 381.291 185.828 381.289 185.829M381.51 186.277L381.284 185.831C381.286 185.83 381.287 185.829 381.289 185.829M381.289 185.829C381.015 185.959 380.725 186.098 380.439 186.242C379.854 186.522 379.258 186.803 378.651 187.084L378.649 187.085C378.281 187.258 377.902 187.432 377.527 187.6L377.524 187.601C377.301 187.703 377.081 187.801 376.857 187.901C376.699 187.972 376.538 188.043 376.373 188.118C376.372 188.118 376.371 188.119 376.37 188.119L376.236 188.178C375.506 188.497 374.771 188.819 374.021 189.131C373.725 189.253 373.433 189.375 373.137 189.503C372.79 189.648 372.439 189.792 372.089 189.931L372.087 189.932C371.919 189.999 371.752 190.066 371.586 190.133C371.324 190.239 371.063 190.345 370.799 190.449L370.798 190.45C370.398 190.609 370.004 190.766 369.599 190.917L369.591 190.921L369.582 190.924C369.417 190.993 369.246 191.057 369.064 191.125L369.058 191.128C368.633 191.293 368.203 191.457 367.775 191.616L367.768 191.618C367.56 191.699 367.352 191.776 367.138 191.855C367.028 191.896 366.918 191.937 366.805 191.979C366.358 192.145 365.905 192.311 365.447 192.477L365.617 192.947L365.447 192.477C365.035 192.626 364.622 192.773 364.205 192.921C363.987 192.998 363.767 193.076 363.546 193.155C362.765 193.428 361.979 193.7 361.178 193.972C361.139 193.984 361.109 193.994 361.076 194.004L361.064 194.007L361.053 194.011C360.247 194.287 359.428 194.555 358.597 194.827L358.242 194.944C358.241 194.944 358.24 194.944 358.239 194.945C358.025 195.012 357.816 195.079 357.609 195.146C357.347 195.23 357.086 195.314 356.817 195.398C356.776 195.409 356.735 195.423 356.695 195.44C356.2 195.594 355.704 195.749 355.201 195.909C353.783 196.344 352.35 196.778 350.896 197.197C350.781 197.229 350.666 197.262 350.545 197.301C328.949 203.583 303.028 208.329 274.915 211.218L274.966 211.715L274.915 211.218C262.125 212.534 248.881 213.465 235.383 213.98C221.929 214.494 208.698 214.581 195.884 214.243L195.884 214.243C164.836 213.443 136.26 210.204 112.987 204.744L112.987 204.744C96.4356 200.864 83.5733 196.085 74.7996 190.686C66.0104 185.276 61.4329 179.316 61.1955 173.101C60.958 166.886 65.0674 160.593 73.4182 154.529C81.7541 148.476 94.2137 142.73 110.42 137.598C124.326 133.295 138.491 129.87 152.83 127.344L152.831 127.344C172.211 123.886 191.767 121.487 211.41 120.158L211.412 120.158C218.107 119.681 224.902 119.312 231.756 119.05C240.404 118.719 248.965 118.569 257.377 118.589L257.378 118.589C277.567 118.579 297.738 119.733 317.792 122.045L317.849 121.549L317.792 122.045C330.019 123.454 342.159 125.537 354.153 128.286C370.704 132.166 383.566 136.945 392.34 142.345C401.129 147.754 405.706 153.715 405.944 159.929C406.217 167.085 400.728 174.338 389.675 181.207L389.673 181.208C387.919 182.306 386.024 183.389 383.988 184.455L383.988 184.456C383.457 184.734 382.916 185.013 382.37 185.286L382.36 185.291C382.217 185.366 382.072 185.44 381.928 185.508L381.916 185.514C381.811 185.567 381.707 185.619 381.602 185.672L381.485 185.73C381.42 185.762 381.355 185.795 381.289 185.829ZM369.775 191.386C369.6 191.458 369.42 191.526 369.24 191.593L369.239 191.594C368.813 191.759 368.38 191.925 367.948 192.085C367.738 192.166 367.524 192.245 367.309 192.325L367.307 192.326C367.199 192.366 367.09 192.406 366.98 192.448L369.775 191.386ZM361.215 194.484C360.406 194.761 359.584 195.03 358.753 195.302L358.393 195.42L358.294 195.452C358.118 195.507 357.942 195.564 357.767 195.62C357.498 195.707 357.228 195.793 356.956 195.878L361.215 194.484ZM361.215 194.484C361.256 194.472 361.293 194.46 361.33 194.448L361.331 194.448L361.335 194.447L361.215 194.484ZM196.458 213.155L196.458 213.155C165.278 212.382 136.58 209.149 113.246 203.674C96.9566 199.853 84.3003 195.196 75.6696 189.969C67.0205 184.732 62.5307 178.998 62.3036 173.059C62.2652 172.005 62.3576 170.951 62.5789 169.919L62.5792 169.918C63.7367 164.47 68.444 158.961 76.5955 153.638C84.7306 148.325 96.2135 143.252 110.76 138.645C124.56 134.375 138.617 130.971 152.845 128.453L152.846 128.453C172.343 124.976 192.017 122.567 211.778 121.237L211.78 121.237C218.371 120.77 225.044 120.409 231.798 120.152C240.33 119.826 248.774 119.675 257.08 119.688L257.082 119.688C277.387 119.667 297.676 120.826 317.845 123.159C329.968 124.563 342.003 126.632 353.895 129.356C368.748 132.84 380.582 137.021 389.097 141.695C397.629 146.379 402.743 151.51 404.316 156.851L404.316 156.854C404.62 157.867 404.794 158.915 404.836 159.972C405.063 165.911 401.024 171.971 392.799 177.853C384.592 183.723 372.328 189.332 356.378 194.385C333.563 201.612 305.239 207.024 274.259 210.177C261.662 211.458 248.623 212.37 235.341 212.878C222.103 213.384 209.077 213.473 196.458 213.155ZM112.873 205.231C136.187 210.701 164.799 213.942 195.871 214.743L112.873 205.231Z" stroke="#4F4F4F"/>
<path d="M406.472 160.647C406.752 167.984 400.915 175.159 390.255 181.775C388.482 182.877 386.57 183.962 384.535 185.029C384.001 185.308 383.457 185.587 382.907 185.861C382.76 185.939 382.607 186.016 382.455 186.088C382.242 186.195 382.035 186.296 381.823 186.403C381.545 186.535 381.256 186.672 380.973 186.815C380.384 187.096 379.784 187.378 379.173 187.659C378.802 187.833 378.42 188.007 378.044 188.176C377.662 188.35 377.274 188.518 376.887 188.693C376.112 189.03 375.325 189.374 374.522 189.707C374.227 189.828 373.937 189.949 373.643 190.076C373.293 190.222 372.938 190.367 372.582 190.507C372.156 190.677 371.724 190.853 371.292 191.024C370.893 191.182 370.494 191.34 370.083 191.494C369.909 191.566 369.728 191.634 369.547 191.701C369.121 191.866 368.689 192.031 368.256 192.19C367.939 192.312 367.616 192.429 367.287 192.552C366.838 192.717 366.384 192.883 365.924 193.049C365.295 193.277 364.659 193.499 364.018 193.727C363.235 193.999 362.446 194.271 361.641 194.544C361.602 194.556 361.564 194.569 361.52 194.582C360.594 194.897 359.651 195.203 358.697 195.514C358.22 195.665 357.743 195.82 357.26 195.971C357.23 195.979 357.201 195.989 357.173 196.002C356.668 196.158 356.163 196.315 355.653 196.478C354.238 196.906 352.794 197.34 351.334 197.765C351.219 197.796 351.109 197.828 350.994 197.866C329.939 203.939 304.008 208.768 275.218 211.721C262.606 213.012 249.442 213.944 235.902 214.461C222.24 214.983 208.932 215.057 196.158 214.72C119.904 212.711 62.5769 196.158 61.7233 173.818C61.6774 172.459 61.8349 171.1 62.1907 169.786C62.2276 169.878 62.2642 169.964 62.3068 170.056C71.0022 190.337 127.768 204.827 200.752 206.103C211.933 206.302 223.502 206.185 235.33 205.733C247.208 205.279 258.795 204.506 269.973 203.452C342.586 196.597 398.025 177.815 405.12 156.948C405.241 156.613 405.345 156.279 405.432 155.946C406.052 157.441 406.404 159.032 406.472 160.647V160.647Z" fill="#3F3D56"/>
<path d="M111.43 165.177C102.226 165.529 92.3699 163.976 92.2335 160.407C92.0971 156.837 101.806 154.537 111.01 154.185C120.214 153.833 130.069 155.386 130.206 158.956C130.342 162.526 120.634 164.825 111.43 165.177ZM111.051 155.261C100.514 155.664 93.2597 158.274 93.3396 160.364C93.4195 162.455 100.852 164.504 111.389 164.101C121.926 163.699 129.18 161.089 129.1 158.998C129.02 156.907 121.588 154.858 111.051 155.261V155.261Z" fill="#3F3D56"/>
<path d="M151.394 189.669C142.19 190.021 132.334 188.468 132.198 184.899C132.061 181.329 141.77 179.029 150.974 178.677C160.178 178.326 170.034 179.878 170.17 183.448C170.306 187.018 160.598 189.318 151.394 189.669ZM151.015 179.753C140.478 180.156 133.224 182.766 133.304 184.856C133.384 186.947 140.816 188.996 151.353 188.593C161.89 188.191 169.144 185.581 169.064 183.49C168.984 181.4 161.552 179.351 151.015 179.753V179.753Z" fill="#3F3D56"/>
<path d="M355.252 155.862C346.048 156.213 336.192 154.661 336.056 151.091C335.919 147.521 345.628 145.221 354.832 144.87C364.036 144.518 373.892 146.07 374.028 149.64C374.164 153.21 364.456 155.51 355.252 155.862ZM354.873 145.946C344.336 146.348 337.082 148.958 337.162 151.049C337.242 153.139 344.674 155.188 355.211 154.786C365.748 154.383 373.002 151.773 372.922 149.683C372.842 147.592 365.41 145.543 354.873 145.946V145.946Z" fill="#3F3D56"/>
<path d="M316.273 183.37C307.07 183.722 297.214 182.169 297.077 178.599C296.941 175.029 306.65 172.73 315.854 172.378C325.058 172.026 334.913 173.579 335.05 177.149C335.186 180.718 325.478 183.018 316.273 183.37ZM315.895 173.454C305.358 173.856 298.104 176.466 298.183 178.557C298.263 180.648 305.695 182.697 316.232 182.294C326.769 181.891 334.024 179.281 333.944 177.191C333.864 175.1 326.432 173.051 315.895 173.454V173.454Z" fill="#3F3D56"/>
<path d="M234.83 199.491C225.626 199.843 215.763 198.115 215.614 194.221C215.466 190.326 225.168 187.851 234.371 187.5C243.576 187.148 253.438 188.876 253.587 192.77C253.736 196.664 244.034 199.139 234.83 199.491ZM234.416 188.673C223.879 189.076 216.633 191.898 216.721 194.178C216.808 196.459 224.248 198.72 234.785 198.317C245.322 197.915 252.568 195.093 252.481 192.812C252.394 190.532 244.953 188.271 234.416 188.673V188.673Z" fill="#3F3D56"/>
<path d="M472.453 423.135C474.241 421.639 471.825 415.811 467.057 410.118C462.289 404.425 456.974 401.022 455.187 402.519C453.399 404.015 455.815 409.843 460.583 415.536C465.351 421.229 470.665 424.631 472.453 423.135Z" fill="#2F2E41"/>
<path d="M460.728 416.661C465.426 402.573 457.81 387.346 443.718 382.65C429.626 377.954 414.395 385.568 409.697 399.655C405 413.743 412.616 428.971 426.708 433.667C440.8 438.363 456.031 430.749 460.728 416.661Z" fill="#2F2E41"/>
<path d="M446.597 429.26H438.426V443.896H446.597V429.26Z" fill="#2F2E41"/>
<path d="M430.255 429.26H422.084V443.896H430.255V429.26Z" fill="#2F2E41"/>
<path d="M439.788 446.619C443.548 446.619 446.597 445.476 446.597 444.066C446.597 442.656 443.548 441.513 439.788 441.513C436.027 441.513 432.979 442.656 432.979 444.066C432.979 445.476 436.027 446.619 439.788 446.619Z" fill="#2F2E41"/>
<path d="M423.446 446.278C427.207 446.278 430.255 445.135 430.255 443.725C430.255 442.315 427.207 441.173 423.446 441.173C419.685 441.173 416.637 442.315 416.637 443.725C416.637 445.135 419.685 446.278 423.446 446.278Z" fill="#2F2E41"/>
<path d="M426.768 374.359C429.169 364.69 439.77 359 450.446 361.65C461.121 364.3 467.828 374.287 465.427 383.956C463.025 393.625 455.058 393.656 444.382 391.006C433.707 388.356 424.366 384.028 426.768 374.359Z" fill="#CCCCCC"/>
<path d="M417.07 401.443C418.069 399.337 413.439 395.05 406.728 391.869C400.018 388.687 393.768 387.815 392.769 389.921C391.77 392.027 396.4 396.314 403.11 399.495C409.821 402.677 416.071 403.549 417.07 401.443Z" fill="#2F2E41"/>
<path d="M431.192 411.449C436.144 411.449 440.159 407.435 440.159 402.485C440.159 397.534 436.144 393.52 431.192 393.52C426.24 393.52 422.225 397.534 422.225 402.485C422.225 407.435 426.24 411.449 431.192 411.449Z" fill="white"/>
<path d="M427.507 402.26C429.157 402.26 430.496 400.922 430.496 399.271C430.496 397.621 429.157 396.283 427.507 396.283C425.856 396.283 424.518 397.621 424.518 399.271C424.518 400.922 425.856 402.26 427.507 402.26Z" fill="#3F3D56"/>
<path d="M431.115 424.948C433.184 424.948 434.862 423.27 434.862 421.202C434.862 419.133 433.184 417.456 431.115 417.456C429.045 417.456 427.368 419.133 427.368 421.202C427.368 423.27 429.045 424.948 431.115 424.948Z" fill="white"/>
</svg>
