<svg width="511" height="469" viewBox="0 0 511 469" fill="none" xmlns="http://www.w3.org/2000/svg">
<rect width="511" height="469" />
<path d="M301.385 244.215C344.428 212.098 353.254 151.126 321.098 108.031C288.941 64.9355 227.98 56.0365 184.937 88.1542C141.893 120.272 133.068 181.244 165.224 224.339C197.38 267.434 258.342 276.333 301.385 244.215Z" fill="#F2F2F2"/>
<path d="M326.509 171.705C302.651 183.371 272.41 194.294 240.231 202.817C204.37 212.315 170.357 217.704 144.459 217.991C118.02 218.285 103.048 213.156 102.3 203.552C101.552 193.947 115.137 181.255 140.552 167.814L141.688 169.808C129.819 176.084 120.615 182.156 114.33 187.854C108.06 193.539 105.046 198.546 105.373 202.738C105.699 206.929 109.355 210.17 116.238 212.371C123.139 214.577 132.898 215.626 145.245 215.489C170.835 215.206 204.503 209.865 240.047 200.45C271.947 192.001 301.9 181.186 325.489 169.654C328.184 168.336 330.792 167.011 333.314 165.677C345.182 159.4 354.387 153.329 360.672 147.63C366.942 141.946 369.956 136.938 369.629 132.747C369.043 125.22 357.491 120.717 337.102 120.065L338.037 117.565C348.53 117.9 356.826 119.231 362.696 121.52C368.989 123.974 372.355 127.478 372.702 131.933C373.45 141.538 359.865 154.229 334.45 167.67C331.893 169.023 329.241 170.37 326.509 171.705Z" fill="#CCCCCC"/>
<path d="M242.781 141.981L249.952 180.038C249.975 180.161 249.949 180.288 249.878 180.392C249.808 180.495 249.699 180.566 249.576 180.59C249.453 180.613 249.326 180.586 249.223 180.515C249.119 180.445 249.048 180.336 249.025 180.213L241.854 142.155C241.831 142.032 241.858 141.905 241.928 141.802C241.999 141.698 242.107 141.627 242.23 141.604C242.353 141.581 242.48 141.607 242.584 141.678C242.687 141.749 242.758 141.857 242.781 141.981V141.981Z" fill="black"/>
<path d="M289.113 166.683L278.476 182.281C278.405 182.384 278.296 182.455 278.173 182.478C278.051 182.501 277.924 182.474 277.821 182.403C277.717 182.333 277.646 182.224 277.623 182.101C277.6 181.978 277.626 181.851 277.696 181.748L288.334 166.15C288.369 166.099 288.414 166.055 288.466 166.021C288.517 165.987 288.576 165.963 288.636 165.952C288.697 165.94 288.76 165.941 288.821 165.954C288.882 165.966 288.939 165.991 288.99 166.026C289.042 166.061 289.085 166.106 289.119 166.158C289.153 166.21 289.177 166.268 289.188 166.329C289.2 166.39 289.199 166.453 289.186 166.513C289.173 166.574 289.149 166.632 289.113 166.683V166.683Z" fill="black"/>
<path d="M207.689 182.025L223.274 192.682C223.377 192.753 223.504 192.779 223.627 192.756C223.75 192.733 223.859 192.662 223.929 192.559C224 192.455 224.026 192.328 224.003 192.205C223.98 192.082 223.909 191.973 223.806 191.902L208.221 181.245C208.17 181.21 208.112 181.186 208.051 181.173C207.991 181.16 207.928 181.159 207.867 181.171C207.806 181.182 207.748 181.205 207.696 181.239C207.644 181.273 207.599 181.317 207.564 181.368C207.529 181.42 207.505 181.477 207.492 181.538C207.479 181.599 207.479 181.662 207.49 181.723C207.502 181.784 207.526 181.842 207.56 181.894C207.594 181.946 207.638 181.99 207.689 182.025V182.025Z" fill="black"/>
<path d="M268.199 246.297C275.077 240.678 284.97 238.955 294.005 239.323C303.039 239.692 311.688 241.851 320.613 242.808C347.886 245.734 377.568 236.646 398.139 219.07C401.475 222.907 400.362 228.542 398.813 233.443C397.264 238.345 395.439 243.694 397.706 248.121C400.608 253.787 408.933 255.518 413.345 260.329C417.534 264.895 417.573 271.492 416.779 277.556C415.985 283.621 414.55 289.892 416.391 295.607C418.231 301.321 424.745 306.209 431.586 304.485C421.789 308.387 411.793 312.34 401.317 313.528C390.841 314.717 381.109 317.588 374.445 311.024C369.709 308.611 362.404 300.994 358.767 297.969C352.572 292.817 343.541 298.455 334.649 298.322C325.757 298.19 320.939 289.553 313.685 285.531C306.773 281.698 303.156 274.839 298.525 268.973C290.741 259.161 279.656 251.747 266.616 247.631" fill="#6C63FF"/>
<path d="M231.618 284.936C220.507 281.766 212.305 276.369 213.299 272.882C214.293 269.395 224.106 269.138 235.217 272.308C246.328 275.478 254.529 280.875 253.535 284.363C252.542 287.85 242.729 288.107 231.618 284.936Z" fill="#2F2E41"/>
<path d="M259.78 313.557C241.583 299.311 238.372 273.016 252.608 254.825C266.845 236.634 293.137 233.435 311.334 247.681C329.531 261.926 332.742 288.221 318.506 306.412C304.27 324.603 277.977 327.802 259.78 313.557Z" fill="#2F2E41"/>
<path d="M319.758 306.055L322.936 293.449L345.238 299.073L342.06 311.678L319.758 306.055Z" fill="#2F2E41"/>
<path d="M298.758 317.762L308.753 309.449L323.46 327.133L313.465 335.446L298.758 317.762Z" fill="#2F2E41"/>
<path d="M346.428 310.717C344.942 316.608 342.002 320.945 339.86 320.405C337.718 319.865 337.185 314.652 338.671 308.761C340.156 302.87 343.096 298.533 345.238 299.073C347.381 299.613 347.913 304.826 346.428 310.717Z" fill="#2F2E41"/>
<path d="M317.945 336.922C313.486 340.63 308.727 342.259 307.314 340.561C305.901 338.862 308.371 334.48 312.829 330.772C317.288 327.064 322.047 325.435 323.46 327.133C324.873 328.832 322.403 333.214 317.945 336.922Z" fill="#2F2E41"/>
<path d="M286.983 284.341C281.029 289.525 271.997 288.899 266.81 282.943C261.623 276.986 262.245 267.955 268.199 262.77C274.153 257.586 283.184 258.212 288.371 264.169C293.558 270.125 292.937 279.157 286.983 284.341Z" fill="white"/>
<path d="M281.116 277.202C279.291 278.888 276.292 278.611 274.418 276.583C272.544 274.554 272.505 271.543 274.33 269.856C276.156 268.17 279.155 268.447 281.029 270.476C282.903 272.504 282.942 275.515 281.116 277.202Z" fill="#3F3D56"/>
<path d="M297.313 230.722C293.378 215.755 276.722 207.204 260.111 211.623C243.501 216.042 233.226 231.759 237.162 246.726C241.097 261.694 253.534 261.519 270.144 257.1C286.755 252.681 301.249 245.69 297.313 230.722Z" fill="#6C63FF"/>
<path d="M315.662 263.159C315.935 259.542 325.493 257.311 337.011 258.175C348.529 259.04 357.646 262.672 357.373 266.289C357.1 269.906 347.542 272.138 336.024 271.273C324.505 270.409 315.389 266.776 315.662 263.159Z" fill="#2F2E41"/>
<path d="M307.595 285.973C309.315 289.622 303.155 301.331 292.552 306.33C281.949 311.328 267.165 305.743 265.445 302.094C263.725 298.446 275.72 298.115 286.323 293.117C296.927 288.118 305.874 282.325 307.595 285.973Z" fill="white"/>
<path d="M441 215C448.732 215 455 208.732 455 201C455 193.268 448.732 187 441 187C433.268 187 427 193.268 427 201C427 208.732 433.268 215 441 215Z" fill="#F2F2F2"/>
<path d="M105.5 72C111.299 72 116 67.299 116 61.5C116 55.701 111.299 51 105.5 51C99.701 51 95 55.701 95 61.5C95 67.299 99.701 72 105.5 72Z" fill="#F2F2F2"/>
<path d="M400.153 144.511L398.262 142.376L400.325 140.549C401.029 139.926 401.448 139.039 401.489 138.083C401.531 137.128 401.192 136.183 400.548 135.455C399.903 134.727 399.005 134.276 398.052 134.202C397.099 134.128 396.168 134.437 395.464 135.06L393.401 136.887L391.51 134.753C390.866 134.025 389.968 133.575 389.015 133.501C388.061 133.427 387.131 133.735 386.427 134.358C385.723 134.981 385.305 135.868 385.263 136.823C385.221 137.779 385.56 138.724 386.205 139.452L388.095 141.587L386.032 143.414C385.328 144.037 384.91 144.924 384.868 145.879C384.826 146.835 385.165 147.78 385.81 148.508C386.454 149.236 387.352 149.686 388.305 149.76C389.259 149.834 390.19 149.526 390.893 148.903L392.956 147.075L394.847 149.21C395.491 149.938 396.389 150.388 397.343 150.462C398.296 150.536 399.227 150.228 399.93 149.604C400.634 148.981 401.053 148.095 401.094 147.139C401.136 146.184 400.797 145.238 400.153 144.511Z" fill="#FFB8B8"/>
<path d="M93.9841 227.599L91.867 228.316L91.1741 226.27C90.9378 225.572 90.4243 225 89.7468 224.679C89.0692 224.359 88.283 224.316 87.5611 224.56C86.8392 224.805 86.2407 225.316 85.8973 225.983C85.5539 226.649 85.4938 227.415 85.7301 228.113L86.423 230.16L84.3059 230.877C83.584 231.121 82.9855 231.633 82.6422 232.299C82.2988 232.965 82.2386 233.732 82.4749 234.43C82.7112 235.127 83.2246 235.7 83.9022 236.02C84.5797 236.341 85.366 236.384 86.0879 236.139L88.205 235.422L88.898 237.469C89.1343 238.167 89.6477 238.739 90.3252 239.059C91.0028 239.38 91.789 239.423 92.5109 239.178C93.2328 238.934 93.8313 238.422 94.1747 237.756C94.5181 237.09 94.5782 236.323 94.3419 235.625L93.649 233.579L95.7661 232.862C96.488 232.618 97.0865 232.106 97.4299 231.44C97.7732 230.773 97.8334 230.007 97.5971 229.309C97.3608 228.611 96.8474 228.039 96.1698 227.718C95.4923 227.398 94.7061 227.355 93.9841 227.599Z" fill="#FFB8B8"/>
</svg>
