<svg width="400" height="400" viewBox="0 0 400 400" fill="none" xmlns="http://www.w3.org/2000/svg">
<rect width="400" height="400"/>
<path d="M64.5571 339.631C90.3709 326.259 143.733 303.825 211.091 303.825C278.448 303.825 331.81 326.259 357.624 339.631C376.071 349.187 380.755 353.849 390.511 362.435C382.316 324.969 344.745 261.355 330.8 236.769C304.262 193.839 269.528 155.326 254.698 137.373C210.391 108.025 200.845 93.4965 147.689 93.5408C128.781 93.4892 110.051 97.1856 92.5832 104.416C75.115 111.647 59.2554 122.267 45.9224 135.664C45.3561 136.23 56.6074 136.8 56.0517 137.373C26.2199 168.168 19.3675 215.196 15.4638 256.672C12.3417 289.845 13.5125 333.555 22.4887 365.557C33.1653 357.615 52.7125 345.698 64.5571 339.631Z" fill="#F2F2F2"/>
<path d="M28.5263 232.763C30.549 232.763 32.1887 231.125 32.1887 229.103C32.1887 227.082 30.549 225.443 28.5263 225.443C26.5036 225.443 24.8639 227.082 24.8639 229.103C24.8639 231.125 26.5036 232.763 28.5263 232.763Z" fill="white"/>
<path d="M284.897 286.092C286.919 286.092 288.559 284.454 288.559 282.432C288.559 280.411 286.919 278.773 284.897 278.773C282.874 278.773 281.234 280.411 281.234 282.432C281.234 284.454 282.874 286.092 284.897 286.092Z" fill="white"/>
<path d="M58.0873 293.412H56.256V291.582C56.256 290.958 56.008 290.36 55.5665 289.918C55.1249 289.477 54.5261 289.229 53.9016 289.229C53.2772 289.229 52.6783 289.477 52.2368 289.918C51.7953 290.36 51.5472 290.958 51.5472 291.582V293.412H49.716C49.0916 293.412 48.4927 293.66 48.0512 294.101C47.6096 294.542 47.3616 295.141 47.3616 295.765C47.3616 296.389 47.6096 296.987 48.0512 297.428C48.4927 297.87 49.0916 298.118 49.716 298.118H51.5472V299.947C51.5472 300.571 51.7953 301.17 52.2368 301.611C52.6783 302.052 53.2772 302.3 53.9016 302.3C54.5261 302.3 55.1249 302.052 55.5665 301.611C56.008 301.17 56.256 300.571 56.256 299.947V298.118H58.0873C58.7117 298.118 59.3105 297.87 59.7521 297.428C60.1936 296.987 60.4417 296.389 60.4417 295.765C60.4417 295.141 60.1936 294.542 59.7521 294.101C59.3105 293.66 58.7117 293.412 58.0873 293.412Z" fill="white"/>
<path d="M327.621 248.532H326.669V247.58C326.669 247.256 326.54 246.945 326.311 246.715C326.081 246.486 325.77 246.357 325.445 246.357C325.12 246.357 324.809 246.486 324.579 246.715C324.35 246.945 324.221 247.256 324.221 247.58V248.532H323.268C322.944 248.532 322.632 248.661 322.403 248.89C322.173 249.12 322.044 249.431 322.044 249.755C322.044 250.08 322.173 250.391 322.403 250.62C322.632 250.85 322.944 250.979 323.268 250.979H324.221V251.93C324.221 252.255 324.35 252.566 324.579 252.795C324.809 253.025 325.12 253.154 325.445 253.154C325.77 253.154 326.081 253.025 326.311 252.795C326.54 252.566 326.669 252.255 326.669 251.93V250.979H327.621C327.946 250.979 328.258 250.85 328.487 250.62C328.717 250.391 328.846 250.08 328.846 249.755C328.846 249.431 328.717 249.12 328.487 248.89C328.258 248.661 327.946 248.532 327.621 248.532Z" fill="#FFB8B8"/>
<path d="M49.7999 185.269H48.8477V184.317C48.8477 184.157 48.816 183.997 48.7545 183.849C48.6929 183.701 48.6028 183.566 48.4891 183.452C48.3754 183.339 48.2404 183.248 48.0919 183.187C47.9433 183.125 47.7841 183.094 47.6234 183.094C47.4626 183.094 47.3034 183.125 47.1548 183.187C47.0063 183.248 46.8713 183.339 46.7577 183.452C46.644 183.566 46.5538 183.701 46.4923 183.849C46.4307 183.997 46.3991 184.157 46.3991 184.317V185.269H45.4468C45.1221 185.269 44.8107 185.398 44.5811 185.627C44.3515 185.857 44.2225 186.168 44.2225 186.492C44.2225 186.817 44.3515 187.128 44.5811 187.357C44.8107 187.587 45.1221 187.716 45.4468 187.716H46.3991V188.667C46.3991 188.828 46.4307 188.987 46.4923 189.135C46.5538 189.284 46.644 189.419 46.7577 189.532C46.8713 189.646 47.0063 189.736 47.1548 189.798C47.3034 189.859 47.4626 189.891 47.6234 189.891C47.7841 189.891 47.9433 189.859 48.0919 189.798C48.2404 189.736 48.3754 189.646 48.4891 189.532C48.6028 189.419 48.6929 189.284 48.7545 189.135C48.816 188.987 48.8477 188.828 48.8477 188.667V187.716H49.7999C50.1246 187.716 50.436 187.587 50.6656 187.357C50.8952 187.128 51.0242 186.817 51.0242 186.492C51.0242 186.168 50.8952 185.857 50.6656 185.627C50.436 185.398 50.1246 185.269 49.7999 185.269Z" fill="#6C63FF" fill-opacity="0.7"/>
<path d="M120.432 185.269H119.48V184.317C119.48 183.993 119.351 183.682 119.122 183.452C118.892 183.223 118.581 183.094 118.256 183.094C117.931 183.094 117.62 183.223 117.39 183.452C117.161 183.682 117.032 183.993 117.032 184.317V185.269H116.079C115.755 185.269 115.443 185.398 115.214 185.627C114.984 185.857 114.855 186.168 114.855 186.492C114.855 186.817 114.984 187.128 115.214 187.357C115.443 187.587 115.755 187.716 116.079 187.716H117.032V188.667C117.032 188.992 117.161 189.303 117.39 189.532C117.62 189.762 117.931 189.891 118.256 189.891C118.581 189.891 118.892 189.762 119.122 189.532C119.351 189.303 119.48 188.992 119.48 188.667V187.716H120.432C120.757 187.716 121.069 187.587 121.298 187.357C121.528 187.128 121.657 186.817 121.657 186.492C121.657 186.168 121.528 185.857 121.298 185.627C121.069 185.398 120.757 185.269 120.432 185.269Z" fill="white"/>
<path d="M363.722 310.749H362.77V309.798C362.77 309.473 362.641 309.162 362.412 308.932C362.182 308.703 361.871 308.574 361.546 308.574C361.221 308.574 360.91 308.703 360.68 308.932C360.451 309.162 360.322 309.473 360.322 309.798V310.749H359.369C359.045 310.749 358.733 310.878 358.504 311.107C358.274 311.337 358.145 311.648 358.145 311.973C358.145 312.297 358.274 312.608 358.504 312.838C358.733 313.067 359.045 313.196 359.369 313.196H360.322V314.148C360.322 314.472 360.451 314.783 360.68 315.013C360.91 315.242 361.221 315.371 361.546 315.371C361.871 315.371 362.182 315.242 362.412 315.013C362.641 314.783 362.77 314.472 362.77 314.148V313.196H363.722C364.047 313.196 364.359 313.067 364.588 312.838C364.818 312.608 364.947 312.297 364.947 311.973C364.947 311.648 364.818 311.337 364.588 311.107C364.359 310.878 364.047 310.749 363.722 310.749Z" fill="white"/>
<path d="M253.85 208.796H252.897V207.845C252.897 207.52 252.768 207.209 252.539 206.98C252.309 206.75 251.998 206.621 251.673 206.621C251.348 206.621 251.037 206.75 250.807 206.98C250.578 207.209 250.449 207.52 250.449 207.845V208.796H249.497C249.172 208.796 248.86 208.925 248.631 209.155C248.401 209.384 248.272 209.695 248.272 210.02C248.272 210.344 248.401 210.655 248.631 210.885C248.86 211.114 249.172 211.243 249.497 211.243H250.449V212.195C250.449 212.519 250.578 212.83 250.807 213.06C251.037 213.289 251.348 213.418 251.673 213.418C251.998 213.418 252.309 213.289 252.539 213.06C252.768 212.83 252.897 212.519 252.897 212.195V211.243H253.85C254.174 211.243 254.486 211.114 254.715 210.885C254.945 210.655 255.074 210.344 255.074 210.02C255.074 209.695 254.945 209.384 254.715 209.155C254.486 208.925 254.174 208.796 253.85 208.796Z" fill="white"/>
<path d="M85.901 234.938H84.9487V233.986C84.9487 233.662 84.8197 233.351 84.5901 233.121C84.3605 232.892 84.0491 232.763 83.7244 232.763C83.3997 232.763 83.0883 232.892 82.8587 233.121C82.6291 233.351 82.5001 233.662 82.5001 233.986V234.938H81.5479C81.2232 234.938 80.9118 235.067 80.6822 235.296C80.4526 235.526 80.3236 235.837 80.3236 236.161C80.3236 236.486 80.4526 236.797 80.6822 237.027C80.9118 237.256 81.2232 237.385 81.5479 237.385H82.5001V238.336C82.5001 238.661 82.6291 238.972 82.8587 239.202C83.0883 239.431 83.3997 239.56 83.7244 239.56C84.0491 239.56 84.3605 239.431 84.5901 239.202C84.8197 238.972 84.9487 238.661 84.9487 238.336V237.385H85.901C86.2257 237.385 86.5371 237.256 86.7667 237.027C86.9963 236.797 87.1253 236.486 87.1253 236.161C87.1253 235.837 86.9963 235.526 86.7667 235.296C86.5371 235.067 86.2257 234.938 85.901 234.938Z" fill="white"/>
<path d="M88.74 148.24H87.76V147.26C87.76 146.926 87.6273 146.605 87.391 146.369C87.1547 146.133 86.8342 146 86.5 146C86.1658 146 85.8453 146.133 85.609 146.369C85.3727 146.605 85.24 146.926 85.24 147.26V148.24H84.26C83.9258 148.24 83.6053 148.373 83.369 148.609C83.1327 148.845 83 149.166 83 149.5C83 149.834 83.1327 150.155 83.369 150.391C83.6053 150.627 83.9258 150.76 84.26 150.76H85.24V151.74C85.24 152.074 85.3727 152.395 85.609 152.631C85.8453 152.867 86.1658 153 86.5 153C86.8342 153 87.1547 152.867 87.391 152.631C87.6273 152.395 87.76 152.074 87.76 151.74V150.76H88.74C89.0742 150.76 89.3947 150.627 89.631 150.391C89.8673 150.155 90 149.834 90 149.5C90 149.166 89.8673 148.845 89.631 148.609C89.3947 148.373 89.0742 148.24 88.74 148.24Z" fill="white"/>
<path d="M164.5 280C178.031 280 189 268.807 189 255C189 241.193 178.031 230 164.5 230C150.969 230 140 241.193 140 255C140 268.807 150.969 280 164.5 280Z" fill="#2F2E41"/>
<path d="M155.435 271.587L143.331 277.647L146.714 284.401L158.818 278.341L155.435 271.587Z" fill="#2F2E41"/>
<path d="M148.31 283.716C149.028 282.627 147.256 280.194 144.353 278.28C141.45 276.366 138.515 275.697 137.797 276.786C137.079 277.874 138.851 280.308 141.754 282.221C144.657 284.135 147.592 284.804 148.31 283.716Z" fill="#2F2E41"/>
<path d="M174.35 271.587L170.967 278.341L183.071 284.401L186.454 277.647L174.35 271.587Z" fill="#2F2E41"/>
<path d="M188.031 282.221C190.934 280.308 192.706 277.874 191.988 276.786C191.27 275.697 188.335 276.366 185.432 278.28C182.529 280.194 180.757 282.627 181.475 283.716C182.193 284.804 185.128 284.135 188.031 282.221Z" fill="#2F2E41"/>
<path d="M163 258C167.971 258 172 254.194 172 249.5C172 244.806 167.971 241 163 241C158.029 241 154 244.806 154 249.5C154 254.194 158.029 258 163 258Z" fill="white"/>
<path d="M165.219 247.541C166.321 246.439 166.315 244.647 165.205 243.538C164.095 242.428 162.302 242.422 161.201 243.524C160.099 244.625 160.105 246.418 161.215 247.527C162.324 248.636 164.117 248.643 165.219 247.541Z" fill="#3F3D56"/>
<path d="M184.987 228.244C185.373 218.61 177.185 210.45 166.699 210.018C156.214 209.586 147.401 217.046 147.015 226.68C146.629 236.313 153.918 238.502 164.403 238.934C174.889 239.366 184.601 237.878 184.987 228.244Z" fill="#6C63FF"/>
<path d="M198.848 268.271C200.484 266.867 198.183 261.506 193.71 256.296C189.236 251.087 184.284 248.002 182.648 249.406C181.012 250.81 183.312 256.171 187.786 261.381C192.259 266.59 197.212 269.675 198.848 268.271Z" fill="#2F2E41"/>
<path d="M142.069 261.381C146.542 256.171 148.843 250.81 147.207 249.406C145.571 248.002 140.618 251.087 136.145 256.296C131.671 261.506 129.371 266.867 131.007 268.271C132.643 269.675 137.595 266.59 142.069 261.381Z" fill="#2F2E41"/>
<path d="M171.911 264.76C172.172 266.141 171.853 267.565 171.022 268.719C170.191 269.873 168.918 270.663 167.482 270.914C166.046 271.166 164.564 270.858 163.364 270.06C162.164 269.261 161.342 268.036 161.081 266.655L161.079 266.645C160.538 263.769 162.85 262.751 165.841 262.23C168.833 261.71 171.37 261.883 171.911 264.76Z" fill="white"/>
<path d="M122.5 282C122.102 282 121.721 281.874 121.439 281.65C121.158 281.425 121 281.121 121 280.803V210.197C121 209.879 121.158 209.575 121.439 209.351C121.721 209.126 122.102 209 122.5 209C122.898 209 123.279 209.126 123.561 209.351C123.842 209.575 124 209.879 124 210.197V280.803C124 281.121 123.842 281.425 123.561 281.65C123.279 281.874 122.898 282 122.5 282Z" fill="#CCCCCC"/>
<path d="M105 344C104.735 344 104.48 343.876 104.293 343.655C104.105 343.434 104 343.135 104 342.822V292.178C104 291.865 104.105 291.566 104.293 291.345C104.48 291.124 104.735 291 105 291C105.265 291 105.52 291.124 105.707 291.345C105.895 291.566 106 291.865 106 292.178V342.822C106 343.135 105.895 343.434 105.707 343.655C105.52 343.876 105.265 344 105 344Z" fill="#CCCCCC"/>
<path d="M150.5 303C150.102 303 149.721 302.874 149.439 302.65C149.158 302.425 149 302.121 149 301.803V231.197C149 230.879 149.158 230.575 149.439 230.351C149.721 230.126 150.102 230 150.5 230C150.898 230 151.279 230.126 151.561 230.351C151.842 230.575 152 230.879 152 231.197V301.803C152 302.121 151.842 302.425 151.561 302.65C151.279 302.874 150.898 303 150.5 303Z" fill="#CCCCCC"/>
<path d="M134 353C133.735 353 133.48 352.874 133.293 352.651C133.105 352.427 133 352.124 133 351.808V323.192C133 322.876 133.105 322.573 133.293 322.349C133.48 322.126 133.735 322 134 322C134.265 322 134.52 322.126 134.707 322.349C134.895 322.573 135 322.876 135 323.192V351.808C135 352.124 134.895 352.427 134.707 352.651C134.52 352.874 134.265 353 134 353Z" fill="#CCCCCC"/>
<path d="M158 207C157.47 207 156.961 206.874 156.586 206.651C156.211 206.427 156 206.124 156 205.808V177.192C156 176.876 156.211 176.573 156.586 176.349C156.961 176.126 157.47 176 158 176C158.53 176 159.039 176.126 159.414 176.349C159.789 176.573 160 176.876 160 177.192V205.808C160 206.124 159.789 206.427 159.414 206.651C159.039 206.874 158.53 207 158 207Z" fill="#CCCCCC"/>
<path d="M99 220C98.7348 220 98.4804 219.874 98.2929 219.651C98.1054 219.427 98 219.124 98 218.808V190.192C98 189.876 98.1054 189.573 98.2929 189.349C98.4804 189.126 98.7348 189 99 189C99.2652 189 99.5196 189.126 99.7071 189.349C99.8946 189.573 100 189.876 100 190.192V218.808C100 219.124 99.8946 219.427 99.7071 219.651C99.5196 219.874 99.2652 220 99 220Z" fill="#CCCCCC"/>
<path d="M202 223C201.735 223 201.48 222.874 201.293 222.651C201.105 222.427 201 222.124 201 221.808V193.192C201 192.876 201.105 192.573 201.293 192.349C201.48 192.126 201.735 192 202 192C202.265 192 202.52 192.126 202.707 192.349C202.895 192.573 203 192.876 203 193.192V221.808C203 222.124 202.895 222.427 202.707 222.651C202.52 222.874 202.265 223 202 223Z" fill="#CCCCCC"/>
<path d="M199.5 311C199.102 311 198.721 310.874 198.439 310.65C198.158 310.427 198 310.123 198 309.807V275.194C198 274.877 198.158 274.573 198.439 274.35C198.721 274.126 199.102 274 199.5 274C199.898 274 200.279 274.126 200.561 274.35C200.842 274.573 201 274.877 201 275.194V309.807C201 310.123 200.842 310.427 200.561 310.65C200.279 310.874 199.898 311 199.5 311Z" fill="#CCCCCC"/>
<path d="M176 341C175.735 341 175.48 340.876 175.293 340.655C175.105 340.434 175 340.135 175 339.822V289.178C175 288.865 175.105 288.566 175.293 288.345C175.48 288.124 175.735 288 176 288C176.265 288 176.52 288.124 176.707 288.345C176.895 288.566 177 288.865 177 289.178V339.822C177 340.135 176.895 340.434 176.707 340.655C176.52 340.876 176.265 341 176 341Z" fill="#CCCCCC"/>
<path d="M180.5 255C180.102 255 179.721 254.876 179.439 254.654C179.158 254.433 179 254.133 179 253.82V184.18C179 183.867 179.158 183.567 179.439 183.346C179.721 183.124 180.102 183 180.5 183C180.898 183 181.279 183.124 181.561 183.346C181.842 183.567 182 183.867 182 184.18V253.82C182 254.133 181.842 254.433 181.561 254.654C181.279 254.876 180.898 255 180.5 255Z" fill="#CCCCCC"/>
<path d="M214.455 101.55C194.198 99.1129 171.203 98.278 147.324 99.1903C125.471 100.025 104.471 102.26 85.7304 105.678C85.7238 105.389 85.717 105.1 85.7188 104.811C85.5781 88.0322 92.0203 71.8628 103.669 59.7589C115.317 47.655 131.247 40.5769 148.055 40.0373C164.862 39.4978 181.213 45.5396 193.613 56.8715C206.013 68.2034 213.478 83.9263 214.413 100.68C214.429 100.973 214.444 101.261 214.455 101.55Z" fill="#6C63FF"/>
<mask id="path-34-inside-1" fill="white">
<path d="M242.808 105.872C233.431 103.723 223.941 102.094 214.382 100.993C198.715 99.187 182.955 98.2854 167.183 98.2933C160.612 98.2771 153.925 98.3947 147.169 98.6528C141.815 98.8574 136.507 99.1463 131.277 99.5186C115.93 100.557 100.653 102.431 85.5118 105.133C74.3028 107.107 63.2302 109.784 52.3601 113.148C27.022 121.171 13.2795 131.151 13.6652 141.246C14.0509 151.342 28.5148 160.244 54.3912 166.311C72.5892 170.58 94.9218 173.11 119.174 173.735C129.185 173.999 139.521 173.931 150.03 173.53C160.574 173.127 170.919 172.4 180.911 171.372C202.874 169.115 223.132 165.406 240.018 160.494C240.108 160.465 240.193 160.44 240.283 160.415C241.423 160.087 242.545 159.747 243.653 159.407C244.051 159.28 244.445 159.157 244.839 159.034C244.861 159.024 244.884 159.016 244.907 159.01C245.284 158.892 245.656 158.77 246.028 158.653C246.773 158.409 247.508 158.17 248.231 157.922C248.265 157.912 248.295 157.903 248.325 157.893C248.954 157.679 249.569 157.466 250.18 157.253C250.68 157.074 251.176 156.9 251.667 156.722C252.026 156.592 252.381 156.462 252.731 156.332C252.987 156.236 253.239 156.145 253.487 156.049C253.824 155.924 254.161 155.795 254.494 155.666C254.635 155.613 254.776 155.56 254.912 155.504C255.233 155.384 255.544 155.26 255.856 155.136C256.193 155.002 256.53 154.864 256.862 154.731C257.14 154.621 257.417 154.507 257.689 154.393C257.92 154.294 258.146 154.199 258.376 154.104C259.002 153.843 259.616 153.574 260.221 153.31C260.523 153.173 260.826 153.041 261.124 152.905C261.417 152.773 261.715 152.636 262.005 152.5C262.481 152.28 262.949 152.059 263.409 151.839C263.63 151.727 263.855 151.619 264.072 151.516C264.238 151.432 264.399 151.353 264.565 151.269C264.684 151.213 264.803 151.152 264.918 151.092C265.347 150.877 265.772 150.658 266.188 150.44C267.784 149.603 269.272 148.754 270.651 147.891C279.303 142.514 283.756 136.745 283.534 130.936C283.148 120.84 268.684 111.938 242.808 105.872ZM244.574 158.217C226.733 163.868 204.598 168.096 180.399 170.559C170.558 171.56 160.372 172.273 149.997 172.669C139.656 173.064 129.481 173.134 119.622 172.886C95.267 172.282 72.8392 169.756 54.5932 165.475C29.1274 159.501 14.8998 150.887 14.5302 141.213C14.4989 140.359 14.5739 139.503 14.7535 138.667C16.6256 129.855 29.8805 121.169 52.6252 113.965C63.4132 110.628 74.4008 107.967 85.5233 105.998C100.755 103.282 116.125 101.4 131.564 100.361C136.713 99.9961 141.926 99.7136 147.202 99.5135C153.867 99.2588 160.463 99.1404 166.951 99.1511C182.815 99.1344 198.667 100.04 214.424 101.862C223.901 102.96 233.309 104.577 242.606 106.707C265.83 112.155 279.704 119.8 282.247 128.438C282.494 129.261 282.635 130.111 282.669 130.969C283.038 140.643 269.509 150.317 244.574 158.217Z"/>
<path d="M244.574 158.217C226.733 163.868 204.598 168.096 180.399 170.559C170.558 171.56 160.372 172.273 149.997 172.669C139.656 173.064 129.481 173.134 119.622 172.886C95.267 172.282 72.8392 169.756 54.5932 165.475C29.1274 159.501 14.8998 150.887 14.5302 141.213C14.4989 140.359 14.5739 139.503 14.7535 138.667C16.6256 129.855 29.8805 121.169 52.6252 113.965C63.4132 110.628 74.4008 107.967 85.5233 105.998C100.755 103.282 116.125 101.4 131.564 100.361C136.713 99.9961 141.926 99.7136 147.202 99.5135C153.867 99.2588 160.463 99.1404 166.951 99.1511C182.815 99.1344 198.667 100.04 214.424 101.862C223.901 102.96 233.309 104.577 242.606 106.707C265.83 112.155 279.704 119.8 282.247 128.438C282.494 129.261 282.635 130.111 282.669 130.969C283.038 140.643 269.509 150.317 244.574 158.217Z"/>
</mask>
<path d="M242.808 105.872C233.431 103.723 223.941 102.094 214.382 100.993C198.715 99.187 182.955 98.2854 167.183 98.2933C160.612 98.2771 153.925 98.3947 147.169 98.6528C141.815 98.8574 136.507 99.1463 131.277 99.5186C115.93 100.557 100.653 102.431 85.5118 105.133C74.3028 107.107 63.2302 109.784 52.3601 113.148C27.022 121.171 13.2795 131.151 13.6652 141.246C14.0509 151.342 28.5148 160.244 54.3912 166.311C72.5892 170.58 94.9218 173.11 119.174 173.735C129.185 173.999 139.521 173.931 150.03 173.53C160.574 173.127 170.919 172.4 180.911 171.372C202.874 169.115 223.132 165.406 240.018 160.494C240.108 160.465 240.193 160.44 240.283 160.415C241.423 160.087 242.545 159.747 243.653 159.407C244.051 159.28 244.445 159.157 244.839 159.034C244.861 159.024 244.884 159.016 244.907 159.01C245.284 158.892 245.656 158.77 246.028 158.653C246.773 158.409 247.508 158.17 248.231 157.922C248.265 157.912 248.295 157.903 248.325 157.893C248.954 157.679 249.569 157.466 250.18 157.253C250.68 157.074 251.176 156.9 251.667 156.722C252.026 156.592 252.381 156.462 252.731 156.332C252.987 156.236 253.239 156.145 253.487 156.049C253.824 155.924 254.161 155.795 254.494 155.666C254.635 155.613 254.776 155.56 254.912 155.504C255.233 155.384 255.544 155.26 255.856 155.136C256.193 155.002 256.53 154.864 256.862 154.731C257.14 154.621 257.417 154.507 257.689 154.393C257.92 154.294 258.146 154.199 258.376 154.104C259.002 153.843 259.616 153.574 260.221 153.31C260.523 153.173 260.826 153.041 261.124 152.905C261.417 152.773 261.715 152.636 262.005 152.5C262.481 152.28 262.949 152.059 263.409 151.839C263.63 151.727 263.855 151.619 264.072 151.516C264.238 151.432 264.399 151.353 264.565 151.269C264.684 151.213 264.803 151.152 264.918 151.092C265.347 150.877 265.772 150.658 266.188 150.44C267.784 149.603 269.272 148.754 270.651 147.891C279.303 142.514 283.756 136.745 283.534 130.936C283.148 120.84 268.684 111.938 242.808 105.872ZM244.574 158.217C226.733 163.868 204.598 168.096 180.399 170.559C170.558 171.56 160.372 172.273 149.997 172.669C139.656 173.064 129.481 173.134 119.622 172.886C95.267 172.282 72.8392 169.756 54.5932 165.475C29.1274 159.501 14.8998 150.887 14.5302 141.213C14.4989 140.359 14.5739 139.503 14.7535 138.667C16.6256 129.855 29.8805 121.169 52.6252 113.965C63.4132 110.628 74.4008 107.967 85.5233 105.998C100.755 103.282 116.125 101.4 131.564 100.361C136.713 99.9961 141.926 99.7136 147.202 99.5135C153.867 99.2588 160.463 99.1404 166.951 99.1511C182.815 99.1344 198.667 100.04 214.424 101.862C223.901 102.96 233.309 104.577 242.606 106.707C265.83 112.155 279.704 119.8 282.247 128.438C282.494 129.261 282.635 130.111 282.669 130.969C283.038 140.643 269.509 150.317 244.574 158.217Z" fill="#6C63FF"/>
<path d="M242.808 105.872C233.431 103.723 223.941 102.094 214.382 100.993C198.715 99.187 182.955 98.2854 167.183 98.2933C160.612 98.2771 153.925 98.3947 147.169 98.6528C141.815 98.8574 136.507 99.1463 131.277 99.5186C115.93 100.557 100.653 102.431 85.5118 105.133C74.3028 107.107 63.2302 109.784 52.3601 113.148C27.022 121.171 13.2795 131.151 13.6652 141.246C14.0509 151.342 28.5148 160.244 54.3912 166.311C72.5892 170.58 94.9218 173.11 119.174 173.735C129.185 173.999 139.521 173.931 150.03 173.53C160.574 173.127 170.919 172.4 180.911 171.372C202.874 169.115 223.132 165.406 240.018 160.494C240.108 160.465 240.193 160.44 240.283 160.415C241.423 160.087 242.545 159.747 243.653 159.407C244.051 159.28 244.445 159.157 244.839 159.034C244.861 159.024 244.884 159.016 244.907 159.01C245.284 158.892 245.656 158.77 246.028 158.653C246.773 158.409 247.508 158.17 248.231 157.922C248.265 157.912 248.295 157.903 248.325 157.893C248.954 157.679 249.569 157.466 250.18 157.253C250.68 157.074 251.176 156.9 251.667 156.722C252.026 156.592 252.381 156.462 252.731 156.332C252.987 156.236 253.239 156.145 253.487 156.049C253.824 155.924 254.161 155.795 254.494 155.666C254.635 155.613 254.776 155.56 254.912 155.504C255.233 155.384 255.544 155.26 255.856 155.136C256.193 155.002 256.53 154.864 256.862 154.731C257.14 154.621 257.417 154.507 257.689 154.393C257.92 154.294 258.146 154.199 258.376 154.104C259.002 153.843 259.616 153.574 260.221 153.31C260.523 153.173 260.826 153.041 261.124 152.905C261.417 152.773 261.715 152.636 262.005 152.5C262.481 152.28 262.949 152.059 263.409 151.839C263.63 151.727 263.855 151.619 264.072 151.516C264.238 151.432 264.399 151.353 264.565 151.269C264.684 151.213 264.803 151.152 264.918 151.092C265.347 150.877 265.772 150.658 266.188 150.44C267.784 149.603 269.272 148.754 270.651 147.891C279.303 142.514 283.756 136.745 283.534 130.936C283.148 120.84 268.684 111.938 242.808 105.872ZM244.574 158.217C226.733 163.868 204.598 168.096 180.399 170.559C170.558 171.56 160.372 172.273 149.997 172.669C139.656 173.064 129.481 173.134 119.622 172.886C95.267 172.282 72.8392 169.756 54.5932 165.475C29.1274 159.501 14.8998 150.887 14.5302 141.213C14.4989 140.359 14.5739 139.503 14.7535 138.667C16.6256 129.855 29.8805 121.169 52.6252 113.965C63.4132 110.628 74.4008 107.967 85.5233 105.998C100.755 103.282 116.125 101.4 131.564 100.361C136.713 99.9961 141.926 99.7136 147.202 99.5135C153.867 99.2588 160.463 99.1404 166.951 99.1511C182.815 99.1344 198.667 100.04 214.424 101.862C223.901 102.96 233.309 104.577 242.606 106.707C265.83 112.155 279.704 119.8 282.247 128.438C282.494 129.261 282.635 130.111 282.669 130.969C283.038 140.643 269.509 150.317 244.574 158.217Z" fill="white"/>
<path d="M244.574 158.217C226.733 163.868 204.598 168.096 180.399 170.559C170.558 171.56 160.372 172.273 149.997 172.669C139.656 173.064 129.481 173.134 119.622 172.886C95.267 172.282 72.8392 169.756 54.5932 165.475C29.1274 159.501 14.8998 150.887 14.5302 141.213C14.4989 140.359 14.5739 139.503 14.7535 138.667C16.6256 129.855 29.8805 121.169 52.6252 113.965C63.4132 110.628 74.4008 107.967 85.5233 105.998C100.755 103.282 116.125 101.4 131.564 100.361C136.713 99.9961 141.926 99.7136 147.202 99.5135C153.867 99.2588 160.463 99.1404 166.951 99.1511C182.815 99.1344 198.667 100.04 214.424 101.862C223.901 102.96 233.309 104.577 242.606 106.707C265.83 112.155 279.704 119.8 282.247 128.438C282.494 129.261 282.635 130.111 282.669 130.969C283.038 140.643 269.509 150.317 244.574 158.217Z" fill="#6C63FF"/>
<path d="M244.574 158.217C226.733 163.868 204.598 168.096 180.399 170.559C170.558 171.56 160.372 172.273 149.997 172.669C139.656 173.064 129.481 173.134 119.622 172.886C95.267 172.282 72.8392 169.756 54.5932 165.475C29.1274 159.501 14.8998 150.887 14.5302 141.213C14.4989 140.359 14.5739 139.503 14.7535 138.667C16.6256 129.855 29.8805 121.169 52.6252 113.965C63.4132 110.628 74.4008 107.967 85.5233 105.998C100.755 103.282 116.125 101.4 131.564 100.361C136.713 99.9961 141.926 99.7136 147.202 99.5135C153.867 99.2588 160.463 99.1404 166.951 99.1511C182.815 99.1344 198.667 100.04 214.424 101.862C223.901 102.96 233.309 104.577 242.606 106.707C265.83 112.155 279.704 119.8 282.247 128.438C282.494 129.261 282.635 130.111 282.669 130.969C283.038 140.643 269.509 150.317 244.574 158.217Z" fill="white"/>
<path d="M244.574 158.217L244.725 158.694L244.725 158.694L244.574 158.217ZM180.399 170.559L180.449 171.057L180.449 171.057L180.399 170.559ZM119.622 172.886L119.635 172.386L119.635 172.386L119.622 172.886ZM54.5932 165.475L54.7074 164.989L54.7074 164.989L54.5932 165.475ZM14.5302 141.213L14.0305 141.232L14.0306 141.233L14.5302 141.213ZM14.7535 138.667L15.2424 138.772L15.2426 138.77L14.7535 138.667ZM52.6252 113.965L52.4774 113.488L52.4742 113.489L52.6252 113.965ZM85.5233 105.998L85.6104 106.491L85.6111 106.491L85.5233 105.998ZM131.564 100.361L131.598 100.86L131.6 100.86L131.564 100.361ZM147.202 99.5135L147.221 100.013L147.221 100.013L147.202 99.5135ZM166.951 99.1511L166.95 99.6511L166.952 99.6511L166.951 99.1511ZM214.424 101.862L214.482 101.366L214.482 101.366L214.424 101.862ZM242.606 106.707L242.72 106.22L242.717 106.22L242.606 106.707ZM282.247 128.438L281.768 128.579L281.768 128.582L282.247 128.438ZM282.669 130.969L283.168 130.95L283.168 130.949L282.669 130.969ZM244.423 157.74C226.623 163.378 204.524 167.601 180.348 170.062L180.449 171.057C204.673 168.591 226.843 164.357 244.725 158.694L244.423 157.74ZM180.348 170.062C170.518 171.062 160.343 171.773 149.978 172.169L150.016 173.169C160.402 172.772 170.598 172.059 180.449 171.057L180.348 170.062ZM149.978 172.169C139.647 172.564 129.482 172.634 119.635 172.386L119.61 173.386C129.479 173.634 139.665 173.564 150.016 173.169L149.978 172.169ZM119.635 172.386C95.3033 171.783 72.9112 169.259 54.7074 164.989L54.479 165.962C72.7671 170.253 95.2307 172.781 119.61 173.386L119.635 172.386ZM54.7074 164.989C41.9984 162.007 32.1322 158.375 25.4096 154.304C18.6685 150.222 15.2048 145.774 15.0298 141.194L14.0306 141.233C14.2252 146.327 18.0601 151.023 24.8916 155.16C31.7417 159.308 41.7222 162.97 54.479 165.962L54.7074 164.989ZM15.0299 141.195C15.0001 140.382 15.0715 139.568 15.2424 138.772L14.2646 138.562C14.0764 139.439 13.9978 140.336 14.0305 141.232L15.0299 141.195ZM15.2426 138.77C16.137 134.561 19.7809 130.282 26.1355 126.132C32.474 121.993 41.4269 118.037 52.7762 114.442L52.4742 113.489C41.0788 117.098 32.0319 121.087 25.5887 125.295C19.1616 129.492 15.2421 133.961 14.2644 138.563L15.2426 138.77ZM52.773 114.443C63.5411 111.111 74.5084 108.455 85.6104 106.491L85.4362 105.506C74.2932 107.478 63.2853 110.144 52.4774 113.488L52.773 114.443ZM85.6111 106.491C100.825 103.777 116.177 101.897 131.598 100.86L131.531 99.862C116.074 100.902 100.685 102.786 85.4355 105.506L85.6111 106.491ZM131.6 100.86C136.743 100.495 141.95 100.213 147.221 100.013L147.183 99.0138C141.902 99.2142 136.683 99.4969 131.529 99.8621L131.6 100.86ZM147.221 100.013C153.879 99.7587 160.468 99.6404 166.95 99.6511L166.952 98.6511C160.457 98.6404 153.854 98.759 147.183 99.0138L147.221 100.013ZM166.952 99.6511C182.797 99.6344 198.629 100.539 214.367 102.359L214.482 101.366C198.705 99.5408 182.834 98.6344 166.951 98.6511L166.952 99.6511ZM214.367 102.359C223.825 103.454 233.215 105.069 242.494 107.194L242.717 106.22C233.403 104.086 223.977 102.465 214.482 101.366L214.367 102.359ZM242.492 107.194C254.08 109.912 263.306 113.172 269.941 116.814C276.593 120.466 280.553 124.452 281.768 128.579L282.727 128.297C281.399 123.786 277.15 119.631 270.422 115.938C263.678 112.236 254.355 108.95 242.72 106.22L242.492 107.194ZM281.768 128.582C282.003 129.364 282.137 130.173 282.169 130.989L283.168 130.949C283.133 130.05 282.985 129.158 282.726 128.295L281.768 128.582ZM282.169 130.988C282.344 135.568 279.23 140.267 272.82 144.852C266.428 149.424 256.867 153.798 244.423 157.74L244.725 158.694C257.216 154.736 266.888 150.324 273.402 145.665C279.898 141.019 283.363 136.044 283.168 130.95L282.169 130.988ZM242.808 105.872L243.036 104.898L243.031 104.897L242.808 105.872ZM214.382 100.993L214.268 101.987L214.268 101.987L214.382 100.993ZM167.183 98.2933L167.18 99.2933L167.183 99.2933L167.183 98.2933ZM131.277 99.5186L131.344 100.516L131.348 100.516L131.277 99.5186ZM85.5118 105.133L85.6853 106.118L85.6874 106.117L85.5118 105.133ZM52.3601 113.148L52.0644 112.193L52.0582 112.195L52.3601 113.148ZM54.3912 166.311L54.6196 165.337L54.6194 165.337L54.3912 166.311ZM119.174 173.735L119.201 172.735L119.2 172.735L119.174 173.735ZM180.911 171.372L180.809 170.377L180.808 170.377L180.911 171.372ZM240.018 160.494L240.297 161.454L240.312 161.45L240.328 161.445L240.018 160.494ZM240.283 160.415L240.551 161.379L240.56 161.376L240.283 160.415ZM243.653 159.407L243.946 160.363L243.958 160.36L243.653 159.407ZM244.839 159.034L245.137 159.989L245.195 159.971L245.252 159.945L244.839 159.034ZM244.907 159.01L245.159 159.978L245.183 159.972L245.206 159.965L244.907 159.01ZM246.028 158.653L246.33 159.606L246.34 159.603L246.028 158.653ZM248.231 157.922L247.953 156.962L247.93 156.968L247.907 156.976L248.231 157.922ZM248.325 157.893L248.634 158.844L248.647 158.84L248.325 157.893ZM250.18 157.253L250.509 158.197L250.517 158.195L250.18 157.253ZM251.667 156.722L251.327 155.782L251.326 155.782L251.667 156.722ZM252.731 156.332L253.078 157.27L253.082 157.269L252.731 156.332ZM253.487 156.049L253.139 155.111L253.126 155.117L253.487 156.049ZM254.494 155.666L254.143 154.73L254.133 154.734L254.494 155.666ZM254.912 155.504L254.562 154.567L254.544 154.574L254.527 154.581L254.912 155.504ZM255.856 155.136L255.487 154.206L255.486 154.207L255.856 155.136ZM256.862 154.731L256.494 153.801L256.49 153.803L256.862 154.731ZM257.689 154.393L258.075 155.316L258.086 155.312L257.689 154.393ZM258.376 154.104L258.757 155.029L258.76 155.027L258.376 154.104ZM260.221 153.31L260.622 154.226L260.633 154.221L260.221 153.31ZM261.124 152.905L260.714 151.992L260.707 151.995L261.124 152.905ZM262.005 152.5L261.584 151.593L261.579 151.595L262.005 152.5ZM263.409 151.839L263.841 152.741L263.851 152.736L263.86 152.731L263.409 151.839ZM264.072 151.516L264.501 152.42L264.513 152.414L264.524 152.409L264.072 151.516ZM264.565 151.269L264.138 150.365L264.126 150.371L264.113 150.377L264.565 151.269ZM264.918 151.092L264.47 150.198L264.461 150.202L264.452 150.207L264.918 151.092ZM266.188 150.44L265.724 149.554L265.723 149.555L266.188 150.44ZM270.651 147.891L270.123 147.041L270.12 147.043L270.651 147.891ZM283.534 130.936L284.533 130.898L283.534 130.936ZM243.031 104.897C233.618 102.74 224.092 101.105 214.497 100L214.268 101.987C223.79 103.084 233.244 104.706 242.584 106.847L243.031 104.897ZM214.497 100C198.791 98.1891 182.993 97.2854 167.182 97.2933L167.183 99.2933C182.917 99.2854 198.639 100.185 214.268 101.987L214.497 100ZM167.185 97.2933C160.6 97.2771 153.9 97.3949 147.131 97.6535L147.207 99.6521C153.949 99.3945 160.623 99.2772 167.18 99.2933L167.185 97.2933ZM147.131 97.6535C141.766 97.8585 136.448 98.1481 131.206 98.5211L131.348 100.516C136.567 100.145 141.864 99.8562 147.207 99.6521L147.131 97.6535ZM131.209 98.5208C115.827 99.5619 100.513 101.441 85.3362 104.148L85.6874 106.117C100.792 103.422 116.034 101.552 131.344 100.516L131.209 98.5208ZM85.3383 104.148C74.0881 106.129 62.9746 108.816 52.0644 112.193L52.6557 114.103C63.4858 110.752 74.5176 108.085 85.6853 106.118L85.3383 104.148ZM52.0582 112.195C39.3406 116.221 29.4564 120.762 22.7786 125.611C16.1304 130.439 12.4538 135.733 12.666 141.285L14.6645 141.208C14.4909 136.665 17.4927 131.921 23.9538 127.229C30.3854 122.559 40.0414 118.097 52.6619 114.101L52.0582 112.195ZM12.666 141.285C12.8781 146.837 16.9479 151.835 23.9451 156.141C30.9734 160.467 41.1752 164.24 54.1629 167.284L54.6194 165.337C41.7308 162.316 31.7625 158.604 24.9933 154.438C18.193 150.253 14.8381 145.752 14.6645 141.208L12.666 141.285ZM54.1628 167.284C72.4446 171.573 94.8483 174.108 119.148 174.734L119.2 172.735C94.9952 172.111 72.7337 169.587 54.6196 165.337L54.1628 167.284ZM119.148 174.734C129.181 174.999 139.538 174.931 150.068 174.529L149.992 172.53C139.503 172.931 129.189 172.998 119.201 172.735L119.148 174.734ZM150.068 174.529C160.633 174.125 170.999 173.397 181.013 172.366L180.808 170.377C170.839 171.403 160.515 172.128 149.992 172.53L150.068 174.529ZM181.013 172.366C203.021 170.105 223.34 166.387 240.297 161.454L239.738 159.534C222.924 164.425 202.727 168.124 180.809 170.377L181.013 172.366ZM240.328 161.445C240.398 161.422 240.467 161.402 240.551 161.379L240.016 159.452C239.919 159.478 239.818 159.508 239.708 159.543L240.328 161.445ZM240.56 161.376C241.708 161.046 242.836 160.703 243.946 160.363L243.361 158.451C242.253 158.79 241.138 159.129 240.007 159.454L240.56 161.376ZM243.958 160.36C244.352 160.234 244.742 160.112 245.137 159.989L244.541 158.08C244.148 158.202 243.751 158.326 243.349 158.455L243.958 160.36ZM245.252 159.945C245.222 159.959 245.191 159.97 245.159 159.978L244.655 158.043C244.576 158.063 244.5 158.09 244.426 158.124L245.252 159.945ZM245.206 159.965C245.575 159.849 245.98 159.717 246.33 159.606L245.727 157.699C245.332 157.824 244.993 157.936 244.609 158.056L245.206 159.965ZM246.34 159.603C247.081 159.36 247.824 159.118 248.555 158.868L247.907 156.976C247.192 157.221 246.465 157.458 245.717 157.703L246.34 159.603ZM248.509 158.883C248.561 158.868 248.607 158.853 248.634 158.844L248.016 156.942C247.984 156.952 247.969 156.957 247.953 156.962L248.509 158.883ZM248.647 158.84C249.279 158.625 249.897 158.411 250.509 158.197L249.851 156.309C249.241 156.521 248.628 156.734 248.003 156.946L248.647 158.84ZM250.517 158.195C251.009 158.019 251.515 157.841 252.008 157.662L251.326 155.782C250.838 155.959 250.351 156.13 249.844 156.311L250.517 158.195ZM252.008 157.662C252.369 157.531 252.726 157.401 253.078 157.27L252.383 155.395C252.036 155.524 251.683 155.653 251.327 155.782L252.008 157.662ZM253.082 157.269C253.325 157.178 253.594 157.08 253.847 156.982L253.126 155.117C252.884 155.21 252.65 155.295 252.38 155.396L253.082 157.269ZM253.834 156.987C254.178 156.86 254.521 156.728 254.856 156.598L254.133 154.734C253.802 154.862 253.47 154.989 253.139 155.112L253.834 156.987ZM254.845 156.603C254.983 156.551 255.141 156.492 255.298 156.426L254.527 154.581C254.411 154.629 254.288 154.676 254.143 154.73L254.845 156.603ZM255.263 156.44C255.595 156.316 255.915 156.188 256.225 156.065L255.486 154.207C255.173 154.331 254.871 154.451 254.562 154.567L255.263 156.44ZM256.224 156.065C256.562 155.932 256.912 155.788 257.234 155.659L256.49 153.803C256.147 153.94 255.824 154.073 255.487 154.206L256.224 156.065ZM257.23 155.661C257.516 155.548 257.799 155.431 258.075 155.316L257.304 153.471C257.034 153.583 256.764 153.695 256.494 153.801L257.23 155.661ZM258.086 155.312C258.31 155.215 258.531 155.122 258.757 155.029L257.995 153.18C257.761 153.276 257.529 153.373 257.293 153.475L258.086 155.312ZM258.76 155.027C259.397 154.762 260.019 154.489 260.622 154.226L259.82 152.393C259.213 152.659 258.608 152.924 257.991 153.181L258.76 155.027ZM260.633 154.221C260.915 154.094 261.244 153.949 261.54 153.814L260.707 151.995C260.407 152.133 260.132 152.253 259.809 152.398L260.633 154.221ZM261.533 153.817C261.831 153.683 262.135 153.544 262.43 153.405L261.579 151.595C261.296 151.728 261.003 151.862 260.714 151.992L261.533 153.817ZM262.425 153.408C262.905 153.185 263.377 152.963 263.841 152.741L262.977 150.937C262.521 151.155 262.057 151.374 261.584 151.593L262.425 153.408ZM263.86 152.731C264.069 152.626 264.284 152.523 264.501 152.42L263.643 150.613C263.426 150.716 263.19 150.829 262.957 150.947L263.86 152.731ZM264.524 152.409C264.604 152.368 264.683 152.329 264.765 152.287C264.847 152.247 264.931 152.205 265.017 152.161L264.113 150.377C264.033 150.417 263.954 150.457 263.872 150.498C263.791 150.539 263.706 150.581 263.62 150.624L264.524 152.409ZM264.992 152.173C265.129 152.109 265.261 152.041 265.384 151.977L264.452 150.207C264.345 150.263 264.24 150.317 264.138 150.365L264.992 152.173ZM265.365 151.986C265.801 151.768 266.232 151.546 266.653 151.325L265.723 149.555C265.311 149.771 264.893 149.986 264.47 150.198L265.365 151.986ZM266.652 151.326C268.269 150.478 269.779 149.616 271.181 148.738L270.12 147.043C268.765 147.891 267.3 148.728 265.724 149.554L266.652 151.326ZM271.179 148.74C279.893 143.324 284.777 137.282 284.533 130.898L282.535 130.974C282.735 136.209 278.713 141.703 270.123 147.041L271.179 148.74ZM284.533 130.898C284.321 125.346 280.251 120.348 273.254 116.041C266.226 111.716 256.024 107.943 243.036 104.898L242.58 106.845C255.468 109.867 265.436 113.578 272.206 117.745C279.006 121.93 282.361 126.431 282.535 130.974L284.533 130.898Z" fill="#4F4F4F" mask="url(#path-34-inside-1)"/>
<path d="M283.556 131.511C283.775 137.238 279.218 142.838 270.898 148.002C269.514 148.862 268.022 149.709 266.433 150.542C266.017 150.76 265.592 150.978 265.162 151.192C265.048 151.252 264.929 151.312 264.81 151.368C264.644 151.452 264.482 151.531 264.316 151.615C264.099 151.717 263.874 151.825 263.653 151.936C263.193 152.156 262.725 152.375 262.248 152.595C261.959 152.731 261.661 152.867 261.367 152.998C261.069 153.134 260.766 153.266 260.464 153.402C259.859 153.665 259.245 153.933 258.618 154.193C258.388 154.288 258.162 154.383 257.931 154.481C257.659 154.595 257.381 154.709 257.104 154.818C256.771 154.951 256.434 155.088 256.097 155.221C255.785 155.345 255.474 155.468 255.153 155.588C255.017 155.645 254.876 155.697 254.735 155.75C254.402 155.878 254.065 156.007 253.727 156.132C253.479 156.227 253.227 156.318 252.971 156.414C252.62 156.543 252.266 156.673 251.907 156.802C251.415 156.98 250.92 157.153 250.419 157.331C249.808 157.543 249.192 157.756 248.564 157.969C248.533 157.978 248.504 157.988 248.469 157.998C247.746 158.245 247.011 158.483 246.266 158.726C245.893 158.843 245.521 158.965 245.144 159.082C245.121 159.088 245.098 159.097 245.076 159.106C244.682 159.229 244.288 159.351 243.89 159.478C242.785 159.812 241.659 160.151 240.519 160.483C240.429 160.507 240.343 160.532 240.253 160.561C223.819 165.302 203.579 169.071 181.108 171.376C171.264 172.384 160.989 173.111 150.42 173.515C139.756 173.922 129.369 173.98 119.398 173.717C59.879 172.149 15.1334 159.229 14.4672 141.792C14.4314 140.731 14.5543 139.67 14.832 138.644C14.8608 138.716 14.8894 138.784 14.9226 138.855C21.7097 154.685 66.0172 165.995 122.984 166.991C131.711 167.147 140.741 167.055 149.973 166.702C159.244 166.348 168.289 165.745 177.014 164.922C233.691 159.572 276.963 144.911 282.501 128.624C282.595 128.362 282.676 128.102 282.744 127.842C283.228 129.009 283.503 130.25 283.556 131.511Z" fill="#3F3D56"/>
<path d="M53.2648 135.047C46.0808 135.321 38.388 134.11 38.2816 131.323C38.1751 128.537 45.753 126.742 52.937 126.467C60.1211 126.193 67.8139 127.404 67.9203 130.191C68.0268 132.977 60.4489 134.772 53.2648 135.047ZM52.9691 127.307C44.7446 127.621 39.0826 129.659 39.1449 131.29C39.2072 132.922 45.0082 134.521 53.2328 134.207C61.4573 133.893 67.1193 131.856 67.057 130.224C66.9946 128.592 61.1936 126.993 52.9691 127.307Z" fill="#3F3D56"/>
<path d="M84.4583 154.164C77.2742 154.438 69.5815 153.227 69.4751 150.44C69.3686 147.654 76.9465 145.859 84.1305 145.584C91.3146 145.31 99.0073 146.521 99.1138 149.308C99.2202 152.094 91.6424 153.889 84.4583 154.164ZM84.1626 146.424C75.9381 146.738 70.276 148.776 70.3384 150.407C70.4007 152.039 76.2017 153.638 84.4262 153.324C92.6506 153.01 98.3128 150.973 98.2505 149.341C98.1881 147.709 92.3871 146.11 84.1626 146.424Z" fill="#3F3D56"/>
<path d="M243.577 127.776C236.393 128.05 228.7 126.839 228.593 124.052C228.487 121.266 236.065 119.471 243.249 119.196C250.433 118.922 258.126 120.134 258.232 122.92C258.339 125.706 250.761 127.501 243.577 127.776ZM243.281 120.036C235.056 120.35 229.394 122.388 229.457 124.019C229.519 125.651 235.32 127.25 243.545 126.936C251.769 126.622 257.431 124.585 257.369 122.953C257.307 121.321 251.505 119.722 243.281 120.036Z" fill="#3F3D56"/>
<path d="M213.153 149.247C205.969 149.522 198.276 148.31 198.17 145.523C198.063 142.737 205.641 140.942 212.825 140.667C220.009 140.393 227.702 141.605 227.808 144.391C227.915 147.177 220.337 148.973 213.153 149.247ZM212.857 141.507C204.633 141.821 198.971 143.859 199.033 145.49C199.095 147.122 204.896 148.721 213.121 148.407C221.345 148.093 227.007 146.056 226.945 144.424C226.883 142.792 221.082 141.193 212.857 141.507Z" fill="#3F3D56"/>
<path d="M149.583 161.83C142.399 162.105 134.701 160.756 134.585 157.716C134.469 154.677 142.041 152.745 149.225 152.47C156.409 152.196 164.107 153.544 164.224 156.584C164.34 159.624 156.767 161.556 149.583 161.83ZM149.26 153.387C141.036 153.701 135.38 155.903 135.448 157.683C135.516 159.464 141.323 161.228 149.548 160.914C157.772 160.6 163.428 158.397 163.36 156.617C163.292 154.837 157.485 153.072 149.26 153.387Z" fill="#3F3D56"/>
<path d="M335.056 336.392C336.452 335.224 334.566 330.675 330.844 326.232C327.123 321.788 322.975 319.133 321.58 320.301C320.184 321.469 322.07 326.018 325.791 330.461C329.513 334.905 333.661 337.56 335.056 336.392Z" fill="#2F2E41"/>
<path d="M325.905 331.339C329.571 320.343 323.627 308.458 312.628 304.792C301.629 301.127 289.74 307.07 286.073 318.066C282.407 329.062 288.351 340.947 299.351 344.613C310.35 348.278 322.239 342.335 325.905 331.339Z" fill="#2F2E41"/>
<path d="M315 341H308V353H315V341Z" fill="#2F2E41"/>
<path d="M302 341H296V353H302V341Z" fill="#2F2E41"/>
<path d="M309.5 355C312.538 355 315 354.105 315 353C315 351.895 312.538 351 309.5 351C306.462 351 304 351.895 304 353C304 354.105 306.462 355 309.5 355Z" fill="#2F2E41"/>
<path d="M297 355C299.761 355 302 354.105 302 353C302 351.895 299.761 351 297 351C294.239 351 292 351.895 292 353C292 354.105 294.239 355 297 355Z" fill="#2F2E41"/>
<path d="M299.298 298.177C301.182 290.811 309.496 286.477 317.868 288.495C326.241 290.514 331.501 298.121 329.618 305.487C327.734 312.852 321.485 312.876 313.113 310.858C304.74 308.839 297.415 305.542 299.298 298.177Z" fill="#CCCCCC"/>
<path d="M291.828 319.461C292.608 317.817 288.994 314.471 283.756 311.988C278.518 309.504 273.64 308.824 272.86 310.467C272.08 312.111 275.694 315.457 280.932 317.941C286.17 320.424 291.048 321.105 291.828 319.461Z" fill="#2F2E41"/>
<path d="M303 327C306.866 327 310 323.866 310 320C310 316.134 306.866 313 303 313C299.134 313 296 316.134 296 320C296 323.866 299.134 327 303 327Z" fill="white"/>
<path d="M300 320C301.105 320 302 319.105 302 318C302 316.895 301.105 316 300 316C298.895 316 298 316.895 298 318C298 319.105 298.895 320 300 320Z" fill="#3F3D56"/>
<path d="M303 338C304.657 338 306 336.657 306 335C306 333.343 304.657 332 303 332C301.343 332 300 333.343 300 335C300 336.657 301.343 338 303 338Z" fill="white"/>
</svg>
